<svg xmlns="http://www.w3.org/2000/svg" width="60" height="60" viewBox="0 0 60 60">
    <defs>
        <style>.a{fill:none;}.b{fill:#4786ff;}.c{fill:#f8c332;}</style>
    </defs>
    <g transform="translate(687 -8058)">
        <g transform="translate(-318 8058)">
            <rect class="a" width="60" height="60" transform="translate(-369)"/>
            <path class="b"
                  d="M-328.1,6.4A27.579,27.579,0,0,0-339,4.2a28.018,28.018,0,0,0-15.6,4.7,30.347,30.347,0,0,0-10.8,12.7A30.913,30.913,0,0,0-368,38.3a30.235,30.235,0,0,0,6.5,15.5,5.076,5.076,0,0,0,3.9,1.9h0a4.717,4.717,0,0,0,3.2-1.2,5.459,5.459,0,0,0,.7-7.5,20.206,20.206,0,0,1,1.3-26.4,18.777,18.777,0,0,1,13.5-5.8,18.265,18.265,0,0,1,11.6,4.1l8-6.9A33.739,33.739,0,0,0-328.1,6.4Z"/>
            <path class="b"
                  d="M-316,15.8l-6.7,8.4a20.227,20.227,0,0,1-1.5,22.9,5.459,5.459,0,0,0,.7,7.5,4.9,4.9,0,0,0,3.2,1.2,5.076,5.076,0,0,0,3.9-1.9A31.36,31.36,0,0,0-316,15.8Z"/>
            <path class="c"
                  d="M-315.2,11.9a.961.961,0,0,0-.9-.6h0a.908.908,0,0,0-.7.3l-24,20.7h0a4.506,4.506,0,0,0-.4,6.1h0a3.581,3.581,0,0,0,2.5,1.1h.1a4.459,4.459,0,0,0,3.3-1.5h0l19.9-24.9A1.322,1.322,0,0,0-315.2,11.9Z"/>
        </g>
    </g>
</svg>