<svg xmlns="http://www.w3.org/2000/svg" width="60" height="60" viewBox="0 0 60 60">
    <defs>
        <style>.a{fill:none;}.b{fill:#f8c332;}.c{fill:#4786ff;}</style>
    </defs>
    <g transform="translate(-1015 -1930)">
        <g transform="translate(1015 1930)">
            <rect class="a" width="60" height="60" transform="translate(0)"/>
            <g transform="translate(0)">
                <path class="b"
                      d="M-91.176-68.008a9.586,9.586,0,0,1,9.584,9.579V-27.58a9.587,9.587,0,0,1-9.585,9.588h-30.851a9.586,9.586,0,0,1-9.584-9.584V-58.429a9.586,9.586,0,0,1,9.584-9.579H-91.18m0-4.992h-30.849A14.593,14.593,0,0,0-136.6-58.429V-27.58a14.593,14.593,0,0,0,14.571,14.571H-91.18A14.593,14.593,0,0,0-76.609-27.58V-58.429A14.593,14.593,0,0,0-91.18-73Z"
                      transform="translate(136.6 73)"/>
            </g>
        </g>
        <g transform="translate(1027 1948.857)">
            <g transform="translate(22.308 3.88)">
                <path class="c"
                      d="M14.26,5.58a.957.957,0,0,0-.7-.289h-4.3V.992a.957.957,0,0,0-.289-.7A.957.957,0,0,0,8.266,0H6.282a.957.957,0,0,0-.7.289.957.957,0,0,0-.289.7v4.3H.992a.957.957,0,0,0-.7.289.956.956,0,0,0-.289.7V8.267a.956.956,0,0,0,.289.7.956.956,0,0,0,.7.289h4.3v4.3a.987.987,0,0,0,.992.992H8.266a.987.987,0,0,0,.992-.992v-4.3h4.3a.988.988,0,0,0,.992-.992V6.283A.956.956,0,0,0,14.26,5.58Z"
                      transform="translate(0 0)"/>
            </g>
            <path class="c"
                  d="M13.8,0H7.92A1.268,1.268,0,0,0,6.726.918L.3,20.66a.677.677,0,0,0,.643.826H5.9a.691.691,0,0,0,.643-.459l.918-3.581h6.979l.918,3.581a.691.691,0,0,0,.643.459h4.959a.677.677,0,0,0,.643-.826L14.99.918A1.268,1.268,0,0,0,13.8,0ZM8.654,12.764c.918-3.4,1.469-5.6,1.745-6.7s.459-1.928.551-2.479a20.648,20.648,0,0,0,.643,2.663c.367,1.194.551,2.2.826,3.03l.918,3.489Z"
                  transform="translate(-0.281)"/>
        </g>
    </g>
</svg>