<svg xmlns="http://www.w3.org/2000/svg" width="60" height="60" viewBox="0 0 60 60">
    <defs>
        <style>.a{fill:#4786ff;}.b{fill:#fff;}.c{fill:#f8c332;}</style>
    </defs>
    <g transform="translate(0 -0.1)">
        <g transform="translate(17.545 18.024)">
            <path class="a"
                  d="M-325.386-2126.8a12.414,12.414,0,0,1,12.414,12.448,12.414,12.414,0,0,1-12.414,12.448,12.414,12.414,0,0,1-12.414-12.448A12.467,12.467,0,0,1-325.386-2126.8Z"
                  transform="translate(337.8 2126.8)"/>
            <g transform="translate(10.456 6.469)">
                <path class="b"
                      d="M-331.78-2116.924l-1.407-1.411-2.234-2.24-.5-.5a8.646,8.646,0,0,1,.331.83v-5.394a1.185,1.185,0,0,0-1.159-1.162,1.133,1.133,0,0,0-1.159,1.162h0v4.9a1.684,1.684,0,0,0,.331,1.245l.414.415,2.069,2.075,1.572,1.577h0a1.149,1.149,0,0,0,1.572,0,.942.942,0,0,0,.166-1.494Z"
                      transform="translate(337.926 2126.8)"/>
            </g>
        </g>
        <g transform="translate(0 0.1)">
            <path class="c"
                  d="M22.262,54.457a25.61,25.61,0,0,1-2.9-47.635v5.062a2.261,2.261,0,0,0,1.407,2.075,2.307,2.307,0,0,0,2.483-.5l9.517-9.544a2.162,2.162,0,0,0,0-3.154A2.07,2.07,0,0,0,31.283.1H29.959A29.992,29.992,0,0,0,0,30.141,29.926,29.926,0,0,0,20.855,58.772a1.818,1.818,0,0,0,.662.083,2.268,2.268,0,0,0,.745-4.4Z"
                  transform="translate(0 -0.1)"/>
            <path class="c"
                  d="M44.675,1.678h0a2.142,2.142,0,0,0-1.738.166,2.175,2.175,0,0,0-1.076,1.328,2.158,2.158,0,0,0,.166,1.743,2.171,2.171,0,0,0,1.324,1.079,25.555,25.555,0,0,1,2.9,47.552V48.483a2.264,2.264,0,0,0-2.234-2.241h0a2.258,2.258,0,0,0-1.572.664l-9.683,9.627a2.162,2.162,0,0,0,0,3.154,2.07,2.07,0,0,0,1.49.664h1.324a29.755,29.755,0,0,0,21.186-8.8A30.091,30.091,0,0,0,44.675,1.678Z"
                  transform="translate(-5.53 -0.35)"/>
        </g>
    </g>
</svg>