<svg xmlns="http://www.w3.org/2000/svg" width="60" height="60" viewBox="0 0 60 60">
    <defs>
        <style>
            .a{fill:none;}.b{fill:#f8c332;}.c,.e,.f,.g,.h,.i,.j{fill:#fff;}.d{fill:#4786ff;}.e{opacity:0.4;}.f{opacity:0.5;}.g{opacity:0.6;}.h{opacity:0.7;}.i{opacity:0.8;}.j{opacity:0.2;}
        </style>
    </defs>
    <g transform="translate(-136 -2536)">
        <rect class="a" width="60" height="60" transform="translate(136 2536)"/>
        <g transform="translate(137.714 2540.286)">
            <path class="b"
                  d="M5.662,0h34.01a5.662,5.662,0,0,1,5.662,5.662V35.787a5.662,5.662,0,0,1-5.662,5.662H5.662A5.662,5.662,0,0,1,0,35.787V5.662A5.662,5.662,0,0,1,5.662,0Z"
                  transform="translate(0)"/>
            <g transform="translate(3.768 10.214)">
                <path class="c"
                      d="M94.84,107.085l-9.7-9.8a1.059,1.059,0,0,0-1.494,0l-5.025,5.074L70.26,93.913a1.064,1.064,0,0,0-1.495,0L55.73,107.085Zm0,0"
                      transform="translate(-55.73 -83.1)"/>
                <path class="c" d="M71.253,67.627A3.627,3.627,0,1,1,67.627,64a3.627,3.627,0,0,1,3.627,3.627Zm0,0"
                      transform="translate(-40.512 -64)"/>
            </g>
            <g transform="translate(33.291 27.62)">
                <circle class="d" cx="11.641" cy="11.641" r="11.641" transform="translate(0 0)"/>
                <g transform="translate(4.35 4.349)">
                    <path class="c"
                          d="M-.272,2.093a3.4,3.4,0,0,0,.339-.377,7.551,7.551,0,0,1,10-.528l.864-.867a.815.815,0,0,1,1.127,0,1.53,1.53,0,0,1,.188.343L13.255,4.51a.857.857,0,0,1-.075.6.831.831,0,0,1-.489.377,1.623,1.623,0,0,0-.188.038.281.281,0,0,1-.188-.038L8.484,4.469A.8.8,0,0,1,8,4.092a.829.829,0,0,1-.075-.6.729.729,0,0,1,.188-.343l.826-.83a5.85,5.85,0,0,0-7.778.531,1.739,1.739,0,0,1-.263.264.789.789,0,0,1-.526.264.753.753,0,0,1-.489-.151h0L-.2,3.151A.73.73,0,0,1-.272,2.093Z"
                          transform="translate(2.15 0.453)"/>
                    <path class="e"
                          d="M11.645,34.348a.831.831,0,0,1,.489-.377,4.41,4.41,0,0,0,.752-.264.827.827,0,0,1,.6,0,.746.746,0,0,1,.413.415.764.764,0,0,1-.413,1.018c-.3.113-.639.226-.943.343-.075,0-.15.038-.225.038a.633.633,0,0,1-.375-.113.832.832,0,0,1-.375-.49A.777.777,0,0,1,11.645,34.348Z"
                          transform="translate(-3.041 -20.792)"/>
                    <path class="f"
                          d="M19.412,35.523a.8.8,0,0,1,.9-.641,5.586,5.586,0,0,0,.789.075.657.657,0,0,1,.526.264.956.956,0,0,1,.225.566.771.771,0,0,1-.826.754h0a4.649,4.649,0,0,1-1.015-.113.8.8,0,0,1-.6-.905Z"
                          transform="translate(-13.889 -21.552)"/>
                    <path class="c"
                          d="M34.987,11.764a4.02,4.02,0,0,1,.339-.943.746.746,0,0,1,.413-.415.827.827,0,0,1,.6,0,.746.746,0,0,1,.413.415.835.835,0,0,1,0,.6,6,6,0,0,0-.263.754.771.771,0,0,1-.752.566h0a.771.771,0,0,1-.789-.792A1.636,1.636,0,0,0,34.987,11.764Z"
                          transform="translate(-34.687 -6.277)"/>
                    <path class="g"
                          d="M27.174,32.079a.822.822,0,0,1,.526-.3.627.627,0,0,1,.564.151,6.533,6.533,0,0,0,.676.415.756.756,0,0,1,.3,1.056.879.879,0,0,1-.451.377.475.475,0,0,1-.225.038.723.723,0,0,1-.375-.113,6.614,6.614,0,0,1-.864-.528.826.826,0,0,1-.3-.528.723.723,0,0,1,.149-.566Z"
                          transform="translate(-24.247 -19.617)"/>
                    <path class="h"
                          d="M33.291,25.852h0a.792.792,0,0,1,1.052.3l.038.038v.038a6.144,6.144,0,0,0,.413.641.759.759,0,0,1-.188,1.094.721.721,0,0,1-.451.151h-.113a1.071,1.071,0,0,1-.526-.3,6.644,6.644,0,0,1-.526-.867.789.789,0,0,1,.3-1.094Z"
                          transform="translate(-32.052 -15.878)"/>
                    <path class="i"
                          d="M36.392,18.364a1,1,0,0,1,.526-.264h.038a.814.814,0,0,1,.789.754,5.642,5.642,0,0,0,.075.792.771.771,0,0,1-.639.905h-.15a.737.737,0,0,1-.752-.641,4.7,4.7,0,0,1-.113-1.018A1.324,1.324,0,0,1,36.392,18.364Z"
                          transform="translate(-36.167 -11.105)"/>
                    <path class="j"
                          d="M6.145,30.39a1.014,1.014,0,0,0,.3-.264h0a.815.815,0,0,1,1.127,0,.771.771,0,0,1,0,1.094,3.392,3.392,0,0,1-.375.343.9.9,0,0,1-.526.189H6.634a.657.657,0,0,1-.526-.264.777.777,0,0,1,.038-1.1Z"
                          transform="translate(5.24 -18.456)"/>
                </g>
            </g>
        </g>
    </g>
</svg>