<svg xmlns="http://www.w3.org/2000/svg" width="60" height="60" viewBox="0 0 60 60">
    <defs>
        <style>
            .a{fill:none;}.b{fill:#4786ff;}.c,.e{fill:#fff;}.c{opacity:0.95;}.d{fill:#f8c332;stroke:#f6b400;}.e{stroke:#fb0;}.f{stroke:none;}
        </style>
    </defs>
    <g transform="translate(-339 -1987)">
        <rect class="a" width="60" height="60" transform="translate(339 1987)"/>
        <g transform="translate(339.857 1991.286)">
            <g transform="translate(0)">
                <path class="b"
                      d="M6.086,0H42.627a6.086,6.086,0,0,1,6.086,6.086V38.452a6.086,6.086,0,0,1-6.086,6.086H6.086A6.086,6.086,0,0,1,0,38.452V6.086A6.086,6.086,0,0,1,6.086,0Z"
                      transform="translate(0 0)"/>
                <path class="c"
                      d="M29.3.806h0A2.621,2.621,0,0,0,27.621.1,2.2,2.2,0,0,0,25.94.806L10.328,15.871l-6-6.118a2.646,2.646,0,0,0-3.6,0,2.245,2.245,0,0,0,0,3.3L8.65,20.818a2.2,2.2,0,0,0,1.681.706,2.2,2.2,0,0,0,1.681-.706L29.062,4.1A2.091,2.091,0,0,0,29.3.806Z"
                      transform="translate(8.947 11.291)"/>
            </g>
            <g transform="translate(28.909 33.255)">
                <g class="d">
                    <rect class="f" width="27.993" height="16.797" rx="8.398"/>
                    <rect class="a" x="0.5" y="0.5" width="26.993" height="15.797" rx="7.898"/>
                </g>
                <g class="e" transform="translate(11.198)">
                    <rect class="f" width="16.797" height="16.797" rx="8.398"/>
                    <rect class="a" x="0.5" y="0.5" width="15.797" height="15.797" rx="7.898"/>
                </g>
            </g>
        </g>
    </g>
</svg>