<svg xmlns="http://www.w3.org/2000/svg" xmlns:xlink="http://www.w3.org/1999/xlink" width="159.776" height="135"
     viewBox="0 0 159.776 135">
    <defs>
        <filter id="Path_111685" x="24.776" y="0" width="135" height="135" filterUnits="userSpaceOnUse">
            <feOffset dy="5" input="SourceAlpha"/>
            <feGaussianBlur stdDeviation="10" result="blur"/>
            <feFlood flood-color="#e5e6e8" flood-opacity="0.8"/>
            <feComposite operator="in" in2="blur"/>
            <feComposite in="SourceGraphic"/>
        </filter>
    </defs>
    <g id="Group_66131" data-name="Group 66131" transform="translate(-1105.223 -2373)">
        <rect id="Rectangle_20066" data-name="Rectangle 20066" width="22.88" height="22.88"
              transform="translate(1191.1 2477.992)" fill="#f3f3f3"/>
        <path id="Path_114568" data-name="Path 114568"
              d="M1.815-92.964h-74.4V-111.2l25.035-25.315q10.729-11.22,14.025-15.322a33.563,33.563,0,0,0,4.593-7.048,15.146,15.146,0,0,0,1.3-6.171,8.027,8.027,0,0,0-2.595-6.311q-2.595-2.314-7.293-2.314a19.9,19.9,0,0,0-9.783,2.77,70.166,70.166,0,0,0-11.185,8.17l-15.217-17.812a82.077,82.077,0,0,1,13.324-10.133,47.582,47.582,0,0,1,11.746-4.663,58.029,58.029,0,0,1,14.271-1.613,43.013,43.013,0,0,1,17.777,3.506,27.818,27.818,0,0,1,12.132,9.993A25.7,25.7,0,0,1-.149-168.911a39.327,39.327,0,0,1-1.508,11.15A39.376,39.376,0,0,1-6.32-147.7a69.565,69.565,0,0,1-8.38,10.414q-5.224,5.47-22.265,20.757v.7H1.815Z"
              transform="translate(1178.934 2594.961)" fill="#323a45" opacity="0.05"/>
        <g id="Group_65993" data-name="Group 65993" transform="translate(-261.001 -2171)">
            <g id="Group_65241" data-name="Group 65241" transform="translate(1421 4569)">
                <g id="Group_64761" data-name="Group 64761">
                    <g id="Group_59464" data-name="Group 59464">
                        <g transform="matrix(1, 0, 0, 1, -54.78, -25)" filter="url(#Path_111685)">
                            <path id="Path_111685-2" data-name="Path 111685"
                                  d="M37.5,75C74.711,75,75,58.211,75,37.5S74.711,0,37.5,0,0,16.789,0,37.5.289,75,37.5,75Z"
                                  transform="translate(54.78 25)" fill="#fff"/>
                        </g>
                    </g>
                </g>
            </g>
            <g id="Group_65446" data-name="Group 65446" transform="translate(1440.057 4590.516)">
                <g id="Group_65445" data-name="Group 65445" transform="translate(0 0)">
                    <path id="Path_129158" data-name="Path 129158"
                          d="M36.885,3.255V8.679l-2.161,2.17H2.161L0,8.679V3.255A3.243,3.243,0,0,1,3.242,0h30.4a3.243,3.243,0,0,1,3.242,3.255Zm0,0"
                          transform="translate(0)" fill="#4786ff"/>
                    <path id="Path_129159" data-name="Path 129159"
                          d="M36.885,120v22.782a3.244,3.244,0,0,1-3.242,3.255H3.242A3.244,3.244,0,0,1,0,142.782V120Zm0,0"
                          transform="translate(0 -112.189)" fill="#e8ecf2"/>
                    <path id="Path_129160" data-name="Path 129160"
                          d="M67.564,186.509H61.081A1.082,1.082,0,0,1,60,185.425v-4.339A1.082,1.082,0,0,1,61.081,180h6.484a1.082,1.082,0,0,1,1.081,1.085v4.339a1.082,1.082,0,0,1-1.082,1.085Zm0,0"
                          transform="translate(-55.677 -167.85)" fill="#4786ff" opacity="0.2"/>
                    <path id="Path_129161" data-name="Path 129161"
                          d="M67.564,336.509H61.081A1.082,1.082,0,0,1,60,335.425v-4.339A1.082,1.082,0,0,1,61.081,330h6.484a1.082,1.082,0,0,1,1.081,1.085v4.339a1.082,1.082,0,0,1-1.082,1.085Zm0,0"
                          transform="translate(-55.677 -307.001)" fill="#4786ff" opacity="0.2"/>
                    <path id="Path_129162" data-name="Path 129162"
                          d="M227.433,181.084a1.072,1.072,0,0,1-1.081,1.085H211.079a1.085,1.085,0,0,1,0-2.17h15.273a1.072,1.072,0,0,1,1.08,1.085Zm0,0"
                          transform="translate(-194.87 -167.849)" fill="#4786ff" opacity="0.2"/>
                    <path id="Path_129163" data-name="Path 129163"
                          d="M309.868,242.17H301.08a1.085,1.085,0,1,1,0-2.17h8.789a1.085,1.085,0,0,1,0,2.17Zm0,0"
                          transform="translate(-278.386 -223.51)" fill="#4786ff" opacity="0.3"/>
                    <path id="Path_129164" data-name="Path 129164"
                          d="M227.433,331.084a1.072,1.072,0,0,1-1.081,1.085H211.079a1.085,1.085,0,1,1,0-2.17h15.273a1.072,1.072,0,0,1,1.08,1.085Zm0,0"
                          transform="translate(-194.87 -307)" fill="#4786ff" opacity="0.2"/>
                    <path id="Path_129165" data-name="Path 129165"
                          d="M309.868,392.17H301.08a1.085,1.085,0,0,1,0-2.17h8.789a1.085,1.085,0,0,1,0,2.17Zm0,0"
                          transform="translate(-278.386 -362.661)" fill="#4786ff" opacity="0.3"/>
                </g>
                <g id="Group_65443" data-name="Group 65443" transform="translate(25.451 18.073)">
                    <path id="secure"
                          d="M28.808,2.6a.622.622,0,0,0-.443-.518A12.753,12.753,0,0,1,24.515.759a30.967,30.967,0,0,1-3.849-2.571A30.784,30.784,0,0,1,16.7.759a14.252,14.252,0,0,1-3.733,1.32.622.622,0,0,0-.443.518c-.044.321-1.041,7.917,1.517,11.7a12.016,12.016,0,0,0,6.482,4.781.6.6,0,0,0,.288,0,12.015,12.015,0,0,0,6.482-4.781C29.849,10.513,28.808,2.6,28.808,2.6Z"
                          transform="translate(-12.296 1.812)" fill="#fff"/>
                    <g id="Group_60056" data-name="Group 60056" transform="translate(1.02 1.464)">
                        <path id="secure-2" data-name="secure"
                              d="M26.825,1.98a.539.539,0,0,0-.39-.445A11.4,11.4,0,0,1,23.047.4a27.287,27.287,0,0,1-3.386-2.211A27.149,27.149,0,0,1,16.171.4a12.741,12.741,0,0,1-3.285,1.135.539.539,0,0,0-.39.445c-.038.277-.916,6.81,1.334,10.061a10.586,10.586,0,0,0,5.7,4.112.541.541,0,0,0,.253,0,10.585,10.585,0,0,0,5.7-4.112C27.741,8.79,26.825,1.98,26.825,1.98Z"
                              transform="translate(-12.296 1.812)" fill="#f8c332"/>
                        <path id="secure-3" data-name="secure"
                              d="M23.94,5.8l-4.523,4.523a.539.539,0,0,1-.762,0l-2.8-2.8a.539.539,0,0,1,0-.762l.555-.555a.539.539,0,0,1,.762,0l1.86,1.86,3.586-3.586a.539.539,0,0,1,.762,0l.555.555A.539.539,0,0,1,23.94,5.8Z"
                              transform="translate(-12.433 2.056)" fill="#fff"/>
                    </g>
                </g>
            </g>
        </g>
    </g>
</svg>
