<svg width="16" height="16" viewBox="0 0 16 16" fill="none" xmlns="http://www.w3.org/2000/svg">
<path d="M8 0C3.4934 0 0 3.3012 0 7.76C0 10.0922 0.9558 12.1076 2.5124 13.4996C2.643 13.6166 2.722 13.7804 2.7274 13.9558L2.771 15.3788C2.785 15.8328 3.2538 16.128 3.6692 15.9448L5.257 15.2438C5.3916 15.1844 5.5424 15.1734 5.6842 15.2124C6.4138 15.413 7.1904 15.52 8 15.52C12.5066 15.52 16 12.2188 16 7.76C16 3.3012 12.5066 0 8 0ZM12.804 5.9706L10.454 9.699C10.0802 10.292 9.2796 10.4398 8.7188 10.0192L6.8496 8.6174C6.6782 8.4888 6.4422 8.4894 6.2714 8.619L3.7472 10.5348C3.4102 10.7904 2.9704 10.3872 3.196 10.0294L5.546 6.301C5.9198 5.7078 6.7202 5.5602 7.2812 5.9808L9.1502 7.3826C9.3216 7.5112 9.5576 7.5106 9.7284 7.381L12.2526 5.4652C12.5896 5.2096 13.0296 5.6128 12.804 5.9706Z" fill="#1A1E47"/>
</svg>
