<svg xmlns="http://www.w3.org/2000/svg" viewBox="0 0 55 55">
    <defs>
        <style>.a{fill:#323a45;}</style>
    </defs>
    <path class="a"
          d="M23.74,34.475,41.9,15.831a1.185,1.185,0,0,1,1.693,0l26.16,27.019a1.264,1.264,0,0,1,0,1.738l-.154.158a5.47,5.47,0,0,1-7.848,0L43.283,25.785a1.185,1.185,0,0,0-1.693,0L31.28,36.371a5.47,5.47,0,0,1-7.848,0A2.061,2.061,0,0,1,23.74,34.475Z"
          transform="translate(-15.097 -15.475)"/>
    <path class="a"
          d="M64.689,43.121,46.53,61.766a1.185,1.185,0,0,1-1.693,0L18.521,34.747a1.264,1.264,0,0,1,0-1.738h0a5.471,5.471,0,0,1,7.849,0l18.313,18.8a1.185,1.185,0,0,0,1.693,0L56.687,41.225a5.471,5.471,0,0,1,7.849,0h0A1.328,1.328,0,0,1,64.689,43.121Z"
          transform="translate(-18.175 -7.121)"/>
    <path class="a"
          d="M39.285,36.73l-4.628-4.582a3.609,3.609,0,0,1,0-4.9l.16-.158a3.4,3.4,0,0,1,4.947,0l9.575,9.48a1.231,1.231,0,0,1,0,1.738l-9.256,9.164a3.4,3.4,0,0,1-4.947,0h0a3.323,3.323,0,0,1,0-4.9l4.309-4.266A1.216,1.216,0,0,0,39.285,36.73Z"
          transform="translate(-9.978 -9.783)"/>
    <path class="a"
          d="M36.4,33.472l-1.6-1.58a3.4,3.4,0,0,0-4.947,0h0a3.609,3.609,0,0,0,0,4.9h0a3.4,3.4,0,0,0,4.947,0l1.6-1.58A1.231,1.231,0,0,0,36.4,33.472Z"
          transform="translate(-12.391 -6.996)"/>
</svg>