<!-- Generated by IcoMoon.io -->
<svg version="1.1" xmlns="http://www.w3.org/2000/svg" width="1024" height="1024" viewBox="0 0 1024 1024">
    <title></title>
    <g id="icomoon-ignore">
    </g>
    <path fill="#fff"
          d="M1024 627.285v-535.040c0.023-0.728 0.035-1.584 0.035-2.443 0-24.588-10.547-46.713-27.363-62.096l-0.064-0.058c-15.212-17.018-37.229-27.679-61.736-27.679-0.796 0-1.59 0.011-2.381 0.034l0.116-0.003h-548.608c-50.946 0-92.245 41.3-92.245 92.245s41.3 92.245 92.245 92.245v0h320l-676.608 691.883c-16.925 16.349-27.433 39.246-27.433 64.597s10.509 48.248 27.407 64.572l0.026 0.025 9.131 9.216c15.836 4.298 34.537 7.563 53.717 9.14l1.153 0.076c22.057-1.502 41.431-11.873 54.777-27.537l0.092-0.111 694.869-682.667v304.469c0 0.051 0 0.112 0 0.173 0 50.611 40.835 91.685 91.355 92.072h0.037c3.519 0.549 7.579 0.863 11.711 0.863 44.112 0 79.872-35.76 79.872-79.872 0-1.444-0.038-2.88-0.114-4.305l0.008 0.199z"></path>
</svg>
