<svg xmlns="http://www.w3.org/2000/svg" xmlns:xlink="http://www.w3.org/1999/xlink" width="160" height="160"
     viewBox="0 0 160 160">
    <defs>
        <filter id="Path_111685" x="0" y="0" width="160" height="160" filterUnits="userSpaceOnUse">
            <feOffset dy="5" input="SourceAlpha"/>
            <feGaussianBlur stdDeviation="10" result="blur"/>
            <feFlood flood-color="#e5e6e8" flood-opacity="0.8"/>
            <feComposite operator="in" in2="blur"/>
            <feComposite in="SourceGraphic"/>
        </filter>
    </defs>
    <g id="Group_64663" data-name="Group 64663" transform="translate(-1022 -3813)">
        <g id="Group_59727" data-name="Group 59727" transform="translate(1052 3838)">
            <g transform="matrix(1, 0, 0, 1, -30, -25)" filter="url(#Path_111685)">
                <path id="Path_111685-2" data-name="Path 111685"
                      d="M50,100c49.615,0,50-22.385,50-50S99.615,0,50,0,0,22.385,0,50,.385,100,50,100Z"
                      transform="translate(30 25)" fill="#fff"/>
            </g>
        </g>
        <g id="Group_53865" data-name="Group 53865" transform="translate(1073 3874.475)">
            <path id="Path_107402"
                  d="M39.459,22.147l6.653-6.653c.171-.171,0-.341-.171-.341H6.706A1.709,1.709,0,0,1,5,13.447v-.512a1.893,1.893,0,0,1,1.876-1.876H46.112c.171,0,.171-.171.171-.341L39.629,4.065a1.963,1.963,0,0,1,0-2.9h0a2.162,2.162,0,0,1,3.071,0L54.471,12.935v.171L42.359,25.047a2.072,2.072,0,0,1-2.729,0l-.171-.171A1.776,1.776,0,0,1,39.459,22.147Z"
                  transform="translate(3.529)" fill="#4285f4"/>
            <path id="Path_107398"
                  d="M2.047,11.6H27.465a2.074,2.074,0,0,1,2.047,2.047h0a2.074,2.074,0,0,1-2.047,2.047H2.047A2.074,2.074,0,0,1,0,13.647H0A2.2,2.2,0,0,1,2.047,11.6Z"
                  transform="translate(0 7.818)" fill="#f8c332"/>
            <path id="Path_107399"
                  d="M7.047,1.7h23.2a2.074,2.074,0,0,1,2.047,2.047h0a2.074,2.074,0,0,1-2.047,2.047H7.047A1.882,1.882,0,0,1,5,3.747H5A1.971,1.971,0,0,1,7.047,1.7Z"
                  transform="translate(3.529 0.829)" fill="#f8c332"/>
            <path id="Path_107400"
                  d="M2.047,1.7h0A2.074,2.074,0,0,1,4.094,3.747h0A2.074,2.074,0,0,1,2.047,5.794h0A1.967,1.967,0,0,1,0,3.747H0A2.074,2.074,0,0,1,2.047,1.7Z"
                  transform="translate(0 0.829)" fill="#f8c332"/>
            <path id="Path_107401"
                  d="M21.955,11.6h0A2.074,2.074,0,0,1,24,13.647h0a2.074,2.074,0,0,1-2.047,2.047h0a2.074,2.074,0,0,1-2.047-2.047h0A1.967,1.967,0,0,1,21.955,11.6Z"
                  transform="translate(14.039 7.818)" fill="#f8c332"/>
        </g>
    </g>
</svg>
