<svg xmlns="http://www.w3.org/2000/svg" xmlns:xlink="http://www.w3.org/1999/xlink" width="160" height="160"
     viewBox="0 0 160 160">
    <defs>
        <filter id="Path_111685" x="0" y="0" width="160" height="160" filterUnits="userSpaceOnUse">
            <feOffset dy="5" input="SourceAlpha"/>
            <feGaussianBlur stdDeviation="10" result="blur"/>
            <feFlood flood-color="#e5e6e8" flood-opacity="0.8"/>
            <feComposite operator="in" in2="blur"/>
            <feComposite in="SourceGraphic"/>
        </filter>
    </defs>
    <g id="Group_64664" data-name="Group 64664" transform="translate(-1022 -3981)">
        <g id="Group_59729" data-name="Group 59729" transform="translate(1052 4006)">
            <g transform="matrix(1, 0, 0, 1, -30, -25)" filter="url(#Path_111685)">
                <path id="Path_111685-2" data-name="Path 111685"
                      d="M50,100c49.615,0,50-22.385,50-50S99.615,0,50,0,0,22.385,0,50,.385,100,50,100Z"
                      transform="translate(30 25)" fill="#fff"/>
            </g>
        </g>
        <g id="Group_59718" data-name="Group 59718" transform="translate(-4862 2988)">
            <rect id="Rectangle_19096" data-name="Rectangle 19096" width="50" height="50"
                  transform="translate(5939 1043)" fill="none"/>
            <g id="Group_59509" data-name="Group 59509" transform="translate(5939 1043)">
                <g id="Group_59508" data-name="Group 59508" transform="translate(0 0)">
                    <path id="two-settings-cogwheels"
                          d="M26.079,31.2l-1.362-3.037A13.235,13.235,0,0,0,28,24.658l3.1,1.18a1.146,1.146,0,0,0,1.48-.67l1.14-3.022a1.155,1.155,0,0,0-.667-1.487l-3.1-1.18a13.314,13.314,0,0,0-.146-4.813L32.831,13.3a1.155,1.155,0,0,0,.575-1.525L32.085,8.827a1.146,1.146,0,0,0-1.518-.578L27.544,9.617a13.224,13.224,0,0,0-3.492-3.3L25.227,3.2a1.155,1.155,0,0,0-.667-1.487L21.553.571a1.146,1.146,0,0,0-1.48.67L18.9,4.356a13.1,13.1,0,0,0-4.792.147L12.745,1.465A1.146,1.146,0,0,0,11.227.888L8.294,2.215A1.155,1.155,0,0,0,7.718,3.74L9.08,6.777A13.235,13.235,0,0,0,5.8,10.284L2.695,9.1a1.146,1.146,0,0,0-1.48.67L.075,12.8a1.155,1.155,0,0,0,.667,1.487l3.1,1.18a13.314,13.314,0,0,0,.146,4.813L.965,21.644A1.155,1.155,0,0,0,.39,23.17l1.321,2.946a1.146,1.146,0,0,0,1.518.578l3.023-1.368a13.217,13.217,0,0,0,3.492,3.3L8.569,31.74a1.155,1.155,0,0,0,.667,1.487l3.008,1.145a1.146,1.146,0,0,0,1.48-.67L14.9,30.587a13.107,13.107,0,0,0,4.792-.147l1.362,3.037a1.146,1.146,0,0,0,1.518.578L25.5,32.728A1.155,1.155,0,0,0,26.079,31.2Zm-1.9-10.961a7.827,7.827,0,0,1-7.28,5.051A7.788,7.788,0,0,1,9.8,20.683,7.822,7.822,0,0,1,16.9,9.65a7.82,7.82,0,0,1,7.277,10.591Z"
                          transform="translate(0 -0.496)" fill="#4786ff"/>
                    <path id="two-settings-cogwheels-2" data-name="two-settings-cogwheels"
                          d="M54.5,40.763a1.146,1.146,0,0,0-.8-.372L51.539,40.3a9.994,9.994,0,0,0-1.064-2.928l1.594-1.47a1.157,1.157,0,0,0,.07-1.629l-1.583-1.733a1.144,1.144,0,0,0-1.622-.07l-1.594,1.47a9.9,9.9,0,0,0-2.813-1.315l.093-2.172a1.151,1.151,0,0,0-1.1-1.2l-2.339-.1a1.154,1.154,0,0,0-1.2,1.1l-.093,2.172a9.9,9.9,0,0,0-2.915,1.068l-1.463-1.6a1.144,1.144,0,0,0-1.622-.07l-1.725,1.59a1.157,1.157,0,0,0-.07,1.629l1.463,1.6a9.984,9.984,0,0,0-1.309,2.826l-2.162-.093a1.153,1.153,0,0,0-1.2,1.1l-.1,2.35a1.151,1.151,0,0,0,1.1,1.2l2.162.093a10,10,0,0,0,1.063,2.929l-1.594,1.47a1.156,1.156,0,0,0-.07,1.629l1.583,1.733a1.144,1.144,0,0,0,1.622.07l1.594-1.47A9.9,9.9,0,0,0,39.067,51.8l-.093,2.172a1.151,1.151,0,0,0,1.1,1.2l2.339.1h.049a1.15,1.15,0,0,0,1.147-1.1L43.7,52a9.9,9.9,0,0,0,2.915-1.068l1.463,1.6a1.144,1.144,0,0,0,1.622.07l1.725-1.59a1.157,1.157,0,0,0,.07-1.629l-1.463-1.6a9.984,9.984,0,0,0,1.309-2.826l2.162.093a1.152,1.152,0,0,0,1.2-1.1l.1-2.35A1.156,1.156,0,0,0,54.5,40.763Zm-12.93,6.818a5.378,5.378,0,0,1,.225-10.749q.116,0,.234.005a5.377,5.377,0,0,1-.458,10.744Z"
                          transform="translate(-4.799 -5.271)" fill="#f8c332"/>
                </g>
            </g>
        </g>
    </g>
</svg>
