<svg xmlns="http://www.w3.org/2000/svg" xmlns:xlink="http://www.w3.org/1999/xlink" viewBox="0 0 46 46.001">
    <defs>
        <style>.a{fill:#e3e8ed;}.b{fill:url(#a);}</style>
        <linearGradient id="a" x1="0.161" y1="1" x2="0.907" y2="0.926" gradientUnits="objectBoundingBox">
            <stop offset="0" stop-color="#6d7882" stop-opacity="0"/>
            <stop offset="1" stop-color="#6d7882"/>
        </linearGradient>
    </defs>
    <g transform="translate(-937.001 -488)">
        <circle class="a" cx="20" cy="20" r="20" transform="translate(940 491)"/>
        <path class="b"
              d="M-3756.826,4788h0v-3a19.866,19.866,0,0,0,14.136-5.865,19.863,19.863,0,0,0,5.865-14.135,20.023,20.023,0,0,0-20-20,20.023,20.023,0,0,0-20,20,19.84,19.84,0,0,0,6.059,14.327l-1.659,2.574c-.239-.221-.461-.436-.663-.637a22.85,22.85,0,0,1-6.736-16.264,22.852,22.852,0,0,1,6.736-16.264,22.849,22.849,0,0,1,16.264-6.736,22.849,22.849,0,0,1,16.264,6.736,22.852,22.852,0,0,1,6.736,16.264,22.85,22.85,0,0,1-6.736,16.264A22.853,22.853,0,0,1-3756.826,4788Z"
              transform="translate(4716.828 -4254)"/>
    </g>
</svg>