<svg width="56" height="56" viewBox="0 0 56 56" fill="none" xmlns="http://www.w3.org/2000/svg">
<path d="M28 55.5C43.1878 55.5 55.5 43.1878 55.5 28C55.5 12.8122 43.1878 0.5 28 0.5C12.8122 0.5 0.5 12.8122 0.5 28C0.5 43.1878 12.8122 55.5 28 55.5Z" fill="#00B4F0"/>
<path d="M37.9557 23.2788H27.4427C26.7464 23.2692 26.055 23.3981 25.4088 23.6579C24.7626 23.9178 24.1746 24.3035 23.6787 24.7925C23.1829 25.2816 22.7891 25.8643 22.5204 26.5068C22.2516 27.1493 22.1133 27.8389 22.1133 28.5353C22.1133 29.2318 22.2516 29.9213 22.5204 30.5638C22.7891 31.2063 23.1829 31.7891 23.6787 32.2781C24.1746 32.7672 24.7626 33.1528 25.4088 33.4127C26.055 33.6726 26.7464 33.8014 27.4427 33.7918H37.9557C39.3373 33.7728 40.6559 33.2106 41.6261 32.2268C42.5963 31.2431 43.1403 29.917 43.1403 28.5353C43.1403 27.1536 42.5963 25.8275 41.6261 24.8438C40.6559 23.8601 39.3373 23.2979 37.9557 23.2788ZM31.3228 27.7948L28.8108 30.3068C28.6741 30.4432 28.4889 30.5198 28.2958 30.5198C28.1027 30.5198 27.9174 30.4432 27.7808 30.3068L26.6617 29.1868C26.5273 29.0499 26.4524 28.8655 26.4532 28.6736C26.454 28.4818 26.5306 28.2979 26.6662 28.1622C26.8018 28.0265 26.9855 27.9498 27.1774 27.9488C27.3692 27.9478 27.5538 28.0225 27.6908 28.1568L28.2908 28.7618L30.2908 26.7618C30.4287 26.6326 30.6114 26.5621 30.8004 26.5652C30.9893 26.5683 31.1697 26.6447 31.3033 26.7783C31.4369 26.912 31.5133 27.0923 31.5164 27.2812C31.5194 27.4702 31.449 27.6529 31.3198 27.7908L31.3228 27.7948ZM37.9557 32.4788C37.1759 32.479 36.4134 32.2479 35.7649 31.8148C35.1163 31.3817 34.6108 30.7659 34.3122 30.0454C34.0136 29.325 33.9354 28.5321 34.0874 27.7672C34.2394 27.0023 34.6149 26.2996 35.1663 25.7481C35.7177 25.1965 36.4203 24.8209 37.1852 24.6687C37.9501 24.5164 38.7429 24.5945 39.4634 24.8929C40.184 25.1913 40.7998 25.6967 41.2332 26.3451C41.6665 26.9935 41.8978 27.7559 41.8978 28.5358C41.8964 29.5809 41.4807 30.5828 40.7417 31.3218C40.0027 32.0607 39.0008 32.4765 37.9557 32.4778V32.4788Z" fill="#F9F7F4"/>
<path d="M36.088 44.107H15.12C14.4283 44.1081 13.7643 43.8351 13.2733 43.3479C12.7823 42.8606 12.5042 42.1988 12.5 41.507V17.839C12.5022 17.1476 12.7784 16.4852 13.268 15.997L17.024 12.264C17.2673 12.0209 17.5562 11.8282 17.8742 11.6971C18.1922 11.5659 18.533 11.499 18.877 11.5H36.087C36.7787 11.4989 37.4427 11.7719 37.9337 12.2592C38.4247 12.7464 38.7027 13.4083 38.707 14.1V21.395H37.071V14.1C37.0697 13.8403 36.9655 13.5916 36.7812 13.4085C36.597 13.2254 36.3478 13.1228 36.088 13.123H18.881C18.7519 13.1227 18.6241 13.1479 18.5048 13.1972C18.3855 13.2464 18.2772 13.3187 18.186 13.41L14.429 17.144C14.2455 17.3273 14.142 17.5757 14.141 17.835V41.498C14.1421 41.7579 14.2461 42.0067 14.4304 42.1898C14.6147 42.373 14.8642 42.4755 15.124 42.475H36.091C36.3508 42.4755 36.6003 42.373 36.7845 42.1898C36.9688 42.0067 37.0729 41.7579 37.074 41.498V36.028H38.711V41.498C38.7101 41.8416 38.6415 42.1816 38.5092 42.4986C38.3769 42.8156 38.1834 43.1035 37.9398 43.3458C37.6963 43.588 37.4073 43.7799 37.0896 43.9106C36.7719 44.0412 36.4316 44.108 36.088 44.107Z" fill="#F9F7F4"/>
</svg>
