<svg width="56" height="56" viewBox="0 0 56 56" fill="none" xmlns="http://www.w3.org/2000/svg">
<path d="M28 55.5C43.1878 55.5 55.5 43.1878 55.5 28C55.5 12.8122 43.1878 0.5 28 0.5C12.8122 0.5 0.5 12.8122 0.5 28C0.5 43.1878 12.8122 55.5 28 55.5Z" fill="#00B4F0"/>
<path d="M38.5993 24.767C38.3853 24.5362 38.1265 24.3513 37.8387 24.2237C37.5509 24.0962 37.2401 24.0285 36.9253 24.025H34.2083V13.852L34.1893 13.742C34.0931 13.169 33.8146 12.6424 33.3952 12.2403C32.9758 11.8382 32.4379 11.5821 31.8613 11.51L31.7543 11.499H24.0333C23.2693 11.499 21.9763 12.028 21.9763 14.009V24.027H18.7613C18.3043 24.0382 17.8607 24.1841 17.4862 24.4463C17.1117 24.7085 16.823 25.0755 16.6562 25.5011C16.4894 25.9268 16.4519 26.3922 16.5485 26.8391C16.6452 27.2859 16.8715 27.6943 17.1993 28.013L26.2243 36.928C26.6038 37.3517 27.1336 37.6107 27.701 37.6501C28.2684 37.6895 28.8288 37.5061 29.2633 37.139C29.3365 37.0772 29.4053 37.0103 29.4693 36.939L38.4693 28.039C38.9158 27.6197 39.1797 27.0417 39.204 26.4296C39.2283 25.8176 39.0111 25.2205 38.5993 24.767ZM36.9223 25.881C37.0147 25.8834 37.1042 25.9134 37.1794 25.967C37.2546 26.0207 37.312 26.0956 37.3442 26.1822C37.3765 26.2688 37.3821 26.363 37.3604 26.4528C37.3387 26.5425 37.2906 26.6238 37.2223 26.686L28.1333 35.667C28.0993 35.7078 28.0568 35.7406 28.0088 35.7632C27.9608 35.7858 27.9084 35.7977 27.8553 35.798C27.797 35.7973 27.7397 35.7832 27.6877 35.7568C27.6357 35.7305 27.5904 35.6926 27.5553 35.646L18.4803 26.68C18.4347 26.6372 18.3982 26.5857 18.3729 26.5285C18.3477 26.4713 18.3342 26.4095 18.3333 26.347C18.3322 26.2865 18.3432 26.2263 18.3655 26.17C18.3878 26.1137 18.421 26.0624 18.4633 26.019C18.5048 25.9755 18.5545 25.9406 18.6097 25.9166C18.6648 25.8926 18.7242 25.8798 18.7843 25.879H23.8143V14.01C23.8143 13.71 23.8723 13.356 24.0333 13.356H31.6413C31.8155 13.3763 31.9791 13.4503 32.1092 13.5679C32.2393 13.6855 32.3296 13.8407 32.3673 14.012V25.885L36.9223 25.881Z" fill="#F9F7F4"/>
<path d="M37.556 44.4492H18.156C17.7244 44.4561 17.3076 44.2916 16.9971 43.9916C16.6867 43.6917 16.5079 43.2808 16.5 42.8492V42.3922C16.5082 41.9607 16.687 41.5499 16.9974 41.25C17.3078 40.9501 17.7244 40.7855 18.156 40.7922H37.556C37.9876 40.7855 38.4042 40.9501 38.7146 41.25C39.025 41.5499 39.2039 41.9607 39.212 42.3922V42.8492C39.2041 43.2808 39.0253 43.6917 38.7149 43.9916C38.4044 44.2916 37.9876 44.4561 37.556 44.4492Z" fill="#F9F7F4"/>
</svg>
