<svg width="119" height="36" viewBox="0 0 119 36" fill="none" xmlns="http://www.w3.org/2000/svg">
<g clip-path="url(#clip0)">
<path d="M114.606 0.548828H5.22766C2.81135 0.548828 0.852539 2.50419 0.852539 4.91625V31.1208C0.852539 33.5328 2.81135 35.4882 5.22766 35.4882H114.606C117.022 35.4882 118.981 33.5328 118.981 31.1208V4.91625C118.981 2.50419 117.022 0.548828 114.606 0.548828Z" fill="black"/>
<path d="M114.606 1.24762C115.58 1.24762 116.515 1.63413 117.204 2.32213C117.894 3.01013 118.281 3.94326 118.281 4.91625V31.1208C118.281 32.0937 117.894 33.0269 117.204 33.7149C116.515 34.4029 115.58 34.7894 114.606 34.7894H5.22766C4.25296 34.7894 3.31819 34.4029 2.62897 33.7149C1.93976 33.0269 1.55256 32.0937 1.55256 31.1208V4.91625C1.55256 3.94326 1.93976 3.01013 2.62897 2.32213C3.31819 1.63413 4.25296 1.24762 5.22766 1.24762H114.606ZM114.606 0.548828H5.22766C4.06837 0.552284 2.95755 1.01353 2.13781 1.83183C1.31806 2.65013 0.856001 3.759 0.852539 4.91625V31.1208C0.856001 32.278 1.31806 33.3869 2.13781 34.2052C2.95755 35.0235 4.06837 35.4847 5.22766 35.4882H114.606C115.765 35.4847 116.876 35.0235 117.696 34.2052C118.515 33.3869 118.977 32.278 118.981 31.1208V4.91625C118.977 3.759 118.515 2.65013 117.696 1.83183C116.876 1.01353 115.765 0.552284 114.606 0.548828V0.548828Z" fill="#A6A6A6"/>
<path d="M42.345 9.49788C42.3605 9.81796 42.3107 10.1378 42.1987 10.4381C42.0866 10.7384 41.9146 11.0129 41.6931 11.2448C41.4449 11.5019 41.1452 11.7039 40.8134 11.8376C40.4817 11.9712 40.1255 12.0335 39.7681 12.0205C39.2266 12.0146 38.6988 11.8497 38.2506 11.5464C37.8024 11.2431 37.4535 10.8148 37.2475 10.3149C37.0414 9.81504 36.9874 9.26566 37.092 8.7353C37.1967 8.20493 37.4555 7.71706 37.836 7.33251C38.0877 7.07736 38.3888 6.87606 38.721 6.7409C39.0532 6.60574 39.4094 6.53956 39.7681 6.54638C40.1386 6.54533 40.5055 6.61994 40.8461 6.76562C41.1622 6.89354 41.4435 7.09439 41.6669 7.35173L41.2057 7.81205C41.0297 7.60567 40.8085 7.44236 40.5592 7.33469C40.31 7.22702 40.0393 7.17787 39.7681 7.19101C39.4948 7.18967 39.224 7.24344 38.972 7.3491C38.72 7.45476 38.492 7.61012 38.3016 7.80589C38.1112 8.00165 37.9624 8.23377 37.864 8.48835C37.7657 8.74292 37.7198 9.01469 37.7293 9.28737C37.723 9.69536 37.8382 10.096 38.0603 10.4386C38.2823 10.7812 38.6012 11.0503 38.9766 11.2118C39.3519 11.3734 39.7669 11.4201 40.1689 11.346C40.5708 11.272 40.9417 11.0805 41.2346 10.7959C41.503 10.5054 41.6582 10.1286 41.6721 9.73372H39.7646V9.10481H42.3092C42.3327 9.23452 42.3447 9.36605 42.345 9.49788V9.49788Z" fill="white" stroke="white" stroke-width="0.332756" stroke-miterlimit="10"/>
<path d="M46.379 7.30709H43.9875V8.96671H46.1436V9.59561H43.9875V11.2552H46.379V11.9042H43.3164V6.66333H46.379V7.30709Z" fill="white" stroke="white" stroke-width="0.332756" stroke-miterlimit="10"/>
<path d="M49.2242 11.9042H48.5487V7.30709H47.083V6.66333H50.6907V7.30709H49.2242V11.9042Z" fill="white" stroke="white" stroke-width="0.332756" stroke-miterlimit="10"/>
<path d="M53.3008 11.9042V6.66333H53.9745V11.9042H53.3008Z" fill="white" stroke="white" stroke-width="0.332756" stroke-miterlimit="10"/>
<path d="M56.9674 11.9042H56.2927V7.30709H54.8262V6.66333H58.4304V7.30709H56.9674V11.9042Z" fill="white" stroke="white" stroke-width="0.332756" stroke-miterlimit="10"/>
<path d="M65.2633 11.2276C64.7522 11.7363 64.06 12.0219 63.3383 12.0219C62.6166 12.0219 61.9243 11.7363 61.4132 11.2276C60.9164 10.702 60.6396 10.0067 60.6396 9.28412C60.6396 8.56149 60.9164 7.86619 61.4132 7.34062C61.6657 7.08771 61.9657 6.88704 62.2961 6.75012C62.6264 6.6132 62.9806 6.54272 63.3383 6.54272C63.6959 6.54272 64.0501 6.6132 64.3805 6.75012C64.7108 6.88704 65.0108 7.08771 65.2633 7.34062C65.7611 7.86501 66.0385 8.55995 66.0385 9.28237C66.0385 10.0048 65.7611 10.6997 65.2633 11.2241V11.2276ZM61.912 10.7909C62.2906 11.1679 62.8035 11.3796 63.3383 11.3796C63.873 11.3796 64.386 11.1679 64.7646 10.7909C65.1401 10.3796 65.3483 9.84322 65.3483 9.28674C65.3483 8.73026 65.1401 8.19384 64.7646 7.7826C64.386 7.40559 63.873 7.19387 63.3383 7.19387C62.8035 7.19387 62.2906 7.40559 61.912 7.7826C61.537 8.19411 61.3291 8.73043 61.3291 9.28674C61.3291 9.84305 61.537 10.3794 61.912 10.7909V10.7909Z" fill="white" stroke="white" stroke-width="0.332756" stroke-miterlimit="10"/>
<path d="M66.9834 11.9042V6.66333H67.805L70.3566 10.7399H70.3855L70.3566 9.73013V6.66333H71.0304V11.9042H70.3304L67.6607 7.6294H67.6318L67.6607 8.64002V11.9042H66.9834Z" fill="white" stroke="white" stroke-width="0.332756" stroke-miterlimit="10"/>
<path d="M60.4735 19.5491C59.7379 19.551 59.0194 19.7705 58.4086 20.1798C57.7979 20.5892 57.3224 21.17 57.0422 21.849C56.762 22.528 56.6897 23.2746 56.8344 23.9946C56.9791 24.7146 57.3342 25.3757 57.8551 25.8942C58.3759 26.4128 59.039 26.7657 59.7607 26.9083C60.4823 27.0508 61.2301 26.9767 61.9095 26.6952C62.589 26.4138 63.1696 25.9376 63.5781 25.3269C63.9866 24.7162 64.2046 23.9984 64.2046 23.264C64.2119 22.7734 64.1202 22.2863 63.9352 21.8317C63.7501 21.3771 63.4754 20.9642 63.1273 20.6177C62.7793 20.2711 62.365 19.998 61.9091 19.8144C61.4532 19.6308 60.965 19.5406 60.4735 19.5491V19.5491ZM60.4735 25.515C60.0206 25.5473 59.5685 25.4427 59.1759 25.2148C58.7834 24.9869 58.4687 24.6464 58.2728 24.2375C58.0768 23.8286 58.0088 23.3702 58.0775 22.9222C58.1462 22.4741 58.3484 22.0571 58.6579 21.7254C58.9674 21.3937 59.3697 21.1627 59.8126 21.0624C60.2554 20.9622 60.7182 20.9974 61.1407 21.1634C61.5632 21.3294 61.9259 21.6186 62.1815 21.9933C62.437 22.3679 62.5737 22.8107 62.5736 23.264C62.5873 23.5503 62.5435 23.8365 62.4448 24.1056C62.3461 24.3748 62.1944 24.6215 61.9987 24.8312C61.803 25.041 61.5673 25.2096 61.3054 25.327C61.0434 25.4444 60.7606 25.5083 60.4735 25.515V25.515ZM52.3244 19.5491C51.589 19.5519 50.8709 19.7721 50.2607 20.182C49.6506 20.5918 49.1758 21.173 48.8962 21.852C48.6167 22.5311 48.545 23.2776 48.6902 23.9973C48.8354 24.717 49.1909 25.3776 49.7119 25.8958C50.2329 26.4139 50.896 26.7663 51.6176 26.9086C52.3391 27.0508 53.0866 26.9764 53.7658 26.6948C54.445 26.4132 55.0254 25.9371 55.4337 25.3265C55.842 24.7159 56.0599 23.9982 56.0599 23.264C56.0672 22.773 55.9754 22.2855 55.79 21.8306C55.6047 21.3757 55.3296 20.9627 54.9811 20.6161C54.6326 20.2695 54.2178 19.9964 53.7614 19.8131C53.305 19.6298 52.8163 19.54 52.3244 19.5491V19.5491ZM52.3244 25.515C51.8715 25.5473 51.4194 25.4427 51.0268 25.2148C50.6343 24.9869 50.3196 24.6464 50.1237 24.2375C49.9277 23.8286 49.8597 23.3702 49.9284 22.9222C49.9971 22.4741 50.1994 22.0571 50.5088 21.7254C50.8183 21.3937 51.2206 21.1627 51.6635 21.0624C52.1063 20.9622 52.5691 20.9974 52.9916 21.1634C53.4141 21.3294 53.7768 21.6186 54.0324 21.9933C54.2879 22.3679 54.4246 22.8107 54.4245 23.264C54.4382 23.5503 54.3945 23.8365 54.2957 24.1056C54.197 24.3748 54.0453 24.6215 53.8496 24.8312C53.6539 25.041 53.4182 25.2096 53.1563 25.327C52.8943 25.4444 52.6115 25.5083 52.3244 25.515V25.515ZM42.6301 20.689V22.2613H46.4075C46.3532 23.0002 46.0504 23.6992 45.5483 24.2449C45.1696 24.6302 44.7143 24.9319 44.2117 25.1307C43.709 25.3294 43.1702 25.4208 42.6301 25.3988C41.5161 25.3988 40.4478 24.9571 39.6601 24.1708C38.8724 23.3845 38.4299 22.3181 38.4299 21.2061C38.4299 20.0941 38.8724 19.0277 39.6601 18.2414C40.4478 17.4551 41.5161 17.0134 42.6301 17.0134C43.6917 16.9997 44.7157 17.4054 45.4791 18.1419L46.593 17.03C46.0719 16.5152 45.4531 16.1094 44.7729 15.8363C44.0928 15.5632 43.3649 15.4282 42.6318 15.4394C41.8668 15.43 41.1075 15.5723 40.398 15.858C39.6885 16.1437 39.0428 16.5673 38.4985 17.104C37.9542 17.6407 37.5221 18.2799 37.2271 18.9846C36.9322 19.6893 36.7803 20.4454 36.7803 21.2092C36.7803 21.9729 36.9322 22.729 37.2271 23.4337C37.5221 24.1384 37.9542 24.7776 38.4985 25.3143C39.0428 25.8511 39.6885 26.2746 40.398 26.5603C41.1075 26.846 41.8668 26.9883 42.6318 26.9789C43.3803 27.0092 44.1267 26.8801 44.8215 26.6003C45.5162 26.3205 46.1434 25.8963 46.6613 25.356C47.5823 24.3526 48.0732 23.0292 48.029 21.669C48.0318 21.3388 48.0025 21.0092 47.9414 20.6846L42.6301 20.689ZM82.2756 21.9119C82.0519 21.2391 81.6261 20.6513 81.0561 20.2284C80.4861 19.8056 79.7996 19.5681 79.0897 19.5482C78.6114 19.5511 78.1387 19.6508 77.7002 19.8413C77.2617 20.0318 76.8664 20.3091 76.5383 20.6564C76.2102 21.0038 75.9561 21.414 75.7914 21.8622C75.6267 22.3104 75.5547 22.7873 75.58 23.264C75.5692 23.7525 75.6572 24.238 75.8386 24.6918C76.0201 25.1455 76.2913 25.558 76.6361 25.9048C76.9808 26.2516 77.392 26.5254 77.8452 26.7099C78.2983 26.8945 78.7841 26.986 79.2734 26.9789C79.8865 26.9823 80.4908 26.8337 81.0321 26.5463C81.5734 26.2589 82.0347 25.8418 82.3745 25.3324L81.1057 24.4878C80.9156 24.8028 80.6468 25.0631 80.3256 25.2431C80.0044 25.4232 79.6418 25.5169 79.2734 25.515C78.8943 25.5295 78.5195 25.43 78.1976 25.2294C77.8758 25.0288 77.6217 24.7364 77.4683 24.3899L82.4445 22.3346L82.2756 21.9119ZM77.2005 23.1505C77.1837 22.8805 77.221 22.6099 77.31 22.3545C77.3991 22.099 77.5382 21.8639 77.7193 21.6626C77.9003 21.4614 78.1197 21.2982 78.3646 21.1825C78.6095 21.0667 78.875 21.0008 79.1457 20.9886C79.4279 20.9696 79.7094 21.0341 79.9551 21.1739C80.2009 21.3137 80.3999 21.5227 80.5273 21.7747L77.2005 23.1505ZM73.1553 26.7536H74.7924V15.835H73.1553V26.7536ZM70.4759 20.3772H70.4173C70.1687 20.1077 69.8653 19.8943 69.5275 19.7512C69.1896 19.6081 68.825 19.5386 68.4581 19.5473C67.4991 19.5889 66.5931 19.9984 65.9291 20.6906C65.2652 21.3827 64.8946 22.304 64.8946 23.2623C64.8946 24.2206 65.2652 25.1418 65.9291 25.834C66.5931 26.5261 67.4991 26.9357 68.4581 26.9772C68.8266 26.9869 69.1927 26.9163 69.531 26.7705C69.8693 26.6246 70.1718 26.4069 70.4173 26.1325H70.4733V26.6662C70.4733 28.0874 69.7129 28.8499 68.4861 28.8499C68.0773 28.8401 67.6806 28.709 67.3467 28.4733C67.0127 28.2377 66.7566 27.9081 66.611 27.5266L65.1873 28.118C65.4557 28.7702 65.913 29.3275 66.5008 29.7186C67.0885 30.1097 67.7798 30.3167 68.4861 30.313C70.4033 30.313 72.0247 29.1871 72.0247 26.4435V19.7736H70.4759V20.3772ZM68.6016 25.5132C68.0369 25.4648 67.5109 25.2066 67.1277 24.7898C66.7444 24.3729 66.5318 23.8277 66.5318 23.2618C66.5318 22.696 66.7444 22.1508 67.1277 21.7339C67.5109 21.3171 68.0369 21.0589 68.6016 21.0104C68.8832 21.0241 69.159 21.0942 69.4128 21.2166C69.6666 21.339 69.8931 21.5111 70.0789 21.7226C70.2646 21.9342 70.4058 22.181 70.494 22.4482C70.5822 22.7154 70.6157 22.9976 70.5923 23.278C70.6143 23.5565 70.5798 23.8367 70.4907 24.1015C70.4017 24.3664 70.2599 24.6106 70.074 24.8195C69.8882 25.0284 69.6619 25.1977 69.4089 25.3172C69.1559 25.4367 68.8813 25.504 68.6016 25.515V25.5132ZM89.9356 15.835H86.0234V26.7536H87.6553V22.6168H89.9356C90.397 22.6413 90.8585 22.5718 91.292 22.4124C91.7256 22.2531 92.1221 22.0072 92.4573 21.6899C92.7926 21.3726 93.0596 20.9904 93.242 20.5667C93.4245 20.143 93.5186 19.6867 93.5186 19.2255C93.5186 18.7643 93.4245 18.3079 93.242 17.8842C93.0596 17.4605 92.7926 17.0784 92.4573 16.761C92.1221 16.4437 91.7256 16.1979 91.292 16.0385C90.8585 15.8792 90.397 15.8096 89.9356 15.8342V15.835ZM89.9776 21.0978H87.6553V17.354H89.9776C90.2272 17.3486 90.4754 17.3931 90.7075 17.4847C90.9397 17.5763 91.1512 17.7133 91.3297 17.8876C91.5081 18.0619 91.6499 18.2701 91.7467 18.4998C91.8434 18.7295 91.8933 18.9762 91.8933 19.2255C91.8933 19.4747 91.8434 19.7214 91.7467 19.9511C91.6499 20.1809 91.5081 20.389 91.3297 20.5633C91.1512 20.7376 90.9397 20.8746 90.7075 20.9662C90.4754 21.0579 90.2272 21.1023 89.9776 21.0969V21.0978ZM100.068 19.5299C99.4725 19.4951 98.8794 19.6347 98.3618 19.9315C97.8442 20.2284 97.4247 20.6695 97.1546 21.2009L98.6045 21.8053C98.7482 21.5414 98.9659 21.3251 99.2308 21.1829C99.4958 21.0406 99.7966 20.9785 100.096 21.0043C100.51 20.9648 100.923 21.0904 101.245 21.3537C101.567 21.617 101.771 21.9967 101.813 22.4098V22.5216C101.289 22.2436 100.704 22.099 100.11 22.1005C98.5485 22.1005 96.9603 22.9574 96.9603 24.5585C96.9755 24.8957 97.0584 25.2265 97.2039 25.5312C97.3495 25.8359 97.5548 26.1083 97.8078 26.3324C98.0607 26.5564 98.3561 26.7276 98.6764 26.8356C98.9968 26.9437 99.3356 26.9865 99.6729 26.9615C100.084 26.9856 100.494 26.8992 100.861 26.7113C101.227 26.5235 101.536 26.2409 101.756 25.8932H101.812V26.7361H103.387V22.5486C103.389 20.6104 101.94 19.529 100.068 19.529V19.5299ZM99.8715 25.5141C99.336 25.5141 98.5905 25.2477 98.5905 24.5873C98.5905 23.7444 99.5189 23.4212 100.321 23.4212C100.841 23.4083 101.354 23.5344 101.809 23.7864C101.749 24.259 101.52 24.694 101.164 25.0114C100.808 25.3287 100.349 25.5069 99.8715 25.5132V25.5141ZM109.131 19.7657L107.259 24.5H107.203L105.261 19.7657H103.502L106.415 26.3824L104.752 30.0632H106.455L110.947 19.7657H109.131ZM94.4245 26.7536H96.0555V15.835H94.4227L94.4245 26.7536Z" fill="white"/>
<path d="M9.9836 7.1331C9.69726 7.47589 9.55268 7.91481 9.57934 8.36035V27.6783C9.5525 28.1239 9.6971 28.5628 9.9836 28.9056L10.0484 28.9684L20.8908 18.1469V17.8918L10.0484 7.06934L9.9836 7.1331Z" fill="url(#paint0_linear)"/>
<path d="M24.5037 21.7566L20.8916 18.1474V17.8923L24.5063 14.2839L24.5877 14.3311L28.8692 16.7594C30.0942 17.4529 30.0942 18.5876 28.8692 19.2811L24.5877 21.7094L24.5037 21.7566Z" fill="url(#paint1_linear)"/>
<path d="M24.5859 21.7088L20.8916 18.0183L9.98438 28.9054C10.2337 29.1249 10.5521 29.2504 10.8843 29.2601C11.2166 29.2698 11.5418 29.1632 11.8036 28.9587L24.5859 21.7088" fill="url(#paint2_linear)"/>
<path d="M24.5859 14.33L11.8036 7.08011C11.5418 6.87559 11.2166 6.76896 10.8843 6.77869C10.5521 6.78842 10.2337 6.91391 9.98438 7.1334L20.8916 18.0187L24.5859 14.33Z" fill="url(#paint3_linear)"/>
<path opacity="0.2" d="M24.504 21.6282L11.803 28.8318C11.5517 29.0224 11.2452 29.1264 10.9296 29.1281C10.614 29.1299 10.3063 29.0292 10.0529 28.8414V28.8414L9.9873 28.906L10.0521 28.9698C10.3054 29.1576 10.6131 29.2583 10.9287 29.2565C11.2443 29.2548 11.5508 29.1508 11.8021 28.9602L24.5845 21.7103L24.504 21.6282Z" fill="black"/>
<path opacity="0.12" d="M9.9836 28.7783C9.6971 28.4356 9.5525 27.9966 9.57934 27.551V27.6794C9.55318 28.1236 9.69777 28.5609 9.9836 28.9023L10.0492 28.8377L9.9836 28.7783Z" fill="black"/>
<path opacity="0.12" d="M28.8678 19.1538L24.5049 21.6284L24.5863 21.7097L28.8678 19.2814C29.1199 19.172 29.3379 18.9971 29.4992 18.775C29.6605 18.5528 29.7591 18.2915 29.7848 18.0183V18.0183C29.7311 18.2658 29.6202 18.4974 29.461 18.6945C29.3018 18.8917 29.0986 19.0489 28.8678 19.1538V19.1538Z" fill="black"/>
<path opacity="0.25" d="M11.8036 7.21016L28.8666 16.8884C29.0973 16.9929 29.3005 17.1497 29.4598 17.3464C29.6192 17.5431 29.7303 17.7742 29.7845 18.0213V18.0213C29.7587 17.7483 29.6601 17.4873 29.4987 17.2654C29.3374 17.0436 29.1194 16.869 28.8675 16.76L11.8045 7.08176C10.5795 6.38822 9.58106 6.96472 9.58106 8.36229V8.49069C9.58018 7.09312 10.5803 6.51662 11.8036 7.21016Z" fill="white"/>
</g>
<defs>
<linearGradient id="paint0_linear" x1="19.929" y1="151.91" x2="2.57215" y2="147.288" gradientUnits="userSpaceOnUse">
<stop stop-color="#00A0FF"/>
<stop offset="0.007" stop-color="#00A1FF"/>
<stop offset="0.26" stop-color="#00BEFF"/>
<stop offset="0.512" stop-color="#00D2FF"/>
<stop offset="0.76" stop-color="#00DFFF"/>
<stop offset="1" stop-color="#00E3FF"/>
</linearGradient>
<linearGradient id="paint1_linear" x1="30.4641" y1="142.051" x2="9.28184" y2="142.051" gradientUnits="userSpaceOnUse">
<stop stop-color="#FFE000"/>
<stop offset="0.409" stop-color="#FFBD00"/>
<stop offset="0.775" stop-color="#FFA500"/>
<stop offset="1" stop-color="#FF9C00"/>
</linearGradient>
<linearGradient id="paint2_linear" x1="22.5709" y1="140.145" x2="8.6649" y2="116.691" gradientUnits="userSpaceOnUse">
<stop stop-color="#FF3A44"/>
<stop offset="1" stop-color="#C31162"/>
</linearGradient>
<linearGradient id="paint3_linear" x1="7.23929" y1="159.46" x2="13.4527" y2="148.99" gradientUnits="userSpaceOnUse">
<stop stop-color="#32A071"/>
<stop offset="0.068" stop-color="#2DA771"/>
<stop offset="0.476" stop-color="#15CF74"/>
<stop offset="0.801" stop-color="#06E775"/>
<stop offset="1" stop-color="#00F076"/>
</linearGradient>
<clipPath id="clip0">
<rect width="118.128" height="34.9393" fill="white" transform="translate(0.852539 0.548828)"/>
</clipPath>
</defs>
</svg>
