<svg width="21" height="23" viewBox="0 0 21 23" fill="none" xmlns="http://www.w3.org/2000/svg">
<g clip-path="url(#clip0)">
<path d="M15.5879 14.5871C18.203 13.1337 20.1855 12.0262 20.3564 11.9401C20.9031 11.6459 21.4676 10.8671 20.3564 10.2622C19.9977 10.072 18.0661 8.999 15.5879 7.61523L12.1523 11.127L15.5879 14.5871V14.5871Z" fill="#FFD900"/>
<path d="M12.15 11.127L1.21094 22.286C1.4677 22.3204 1.75758 22.2515 2.09934 22.0614C2.81687 21.6638 10.4233 17.4594 15.5855 14.5879L12.15 11.127Z" fill="#F43249"/>
<path d="M12.1514 11.1265L15.5869 7.63201C15.5869 7.63201 2.87013 0.607511 2.10072 0.192847C1.81084 0.0190712 1.486 -0.0325477 1.19531 0.0190712L12.1514 11.1265Z" fill="#00EE76"/>
<path d="M12.1515 11.127L1.19541 0.0195312C0.750762 0.123585 0.375 0.521206 0.375 1.33439V20.9712C0.375 21.7155 0.665764 22.2516 1.21241 22.3033L12.1515 11.127Z" fill="#00D3FF"/>
</g>
<defs>
<clipPath id="clip0">
<rect width="20.625" height="22.3438" fill="white" transform="translate(0.375)"/>
</clipPath>
</defs>
</svg>
