<svg width="21" height="21" viewBox="0 0 21 21" fill="none" xmlns="http://www.w3.org/2000/svg">
<g clip-path="url(#clip0)">
<path d="M4.51687 0H16.1081C18.6028 0 20.625 2.02222 20.625 4.51687V16.1081C20.625 18.6028 18.6028 20.625 16.1081 20.625H4.51687C2.02222 20.625 0 18.6028 0 16.1081V4.51687C0 2.02222 2.02222 0 4.51687 0Z" fill="url(#paint0_linear)"/>
<path d="M6.60879 14.9699L6.61072 14.9705L5.90553 16.1919C5.64812 16.6378 5.07803 16.7905 4.63217 16.5331C4.1864 16.2757 4.03356 15.7056 4.29097 15.2598L4.81047 14.36L4.86034 14.2736C4.94936 14.1457 5.16907 13.9248 5.60856 13.9664C5.60856 13.9664 6.64279 14.0786 6.71763 14.6161C6.71763 14.6161 6.72779 14.793 6.60879 14.9699ZM16.6105 11.8504H14.4116C14.2618 11.8403 14.1965 11.7868 14.1707 11.7557L14.1691 11.7529L11.8152 7.67574L11.8121 7.67775L11.6709 7.47537C11.4396 7.12152 11.0722 8.02644 11.0722 8.02644C10.6335 9.03481 11.1344 10.1812 11.309 10.5277L14.5786 16.1907C14.8359 16.6365 15.406 16.7893 15.8519 16.5318C16.2977 16.2744 16.4505 15.7043 16.193 15.2585L15.3755 13.8425C15.3597 13.8081 15.3321 13.715 15.4998 13.7146H16.6105C17.1254 13.7146 17.5427 13.2973 17.5427 12.7824C17.5427 12.2676 17.1254 11.8503 16.6105 11.8503V11.8504ZM12.3394 13.1175C12.3394 13.1175 12.4568 13.7146 12.0026 13.7146H3.87356C3.35874 13.7146 2.94141 13.2973 2.94141 12.7824C2.94141 12.2676 3.35874 11.8503 3.87356 11.8503H5.96345C6.30086 11.8308 6.38079 11.636 6.38079 11.636L6.38272 11.6369L9.1107 6.91189L9.10989 6.91173C9.1596 6.82045 9.11819 6.73416 9.11102 6.72054L8.21005 5.16005C7.95264 4.71428 8.10539 4.14411 8.55125 3.88678C8.9971 3.62937 9.56719 3.78205 9.8246 4.2279L10.2424 4.95163L10.6595 4.22919C10.9169 3.78342 11.487 3.63058 11.9329 3.88807C12.3787 4.14548 12.5315 4.71549 12.2741 5.16134L8.47793 11.7364C8.46133 11.7764 8.45626 11.8393 8.57977 11.8503H10.8488L10.8493 11.8724C10.8493 11.8724 12.1608 11.8928 12.3394 13.1175Z" fill="white"/>
</g>
<defs>
<linearGradient id="paint0_linear" x1="10.3125" y1="0" x2="10.3125" y2="20.625" gradientUnits="userSpaceOnUse">
<stop stop-color="#17C9FB"/>
<stop offset="1" stop-color="#1A74E8"/>
</linearGradient>
<clipPath id="clip0">
<rect width="20.625" height="20.625" fill="white"/>
</clipPath>
</defs>
</svg>
