<svg width="56" height="56" viewBox="0 0 56 56" fill="none" xmlns="http://www.w3.org/2000/svg">
<path d="M28 55.5C43.1878 55.5 55.5 43.1878 55.5 28C55.5 12.8122 43.1878 0.5 28 0.5C12.8122 0.5 0.5 12.8122 0.5 28C0.5 43.1878 12.8122 55.5 28 55.5Z" fill="#00B4F0"/>
<path d="M27.6597 12.0005C25.8871 12.1277 24.1979 12.8028 22.826 13.9324C21.4541 15.062 20.4674 16.5902 20.0024 18.3054C19.5374 20.0206 19.6172 21.8379 20.2307 23.5058C20.8442 25.1736 21.9611 26.6095 23.4267 27.6145C20.7162 28.5563 18.3365 30.263 16.5752 32.5283C14.8139 34.7936 13.7464 37.5205 13.5016 40.3795C13.4856 40.6805 13.5875 40.9758 13.7857 41.203C13.9838 41.4301 14.2626 41.5711 14.563 41.5961C14.8633 41.621 15.1616 41.528 15.3946 41.3368C15.6275 41.1455 15.7767 40.871 15.8107 40.5715C16.0803 37.4499 17.5099 34.5426 19.8176 32.4232C22.1253 30.3038 25.1434 29.1262 28.2767 29.1225C29.428 29.122 30.5674 28.8894 31.627 28.4388C32.6865 27.9883 33.6444 27.3289 34.4435 26.5C35.2426 25.6711 35.8666 24.6897 36.2781 23.6144C36.6897 22.5391 36.8803 21.3919 36.8388 20.2413C36.7973 19.0907 36.5244 17.9602 36.0364 16.9174C35.5484 15.8746 34.8553 14.9407 33.9986 14.1716C33.1418 13.4025 32.1388 12.8139 31.0495 12.4409C29.9603 12.0678 28.8071 11.9181 27.6586 12.0005H27.6597ZM28.2776 26.8055C27.0402 26.8057 25.8306 26.439 24.8016 25.7516C23.7727 25.0643 22.9707 24.0872 22.4971 22.944C22.0234 21.8009 21.8994 20.5429 22.1408 19.3293C22.3822 18.1156 22.978 17.0008 23.853 16.1259C24.728 15.2509 25.8428 14.655 27.0564 14.4137C28.2701 14.1723 29.528 14.2963 30.6712 14.7699C31.8144 15.2436 32.7914 16.0455 33.4787 17.0745C34.1661 18.1034 34.5328 19.3131 34.5326 20.5505C34.5308 22.2089 33.8712 23.7988 32.6986 24.9714C31.5259 26.144 29.936 26.8037 28.2776 26.8055Z" fill="#F9F7F4"/>
<path d="M41.9953 35.2542L37.9273 39.3221C37.8198 39.4297 37.6921 39.5151 37.5515 39.5733C37.411 39.6315 37.2604 39.6615 37.1083 39.6615C36.9562 39.6615 36.8056 39.6315 36.665 39.5733C36.5245 39.5151 36.3968 39.4297 36.2893 39.3221C36.1817 39.2146 36.0964 39.0869 36.0381 38.9464C35.9799 38.8059 35.95 38.6553 35.95 38.5031C35.95 38.351 35.9799 38.2004 36.0381 38.0599C36.0964 37.9193 36.1817 37.7917 36.2893 37.6841L38.1843 35.7892H36.1753C34.8404 35.791 33.5607 36.3218 32.6164 37.2654C31.6721 38.2089 31.1402 39.4883 31.1373 40.8232V41.8712C31.1372 42.0233 31.1071 42.1739 31.0487 42.3145C30.9903 42.455 30.9048 42.5826 30.7971 42.69C30.6893 42.7975 30.5615 42.8827 30.4208 42.9407C30.2802 42.9987 30.1295 43.0284 29.9773 43.0281C29.8252 43.028 29.6747 42.9979 29.5342 42.9396C29.3938 42.8813 29.2662 42.7959 29.1588 42.6883C29.0513 42.5806 28.9661 42.4529 28.9081 42.3124C28.85 42.1718 28.8202 42.0212 28.8203 41.8691V40.8211C28.8219 38.8715 29.5975 37.0023 30.9767 35.6243C32.3558 34.2462 34.2257 33.4721 36.1753 33.4721H38.0693L36.2903 31.6931C36.1827 31.5856 36.0974 31.4579 36.0392 31.3174C35.9809 31.1769 35.951 31.0263 35.951 30.8741C35.951 30.722 35.9809 30.5714 36.0392 30.4309C36.0974 30.2904 36.1827 30.1627 36.2903 30.0551C36.3979 29.9476 36.5255 29.8622 36.666 29.804C36.8066 29.7458 36.9572 29.7158 37.1093 29.7158C37.2614 29.7158 37.412 29.7458 37.5526 29.804C37.6931 29.8622 37.8208 29.9476 37.9283 30.0551L41.9963 34.1231C42.1461 34.2733 42.2301 34.4768 42.2299 34.6888C42.2297 34.9009 42.1453 35.1043 41.9953 35.2542Z" fill="#F9F7F4"/>
</svg>
