<svg width="56" height="56" viewBox="0 0 56 56" fill="none" xmlns="http://www.w3.org/2000/svg">
<path d="M28 55.5C43.1878 55.5 55.5 43.1878 55.5 28C55.5 12.8122 43.1878 0.5 28 0.5C12.8122 0.5 0.5 12.8122 0.5 28C0.5 43.1878 12.8122 55.5 28 55.5Z" fill="#00B4F0"/>
<path d="M33.337 20.3008V14.5168C33.3362 13.9178 33.0978 13.3436 32.6741 12.9203C32.2503 12.4969 31.676 12.2591 31.077 12.2588H16.76C16.161 12.2591 15.5867 12.4969 15.1629 12.9203C14.7392 13.3436 14.5008 13.9178 14.5 14.5168V41.7678C14.5008 42.3668 14.7392 42.9411 15.1629 43.3646C15.5866 43.7881 16.1609 44.0262 16.76 44.0268H31.077C31.6761 44.0262 32.2504 43.7881 32.6741 43.3646C33.0978 42.9411 33.3362 42.3668 33.337 41.7678V40.4528C32.7871 40.3858 32.2436 40.2737 31.712 40.1178V41.7718C31.7117 41.94 31.6447 42.1013 31.5257 42.2202C31.4066 42.339 31.2452 42.4058 31.077 42.4058H16.76C16.5918 42.4058 16.4304 42.339 16.3113 42.2202C16.1923 42.1013 16.1253 41.94 16.125 41.7718V14.5168C16.1253 14.3485 16.1923 14.1873 16.3113 14.0684C16.4304 13.9496 16.5918 13.8828 16.76 13.8828H18.885L19.227 15.0158C19.2708 15.1582 19.359 15.2829 19.4786 15.3717C19.5982 15.4606 19.743 15.5089 19.892 15.5098H27.946C28.095 15.5089 28.2398 15.4606 28.3594 15.3717C28.479 15.2829 28.5672 15.1582 28.611 15.0158L28.953 13.8828H31.078C31.2462 13.8828 31.4076 13.9496 31.5267 14.0684C31.6457 14.1873 31.7127 14.3485 31.713 14.5168V20.6358C32.2443 20.4799 32.7874 20.3678 33.337 20.3008ZM21.997 14.6268C21.9304 14.6268 21.8653 14.607 21.8099 14.57C21.7545 14.5331 21.7113 14.4805 21.6857 14.419C21.6602 14.3575 21.6535 14.2897 21.6664 14.2244C21.6793 14.1591 21.7113 14.099 21.7584 14.0518C21.8054 14.0047 21.8653 13.9725 21.9306 13.9594C21.996 13.9463 22.0637 13.9528 22.1253 13.9781C22.1869 14.0035 22.2396 14.0465 22.2767 14.1018C22.3139 14.1571 22.3338 14.2222 22.334 14.2888C22.3343 14.3332 22.3257 14.3772 22.3089 14.4184C22.2921 14.4595 22.2673 14.4968 22.236 14.5284C22.2047 14.5599 22.1674 14.5849 22.1264 14.6019C22.0854 14.619 22.0414 14.6278 21.997 14.6278V14.6268ZM26.054 14.6268H23.47C23.3841 14.6268 23.3017 14.5927 23.2409 14.5319C23.1801 14.4711 23.146 14.3887 23.146 14.3028C23.146 14.2168 23.1801 14.1344 23.2409 14.0737C23.3017 14.0129 23.3841 13.9788 23.47 13.9788H26.054C26.1399 13.9788 26.2223 14.0129 26.2831 14.0737C26.3439 14.1344 26.378 14.2168 26.378 14.3028C26.378 14.3887 26.3439 14.4711 26.2831 14.5319C26.2223 14.5927 26.1399 14.6268 26.054 14.6268Z" fill="#F9F7F4"/>
<path d="M29.2859 37.6336C28.868 37.3413 28.4765 37.0131 28.1158 36.6526C27.1573 35.6898 26.4388 34.5149 26.0184 33.2229C25.5981 31.9309 25.4878 30.5581 25.6964 29.2156C25.905 27.873 26.4266 26.5985 27.2192 25.4949C28.0117 24.3914 29.0528 23.4899 30.2583 22.8633C31.4639 22.2367 32.8 21.9027 34.1585 21.8882C35.5171 21.8737 36.86 22.1792 38.0786 22.7799C39.2972 23.3807 40.3573 24.2598 41.1732 25.3462C41.989 26.4326 42.5377 27.6958 42.7749 29.0336C42.8502 29.4601 42.8937 29.8917 42.9048 30.3246L43.9588 29.2706C44.1317 29.1303 44.3504 29.059 44.5727 29.0705C44.795 29.082 45.0052 29.1755 45.1626 29.3329C45.32 29.4903 45.4135 29.7005 45.425 29.9228C45.4365 30.1451 45.3652 30.3638 45.2248 30.5366L42.2699 33.4916C42.1014 33.6583 41.8739 33.7518 41.6369 33.7518C41.3998 33.7518 41.1724 33.6583 41.0039 33.4916L38.0489 30.5366C37.9085 30.3638 37.8372 30.1451 37.8487 29.9228C37.8602 29.7005 37.9537 29.4903 38.1111 29.3329C38.2685 29.1755 38.4787 29.082 38.701 29.0705C38.9233 29.059 39.142 29.1303 39.3149 29.2706L41.0968 31.0526C41.2178 29.4471 40.7705 27.8502 39.8332 26.5411C38.8958 25.232 37.5282 24.2941 35.9693 23.8913C34.4104 23.4885 32.7596 23.6466 31.3054 24.3378C29.8513 25.029 28.6864 26.2094 28.0145 27.6726C27.3426 29.1357 27.2064 30.7886 27.6298 32.342C28.0532 33.8954 29.0091 35.2505 30.3305 36.1704C31.6519 37.0903 33.2546 37.5164 34.8584 37.3742C36.4621 37.2321 37.9649 36.5306 39.1039 35.3926C39.187 35.3095 39.2856 35.2435 39.3943 35.1985C39.5029 35.1535 39.6193 35.1303 39.7368 35.1303C39.8544 35.1303 39.9708 35.1535 40.0794 35.1985C40.1881 35.2435 40.2867 35.3095 40.3699 35.3926C40.5363 35.5611 40.6296 35.7883 40.6296 36.0251C40.6296 36.2619 40.5363 36.4892 40.3699 36.6576C38.9315 38.0968 37.0323 38.9834 35.0054 39.1619C32.9785 39.3403 30.9536 38.7993 29.2859 37.6336Z" fill="#F9F7F4"/>
</svg>
