<svg width="56" height="56" viewBox="0 0 56 56" fill="none" xmlns="http://www.w3.org/2000/svg">
<path d="M28 55.5C43.1878 55.5 55.5 43.1878 55.5 28C55.5 12.8122 43.1878 0.5 28 0.5C12.8122 0.5 0.5 12.8122 0.5 28C0.5 43.1878 12.8122 55.5 28 55.5Z" fill="#00B4F0"/>
<g style="mix-blend-mode:screen">
<g style="mix-blend-mode:screen">
<path d="M37.1537 32.7273C36.8726 32.7273 36.5958 32.6585 36.3474 32.5269C36.099 32.3953 35.8866 32.2049 35.7287 31.9723C33.2507 28.3223 29.0938 21.7093 29.0938 18.4243C29.0938 16.2866 29.9429 14.2365 31.4545 12.725C32.966 11.2134 35.0161 10.3643 37.1537 10.3643C39.2914 10.3643 41.3415 11.2134 42.853 12.725C44.3646 14.2365 45.2137 16.2866 45.2137 18.4243C45.2137 21.7103 41.0568 28.3243 38.5788 31.9723C38.421 32.2047 38.2087 32.395 37.9605 32.5266C37.7123 32.6582 37.4357 32.7271 37.1547 32.7273H37.1537ZM37.1537 12.0503C35.4639 12.0524 33.8439 12.7246 32.649 13.9195C31.4541 15.1144 30.7819 16.7344 30.7797 18.4243C30.7797 20.4633 33.1517 25.1733 37.1237 31.0243H37.1837C41.1557 25.1753 43.5277 20.4643 43.5277 18.4243C43.5259 16.7343 42.8538 15.1141 41.6588 13.9192C40.4638 12.7242 38.8437 12.0521 37.1537 12.0503Z" fill="#F9F7F4"/>
</g>
</g>
<g style="mix-blend-mode:screen">
<g style="mix-blend-mode:screen">
<path d="M37.1542 22.0964C36.3806 22.0966 35.6244 21.8674 34.9811 21.4378C34.3378 21.0081 33.8363 20.3974 33.5402 19.6828C33.244 18.9681 33.1664 18.1818 33.3172 17.423C33.468 16.6643 33.8404 15.9674 34.3873 15.4203C34.9343 14.8732 35.6311 14.5006 36.3898 14.3496C37.1485 14.1987 37.9349 14.276 38.6496 14.572C39.3643 14.868 39.9752 15.3693 40.405 16.0125C40.8348 16.6557 41.0642 17.4119 41.0642 18.1854C41.0629 19.2221 40.6505 20.216 39.9176 20.9491C39.1846 21.6822 38.1909 22.0948 37.1542 22.0964V22.0964ZM37.1542 15.6224C36.6473 15.6224 36.1518 15.7727 35.7303 16.0544C35.3088 16.336 34.9803 16.7363 34.7863 17.2046C34.5923 17.6729 34.5416 18.1883 34.6404 18.6854C34.7393 19.1826 34.9834 19.6393 35.3419 19.9977C35.7003 20.3562 36.157 20.6003 36.6542 20.6992C37.1514 20.7981 37.6667 20.7473 38.135 20.5533C38.6033 20.3593 39.0036 20.0308 39.2853 19.6093C39.5669 19.1879 39.7172 18.6923 39.7172 18.1854C39.7164 17.5059 39.4461 16.8544 38.9656 16.374C38.4851 15.8935 37.8337 15.6232 37.1542 15.6224V15.6224Z" fill="#F9F7F4"/>
</g>
</g>
<g style="mix-blend-mode:screen">
<path d="M37.154 32.7273C36.7108 32.7257 36.2854 32.5526 35.967 32.2443V40.3293C35.9644 40.6692 35.8269 40.9942 35.5849 41.2329C35.3428 41.4716 35.0159 41.6044 34.676 41.6023H14.46C14.1194 41.6044 13.7919 41.4714 13.5494 41.2324C13.3068 40.9933 13.1689 40.6678 13.166 40.3273V20.4003C13.1686 20.0604 13.3061 19.7354 13.5481 19.4967C13.7902 19.258 14.1171 19.1252 14.457 19.1273H21.528V24.6213C21.528 24.9987 21.6779 25.3606 21.9448 25.6275C22.2116 25.8944 22.5736 26.0443 22.951 26.0443H25.808C26.1854 26.0443 26.5473 25.8944 26.8142 25.6275C27.0811 25.3606 27.231 24.9987 27.231 24.6213V19.1273H29.154C29.1188 18.8956 29.0998 18.6617 29.097 18.4273C29.0986 18.1141 29.1183 17.8012 29.156 17.4903H14.456C13.678 17.4855 12.9298 17.7895 12.3757 18.3356C11.8215 18.8817 11.5066 19.6253 11.5 20.4033V40.3293C11.5066 41.1081 11.8218 41.8524 12.3766 42.3991C12.9313 42.9458 13.6802 43.2501 14.459 43.2453H34.674C35.452 43.2501 36.2001 42.9461 36.7543 42.4C37.3085 41.8539 37.6234 41.1103 37.63 40.3323V32.6733C37.618 32.6733 37.607 32.6673 37.595 32.6653C37.4513 32.705 37.3031 32.7258 37.154 32.7273V32.7273Z" fill="#F9F7F4"/>
</g>
</svg>
