<svg width="20" height="20" viewBox="0 0 20 20" fill="none" xmlns="http://www.w3.org/2000/svg">
<circle cx="10" cy="10" r="10" fill="white"/>
<path d="M16 6.15425C15.5537 6.35 15.0782 6.47975 14.5825 6.54275C15.0925 6.23825 15.4818 5.75975 15.6648 5.183C15.1893 5.4665 14.6642 5.66675 14.1047 5.7785C13.6532 5.29775 13.0097 5 12.3077 5C10.9457 5 9.84925 6.1055 9.84925 7.46075C9.84925 7.65575 9.86575 7.84325 9.90625 8.02175C7.861 7.922 6.05125 6.94175 4.8355 5.4485C4.62325 5.81675 4.49875 6.23825 4.49875 6.692C4.49875 7.544 4.9375 8.29925 5.5915 8.7365C5.19625 8.729 4.8085 8.61425 4.48 8.4335C4.48 8.441 4.48 8.45075 4.48 8.4605C4.48 9.656 5.33275 10.649 6.451 10.8777C6.25075 10.9325 6.0325 10.9587 5.806 10.9587C5.6485 10.9587 5.4895 10.9497 5.34025 10.9167C5.659 11.891 6.5635 12.6072 7.639 12.6305C6.802 13.2852 5.73925 13.6797 4.58875 13.6797C4.387 13.6797 4.1935 13.6707 4 13.646C5.08975 14.3487 6.38125 14.75 7.774 14.75C12.301 14.75 14.776 11 14.776 7.7495C14.776 7.64075 14.7722 7.53575 14.767 7.4315C15.2552 7.085 15.6655 6.65225 16 6.15425Z" fill="#03A9F4"/>
</svg>
