<svg width="56" height="56" viewBox="0 0 56 56" fill="none" xmlns="http://www.w3.org/2000/svg">
<path d="M28 55.5C43.1878 55.5 55.5 43.1878 55.5 28C55.5 12.8122 43.1878 0.5 28 0.5C12.8122 0.5 0.5 12.8122 0.5 28C0.5 43.1878 12.8122 55.5 28 55.5Z" fill="#00B4F0"/>
<path d="M17.1431 23.9444C17.3694 24.1855 17.6422 24.3784 17.945 24.5114C18.2478 24.6444 18.5743 24.7148 18.905 24.7183H21.7661V35.3323L21.7851 35.4473C21.8893 36.0472 22.184 36.5975 22.6254 37.0168C23.0669 37.4361 23.6316 37.7021 24.236 37.7753L24.3491 37.7873H32.4721C33.2721 37.7873 34.637 37.2354 34.637 35.1694V24.7193H38.0221C38.5014 24.7131 38.9681 24.5645 39.3628 24.2924C39.7575 24.0203 40.0623 23.6369 40.2385 23.1911C40.4148 22.7452 40.4544 22.2571 40.3525 21.7886C40.2506 21.3202 40.0116 20.8926 39.666 20.5603L30.166 11.2604C29.9512 11.0203 29.6884 10.828 29.3945 10.6961C29.1007 10.5641 28.7824 10.4953 28.4602 10.4942C28.1381 10.493 27.8193 10.5596 27.5246 10.6895C27.2298 10.8194 26.9655 11.0098 26.749 11.2484L17.2721 20.5293C16.8029 20.9656 16.5259 21.57 16.5017 22.2102C16.4775 22.8503 16.7082 23.474 17.1431 23.9444ZM18.9091 22.7824C18.8122 22.781 18.718 22.7505 18.6387 22.6948C18.5594 22.6391 18.4987 22.5608 18.4646 22.4701C18.4305 22.3794 18.4245 22.2806 18.4474 22.1864C18.4703 22.0923 18.5211 22.0072 18.593 21.9424L28.163 12.5714C28.178 12.5537 28.1944 12.5373 28.2121 12.5224C28.2801 12.4652 28.3662 12.434 28.455 12.4343C28.5158 12.4352 28.5755 12.4498 28.6298 12.4772C28.684 12.5046 28.7313 12.544 28.7681 12.5924L38.3241 21.9473C38.3944 22.0127 38.4436 22.0977 38.4654 22.1912C38.4872 22.2848 38.4805 22.3827 38.4462 22.4725C38.412 22.5622 38.3516 22.6396 38.273 22.6948C38.1944 22.7501 38.1011 22.7805 38.0051 22.7824H32.705V35.1694C32.705 35.4844 32.6441 35.8523 32.4741 35.8523H24.4631C24.2803 35.8319 24.1084 35.7551 23.9713 35.6326C23.8342 35.51 23.7387 35.3477 23.6981 35.1683V22.7833L18.9091 22.7824Z" fill="#F9F7F4"/>
<path d="M22.7991 42.0449H34.1131C34.6471 42.0449 35.0801 41.612 35.0801 41.0779C35.0801 40.5439 34.6471 40.1109 34.1131 40.1109H22.7991C22.265 40.1109 21.8321 40.5439 21.8321 41.0779C21.8321 41.612 22.265 42.0449 22.7991 42.0449Z" fill="#F9F7F4"/>
<path d="M22.7991 45.3105H34.1131C34.6471 45.3105 35.0801 44.8776 35.0801 44.3435C35.0801 43.8095 34.6471 43.3765 34.1131 43.3765H22.7991C22.265 43.3765 21.8321 43.8095 21.8321 44.3435C21.8321 44.8776 22.265 45.3105 22.7991 45.3105Z" fill="#F9F7F4"/>
</svg>
