<svg xmlns="http://www.w3.org/2000/svg" width="60" height="60" viewBox="0 0 60 60">
    <defs>
        <style>.a{fill:none;}.b{fill:#4786ff;}.c{fill:#fff;opacity:0.95;}.d{fill:#f8c332;}</style>
    </defs>
    <g transform="translate(-420 -1447)">
        <rect class="a" width="60" height="60" transform="translate(420 1447)"/>
        <g transform="translate(-30.856 -62.285)">
            <g transform="translate(450.857 1511.286)">
                <path class="b"
                      d="M6.084,0H42.627A6.084,6.084,0,0,1,48.71,6.084V38.452a6.084,6.084,0,0,1-6.084,6.084H6.084A6.084,6.084,0,0,1,0,38.452V6.084A6.084,6.084,0,0,1,6.084,0Z"
                      transform="translate(0 0)"/>
                <path class="c"
                      d="M29.3.806h0A2.621,2.621,0,0,0,27.621.1a2.2,2.2,0,0,0-1.681.706L10.328,15.874l-6-6.121a2.646,2.646,0,0,0-3.6,0,2.245,2.245,0,0,0,0,3.3l7.926,7.769a2.2,2.2,0,0,0,1.681.706,2.2,2.2,0,0,0,1.681-.706L29.062,4.1A2.092,2.092,0,0,0,29.3.806Z"
                      transform="translate(8.948 11.291)"/>
            </g>
            <path class="d"
                  d="M235.495,187.763l-20.626-16.875a.937.937,0,0,0-1.53.726v28.126a.937.937,0,0,0,1.718.519l7.223-10.832H234.9a.938.938,0,0,0,.593-1.663Z"
                  transform="translate(274.994 1366.658)"/>
        </g>
    </g>
</svg>