<svg xmlns="http://www.w3.org/2000/svg" width="60" height="60" viewBox="0 0 60 60">
    <defs>
        <style>.a{fill:none;}.b{fill:#4786ff;}.c{fill:#f8c332;}</style>
    </defs>
    <g transform="translate(-1668 -2320)">
        <rect class="a" width="60" height="60" transform="translate(1668 2320)"/>
        <g transform="translate(1668 2327.714)">
            <path class="b"
                  d="M40.5,298.151a5.039,5.039,0,0,1-1.576,1.071v8.335a2.241,2.241,0,0,0,2.241,2.241h5.048a2.241,2.241,0,0,0,2.241-2.241V290.542a2.6,2.6,0,0,0-.025-.32Z"
                  transform="translate(-34.133 -265.66)"/>
            <path class="c"
                  d="M58.644,90.722h-.16l-10.206.48c-.529.025-1.046.049-1.342.689s.037.985.406,1.354c1.046,1.046,2.081,2.105,3.139,3.127L49.324,97.53l-9.418,9.418-.837.837-2.056,2.056-8.1,8.1-.468-.468-9.689-9.689L16.7,105.73l-.554-.554a2.216,2.216,0,0,0-1.588-.653,2.267,2.267,0,0,0-1.588.653l-.554.554L.656,117.488a2.252,2.252,0,0,0,0,3.176l.554.554a2.216,2.216,0,0,0,1.588.653,2.267,2.267,0,0,0,1.588-.653l10.169-10.169.468.468,9.689,9.689,2.056,2.056.554.554a2.216,2.216,0,0,0,1.588.653,2.267,2.267,0,0,0,1.588-.653l.554-.554,9.689-9.689,2.056-2.056.837-.837,9.418-9.418,1.145-1.145,3.078,3.053a1.468,1.468,0,0,0,.973.591,1.1,1.1,0,0,0,.5-.148,1.551,1.551,0,0,0,.776-1.477c.148-3.324.308-6.636.468-9.96C60.035,91.178,59.616,90.722,58.644,90.722Z"
                  transform="translate(0 -90.722)"/>
            <path class="b"
                  d="M152.621,325.21l-2.056-2.056-4.432-4.432a2.231,2.231,0,0,0-.308,1.133V332.56a2.241,2.241,0,0,0,2.241,2.241h5.048a2.241,2.241,0,0,0,2.241-2.241v-5.5a5.071,5.071,0,0,1-2.179-1.293Z"
                  transform="translate(-127.872 -290.651)"/>
            <path class="b"
                  d="M254.67,322.053l-.554.554a5.012,5.012,0,0,1-1.391.985V329.4a2.241,2.241,0,0,0,2.241,2.241h5.048a2.241,2.241,0,0,0,2.241-2.241V316.7a2.214,2.214,0,0,0-.652-1.576Z"
                  transform="translate(-221.61 -287.495)"/>
            <path class="b"
                  d="M360.9,211.248l-.837.837-.542.542v18.541a2.241,2.241,0,0,0,2.241,2.241h5.048a2.241,2.241,0,0,0,2.241-2.241v-27.75a2.387,2.387,0,0,0-.025-.3Z"
                  transform="translate(-315.262 -189.284)"/>
        </g>
    </g>
</svg>