<svg width="16" height="17" viewBox="0 0 16 17" fill="none" xmlns="http://www.w3.org/2000/svg">
<g clip-path="url(#clip0_1380_431)">
<path d="M7.33331 3.16675H2.66665C2.31302 3.16675 1.97389 3.30722 1.72384 3.55727C1.47379 3.80732 1.33331 4.14646 1.33331 4.50008V13.8334C1.33331 14.187 1.47379 14.5262 1.72384 14.7762C1.97389 15.0263 2.31302 15.1667 2.66665 15.1667H12C12.3536 15.1667 12.6927 15.0263 12.9428 14.7762C13.1928 14.5262 13.3333 14.187 13.3333 13.8334V9.16675" stroke="#1A1E47" stroke-width="2" stroke-linecap="round" stroke-linejoin="round"/>
<path d="M12.3333 2.16665C12.5985 1.90144 12.9582 1.75244 13.3333 1.75244C13.7084 1.75244 14.0681 1.90144 14.3333 2.16665C14.5985 2.43187 14.7475 2.79158 14.7475 3.16665C14.7475 3.54173 14.5985 3.90144 14.3333 4.16665L7.99998 10.5L5.33331 11.1667L5.99998 8.49999L12.3333 2.16665Z" stroke="#1A1E47" stroke-width="2" stroke-linecap="round" stroke-linejoin="round"/>
</g>
<defs>
<clipPath id="clip0_1380_431">
<rect width="16" height="16" fill="white" transform="translate(0 0.5)"/>
</clipPath>
</defs>
</svg>
