<svg width="36" height="37" viewBox="0 0 36 37" fill="none" xmlns="http://www.w3.org/2000/svg">
<g clip-path="url(#clip0_1690_1538)">
<path d="M35.0156 6.86404V27.6499C35.0157 27.9554 34.9162 28.2526 34.7322 28.4965C34.5483 28.7404 34.2899 28.9176 33.9963 29.0014L7.34059 36.6501C7.27656 36.6686 7.21156 36.6836 7.1459 36.695L9.25253 29.5641C9.32862 29.3062 9.47802 29.076 9.68253 28.9015C9.88705 28.727 10.1378 28.6158 10.4044 28.5815L29.7178 26.0784C29.927 26.0512 30.1191 25.9488 30.2582 25.7901C30.3973 25.6315 30.4738 25.4275 30.4735 25.2165V9.68404C30.4738 9.47132 30.3952 9.26606 30.253 9.10798C30.1107 8.94989 29.915 8.85022 29.7035 8.82825L7.65183 6.55022C7.53177 6.53764 7.41041 6.55045 7.29561 6.58781C7.18081 6.62518 7.07514 6.68626 6.98544 6.76711C6.89575 6.84795 6.82403 6.94675 6.77493 7.05711C6.72583 7.16746 6.70046 7.28691 6.70045 7.40771V36.7389C6.48425 36.7388 6.26913 36.7084 6.06132 36.6488L1.02953 35.2037C0.737313 35.1196 0.480368 34.9427 0.29747 34.6996C0.114573 34.4566 0.0156474 34.1606 0.015625 33.8563V4.66353C0.0157633 4.39276 0.0932364 4.12767 0.238917 3.89948C0.384598 3.6713 0.592417 3.48953 0.837892 3.3756L6.05861 0.949668C6.47648 0.75493 6.94425 0.694016 7.39802 0.775246L33.8553 5.47886C34.1804 5.53673 34.4748 5.70722 34.687 5.96047C34.8991 6.21372 35.0155 6.53359 35.0156 6.86404Z" fill="white"/>
<path d="M14.7813 14.0467C14.6603 13.9901 14.5293 13.958 14.3959 13.9521C14.2624 13.9463 14.1292 13.9669 14.0037 14.0127C13.8782 14.0585 13.763 14.1286 13.6647 14.219C13.5663 14.3095 13.4868 14.4185 13.4307 14.5397L11.9798 17.6518L10.5293 14.5397C10.4154 14.2953 10.2091 14.1061 9.9558 14.0138C9.70251 13.9216 9.42296 13.9338 9.17866 14.0477C8.93436 14.1617 8.74531 14.3682 8.65311 14.6216C8.60745 14.7471 8.58695 14.8804 8.59276 15.0138C8.59858 15.1472 8.6306 15.2782 8.687 15.3993L10.8578 20.0573L9.63974 22.6726C9.58124 22.7939 9.54741 22.9256 9.54019 23.0601C9.53298 23.1946 9.55254 23.3292 9.59773 23.4561C9.64292 23.5829 9.71285 23.6996 9.80345 23.7992C9.89404 23.8988 10.0035 23.9794 10.1255 24.0363C10.2475 24.0932 10.3795 24.1253 10.514 24.1308C10.6485 24.1362 10.7827 24.1148 10.9089 24.0679C11.0351 24.021 11.1507 23.9495 11.249 23.8575C11.3473 23.7656 11.4264 23.655 11.4817 23.5322L11.9798 22.4635L13.1011 20.0573L15.2719 15.3993C15.3854 15.1547 15.3975 14.8751 15.3055 14.6217C15.2136 14.3682 15.0251 14.1615 14.7813 14.0467Z" fill="white"/>
<path d="M21.5605 15.0438C21.0189 14.5016 20.3236 14.1397 19.5691 14.0073C18.8146 13.8748 18.0376 13.9783 17.344 14.3036C16.6504 14.6289 16.0738 15.1602 15.6928 15.8252C15.3118 16.4902 15.1449 17.2565 15.2148 18.0198C15.2936 18.9103 15.7129 19.7583 16.3673 20.3839C17.0551 21.0454 17.9729 21.4133 18.9269 21.41C20.0882 21.41 20.9601 21.07 21.7915 20.3179C21.9312 20.1918 22.3155 19.8419 22.3155 19.3758C22.3145 19.1806 22.2467 18.9916 22.1234 18.8405C22 18.6893 21.8285 18.5851 21.6376 18.5451C21.2095 18.4513 20.7797 18.7831 20.4847 19.0364C20.0716 19.3931 19.2789 19.6104 18.6625 19.5257C17.8722 19.4176 17.2354 18.6968 17.2354 18.2085H21.7643C22.2812 18.2085 22.6947 17.7495 22.6291 17.2365C22.5 16.2511 22.097 15.584 21.5605 15.0438ZM20.0254 16.6635C19.1341 16.6635 18.4097 16.6605 17.8222 16.6605C17.7752 16.6602 17.7292 16.6472 17.689 16.6229C17.6488 16.5986 17.6159 16.5638 17.5937 16.5224C17.5716 16.4809 17.5611 16.4342 17.5633 16.3873C17.5654 16.3403 17.5802 16.2948 17.6061 16.2555C17.9459 15.7367 18.462 15.4763 18.9252 15.4763C19.3883 15.4763 19.9027 15.7367 20.2445 16.2583C20.27 16.2978 20.2844 16.3436 20.2863 16.3906C20.2881 16.4377 20.2772 16.4844 20.2548 16.5258C20.2324 16.5672 20.1993 16.6019 20.1589 16.6261C20.1186 16.6503 20.0724 16.6633 20.0254 16.6635Z" fill="white"/>
<path d="M27.5655 17.528C26.9714 17.1847 26.3476 16.8953 25.7019 16.6634C25.3913 16.5498 24.7005 16.1748 25.1582 15.7831C25.2706 15.6946 25.409 15.6457 25.552 15.6437C25.9523 15.6243 26.3101 15.7716 26.6546 15.9582C26.9329 16.1088 27.2346 16.3244 27.5642 16.3244C27.7593 16.3239 27.9482 16.2563 28.0993 16.1328C28.2504 16.0093 28.3544 15.8376 28.3939 15.6464C28.451 15.3615 28.3508 15.0987 28.2417 14.9685C27.992 14.6699 27.0559 13.9512 25.7005 13.9512C24.1759 13.9512 22.9901 14.9685 22.9901 16.1551C22.9901 17.0027 23.4002 17.5433 23.8579 17.8551C24.4946 18.2872 25.1925 18.5293 25.7005 18.6987C25.9944 18.7969 26.6519 18.9149 26.5557 19.3651C26.4827 19.7108 25.9744 19.7159 25.7008 19.7159C25.2523 19.7159 24.7834 19.4416 24.4172 19.208C24.2313 19.0897 24.0774 18.939 23.8531 18.8904C23.675 18.8506 23.4888 18.8692 23.3221 18.9435C23.1554 19.0178 23.0171 19.1439 22.9275 19.3031C22.838 19.4622 22.8021 19.646 22.8251 19.8271C22.8482 20.0083 22.9289 20.1772 23.0553 20.3089C23.3951 20.6663 24.3057 21.4095 25.7005 21.4095C27.3946 21.4095 28.5805 20.3939 28.5805 19.2073C28.5818 18.5232 28.2067 17.9081 27.5655 17.528Z" fill="white"/>
</g>
<defs>
<clipPath id="clip0_1690_1538">
<rect width="35" height="36" fill="white" transform="translate(0.015625 0.728516)"/>
</clipPath>
</defs>
</svg>
