<svg xmlns="http://www.w3.org/2000/svg" xmlns:xlink="http://www.w3.org/1999/xlink" width="60" height="60"
     viewBox="0 0 60 60">
    <defs>
        <style>.a,.d{fill:#fff;}.a{stroke:#707070;}.b{clip-path:url(#a);}.c{fill:#4786ff;}.e{fill:#f8c332;}</style>
        <clipPath id="a">
            <path class="a" d="M0,0H60V60H0Z" transform="translate(192 2633)"/>
        </clipPath>
    </defs>
    <g class="b" transform="translate(-192 -2633)">
        <g transform="translate(188.039 2632.539)">
            <path class="c" d="M5,0H35.054a5,5,0,0,1,5,5V31.621a5,5,0,0,1-5,5H5a5,5,0,0,1-5-5V5A5,5,0,0,1,5,0Z"
                  transform="translate(13.975 12.913)"/>
            <g transform="translate(17.304 21.938)">
                <path class="d"
                      d="M90.287,105.516l-8.569-8.655a.936.936,0,0,0-1.32,0l-4.439,4.484L68.57,93.88a.94.94,0,0,0-1.321,0L55.73,105.516Zm0,0"
                      transform="translate(-55.73 -84.323)"/>
                <path class="d" d="M70.409,67.2A3.2,3.2,0,1,1,67.2,64,3.2,3.2,0,0,1,70.409,67.2Zm0,0"
                      transform="translate(-43.245 -64)"/>
            </g>
            <path class="e"
                  d="M7.1,20.014h0a1.818,1.818,0,0,1-1.819-1.819l-.1-11.631-2.01,2.01a1.878,1.878,0,0,1-2.633,0h0a1.878,1.878,0,0,1,0-2.633L5.9.58A1.65,1.65,0,0,1,7.24.006,1.738,1.738,0,0,1,8.58.58L13.7,5.7a1.878,1.878,0,0,1,0,2.633l-.048.048a1.878,1.878,0,0,1-2.633,0L9.106,6.468,8.867,18.195A1.722,1.722,0,0,1,7.1,20.014Z"
                  transform="translate(53.658 24.221) rotate(-135)"/>
            <path class="e"
                  d="M7.1,20.014h0a1.818,1.818,0,0,1-1.819-1.819l-.1-11.631-2.01,2.01a1.878,1.878,0,0,1-2.633,0h0a1.878,1.878,0,0,1,0-2.633L5.9.58A1.65,1.65,0,0,1,7.24.006,1.738,1.738,0,0,1,8.58.58L13.7,5.7a1.878,1.878,0,0,1,0,2.633l-.048.048a1.878,1.878,0,0,1-2.633,0L9.106,6.468,8.867,18.195A1.722,1.722,0,0,1,7.1,20.014Z"
                  transform="translate(14.152 37.241) rotate(45)"/>
        </g>
    </g>
</svg>