<svg xmlns="http://www.w3.org/2000/svg" width="60" height="60" viewBox="0 0 60 60">
    <defs>
        <style>.a{fill:#f8c332;}.b{fill:#4786ff;}.c{fill:#3b72dc;}.d{fill:#fff;}.e{fill:#d6a621;}.f{fill:none;}</style>
    </defs>
    <g transform="translate(-1161 -2155)">
        <g transform="translate(1162.714 2155)">
            <g transform="translate(4.588 2.835)">
                <path class="a"
                      d="M2.1,12.441H0c0-.058,0-.121,0-.188V9.583A9.032,9.032,0,0,1,9.025.562h2.493a2.6,2.6,0,0,0-.2,1.049,2.6,2.6,0,0,0,.2,1.051H9.025A6.93,6.93,0,0,0,2.1,9.583v2.671c0,.062,0,.123,0,.187ZM12.234,3.221h0a.824.824,0,0,1-.714-.559h1.722A1.552,1.552,0,0,1,12.234,3.221ZM13.242.562H11.518A.824.824,0,0,1,12.232,0a1.553,1.553,0,0,1,1.008.561Z"
                      transform="translate(0 2.407)"/>
                <path class="a"
                      d="M258.327,35.339l-3.817-3.18a.637.637,0,0,0-1.043.488v6.361a.635.635,0,0,0,.366.576.646.646,0,0,0,.27.06.636.636,0,0,0,.407-.148l3.817-3.18a.635.635,0,0,0,0-.977Z"
                      transform="translate(-242.636 -32.012)"/>
            </g>
            <g transform="translate(37.14 42.856)">
                <path class="b"
                      d="M2.1,12.441H0c0-.058,0-.121,0-.188V9.583A9.032,9.032,0,0,1,9.025.562h2.493a2.6,2.6,0,0,0-.2,1.049,2.6,2.6,0,0,0,.2,1.051H9.025A6.93,6.93,0,0,0,2.1,9.583v2.671c0,.062,0,.123,0,.187ZM12.234,3.221h0a.824.824,0,0,1-.714-.559h1.722A1.552,1.552,0,0,1,12.234,3.221ZM13.242.562H11.518A.824.824,0,0,1,12.232,0a1.553,1.553,0,0,1,1.008.561Z"
                      transform="translate(15.92 12.441) rotate(180)"/>
                <path class="b"
                      d="M253.7,36.317l3.817,3.18a.637.637,0,0,0,1.043-.488V32.648a.635.635,0,0,0-.366-.576.645.645,0,0,0-.27-.06.636.636,0,0,0-.407.148L253.7,35.34a.636.636,0,0,0,0,.977Z"
                      transform="translate(-253.467 -24.796)"/>
            </g>
            <path class="b"
                  d="M29.861,0H10.775A3.521,3.521,0,0,0,7.231,3.5V36.718a3.52,3.52,0,0,0,3.544,3.5H36.063a3.521,3.521,0,0,0,3.544-3.5V8.742L30.747,0Z"
                  transform="translate(17.05)"/>
            <path class="c" d="M312.9,0H312V6.12a3.548,3.548,0,0,0,3.6,3.5h6.3V8.742Z" transform="translate(-265.235)"/>
            <g transform="translate(27.879 13.49)">
                <path class="d"
                      d="M7.132-13.436a2.516,2.516,0,0,1-.74,1.943,2.982,2.982,0,0,1-2.1.685H3.721v2.489H1.7v-7.5H4.289A3.164,3.164,0,0,1,6.42-15.2,2.217,2.217,0,0,1,7.132-13.436Zm-3.412.975h.369a1.006,1.006,0,0,0,.725-.257.933.933,0,0,0,.269-.708q0-.76-.84-.76H3.721ZM15.456-8.319H12.8l-2.735-5.287h-.046q.1,1.247.1,1.9v3.383H8.326v-7.5h2.643l2.725,5.215h.031q-.072-1.134-.072-1.822v-3.393h1.8Zm4.626-4.394h3.232v4.045a8.869,8.869,0,0,1-2.894.452,3.494,3.494,0,0,1-2.676-1.006,4.033,4.033,0,0,1-.945-2.869,3.773,3.773,0,0,1,1.035-2.828,3.973,3.973,0,0,1,2.9-1.011,6.4,6.4,0,0,1,1.334.133,5.627,5.627,0,0,1,1.094.339l-.64,1.591a3.953,3.953,0,0,0-1.777-.4,1.689,1.689,0,0,0-1.37.577,2.5,2.5,0,0,0-.484,1.65,2.534,2.534,0,0,0,.438,1.6,1.517,1.517,0,0,0,1.263.552,3.7,3.7,0,0,0,.83-.087v-1.175H20.082Z"
                      transform="translate(1.867 15.931)"/>
                <rect class="d" width="2.384" height="2.389" transform="translate(0 5.256)"/>
            </g>
            <path class="a"
                  d="M29.861,0H10.775A3.521,3.521,0,0,0,7.231,3.5V36.718a3.52,3.52,0,0,0,3.544,3.5H36.063a3.521,3.521,0,0,0,3.544-3.5V8.742L30.747,0Z"
                  transform="translate(-7.231 19.785)"/>
            <path class="e" d="M312.9,0H312V6.12a3.548,3.548,0,0,0,3.6,3.5h6.3V8.742Z"
                  transform="translate(-289.517 19.785)"/>
            <g transform="translate(3.597 35.973)">
                <rect class="d" width="2.571" height="2.576" transform="translate(0 5.667)"/>
                <g transform="translate(4.078)">
                    <path class="d"
                          d="M15.3-13.241a2.712,2.712,0,0,1-.8,2.095,3.216,3.216,0,0,1-2.267.739h-.613v2.684H9.442v-8.09h2.795a3.411,3.411,0,0,1,2.3.67A2.391,2.391,0,0,1,15.3-13.241ZM11.624-12.19h.4a1.085,1.085,0,0,0,.782-.277,1,1,0,0,0,.29-.764q0-.819-.906-.819h-.563Zm8.207-.271h3.485V-8.1a9.563,9.563,0,0,1-3.121.487A3.767,3.767,0,0,1,17.31-8.7a4.348,4.348,0,0,1-1.019-3.093,4.068,4.068,0,0,1,1.116-3.049,4.284,4.284,0,0,1,3.126-1.09,6.907,6.907,0,0,1,1.439.144,6.067,6.067,0,0,1,1.179.365l-.69,1.715a4.263,4.263,0,0,0-1.917-.432,1.821,1.821,0,0,0-1.477.623,2.7,2.7,0,0,0-.522,1.779,2.732,2.732,0,0,0,.472,1.729,1.636,1.636,0,0,0,1.361.595,3.989,3.989,0,0,0,.895-.094v-1.267H19.831Z"
                          transform="translate(-2.214 15.931)"/>
                    <g transform="translate(0 0.103)">
                        <path class="d"
                              d="M50.808,72.41a2.708,2.708,0,0,0,2.8-3V64.168H51.27v5.076c0,1.047-.372,1.136-.754,1.136a1.123,1.123,0,0,1-.89-.684l-.068-.127-1.614,1.2.055.094A2.968,2.968,0,0,0,50.808,72.41Z"
                              transform="translate(-47.944 -64.168)"/>
                    </g>
                </g>
            </g>
        </g>
        <path class="f" d="M0,0H60V60H0Z" transform="translate(1161 2155)"/>
    </g>
</svg>