<svg xmlns="http://www.w3.org/2000/svg" xmlns:xlink="http://www.w3.org/1999/xlink" width="159.999" height="135"
     viewBox="0 0 159.999 135">
    <defs>
        <style>
            .a{fill:#f4f5f5;}.b{fill:#323a45;opacity:0.05;}.c{fill:#fff;}.d{fill:#f8c332;}.e{fill:#4786ff;}.f{filter:url(#a);}
        </style>
        <filter id="a" x="24.999" y="0" width="135" height="135" filterUnits="userSpaceOnUse">
            <feOffset dy="5" input="SourceAlpha"/>
            <feGaussianBlur stdDeviation="10" result="b"/>
            <feFlood flood-color="#e5e6e8" flood-opacity="0.8"/>
            <feComposite operator="in" in2="b"/>
            <feComposite in="SourceGraphic"/>
        </filter>
    </defs>
    <g transform="translate(-906.001 -1985)">
        <rect class="a" width="22.88" height="22.88" transform="translate(988.884 2091.12)"/>
        <path class="b"
              d="M-.988-173.573a24.1,24.1,0,0,1-5.743,16.157q-5.743,6.747-16.607,9.791v.415q25.325,3.183,25.325,23.941,0,14.116-11.175,22.212t-31.034,8.1a90.811,90.811,0,0,1-15.119-1.176,78.971,78.971,0,0,1-15.05-4.29v-22.7a60.073,60.073,0,0,0,13.528,5.017,55.534,55.534,0,0,0,12.7,1.626q9,0,13.112-2.526t4.117-7.923a8.91,8.91,0,0,0-2.145-6.4q-2.145-2.249-6.919-3.391a55.266,55.266,0,0,0-12.455-1.142h-6.228v-20.551h6.366q20.828,0,20.828-10.656a6.541,6.541,0,0,0-3.079-5.951,15.394,15.394,0,0,0-8.269-1.937q-9.687,0-20.066,6.5L-70.252-186.72a55.093,55.093,0,0,1,16.434-7.888,71.683,71.683,0,0,1,19.271-2.353q15.707,0,24.633,6.228A19.8,19.8,0,0,1-.988-173.573Z"
              transform="translate(976.392 2206.961)"/>
        <g transform="translate(-583 -2337)">
            <g transform="translate(1544 4347)">
                <g class="f" transform="matrix(1, 0, 0, 1, -55, -25)">
                    <path class="c"
                          d="M37.5,75C74.711,75,75,58.211,75,37.5S74.711,0,37.5,0,0,16.789,0,37.5.289,75,37.5,75Z"
                          transform="translate(55 25)"/>
                </g>
            </g>
            <g transform="translate(1561.213 4364.213)">
                <path class="c" d="M20.287,0A20.287,20.287,0,1,1,0,20.287,20.287,20.287,0,0,1,20.287,0Z"/>
                <path class="d"
                      d="M39.705,175.008a4.438,4.438,0,1,1-8.875,0H17.519a20.275,20.275,0,0,0,7.837,11.411H45.18a20.283,20.283,0,0,0,7.838-11.411Z"
                      transform="translate(-14.981 -149.651)"/>
                <path class="e"
                      d="M45.022,63.916a1.268,1.268,0,1,0,1.268,1.268A1.268,1.268,0,0,0,45.022,63.916Zm2.536-6.34a1.268,1.268,0,1,0,1.268,1.268A1.268,1.268,0,0,0,47.558,57.577Zm5.072-5.072A1.268,1.268,0,1,0,53.9,53.773,1.268,1.268,0,0,0,52.629,52.505ZM70.38,63.916a1.268,1.268,0,1,0,1.268,1.268A1.268,1.268,0,0,0,70.38,63.916Zm-2.536-6.34a1.268,1.268,0,1,0,1.268,1.268A1.268,1.268,0,0,0,67.845,57.577Zm-5.072-5.072a1.268,1.268,0,1,0,1.268,1.268A1.268,1.268,0,0,0,62.773,52.505Z"
                      transform="translate(-37.414 -44.898)"/>
                <path class="d"
                      d="M125.048,57.505c1.4,0,2.536,13.276,2.536,14.677a2.536,2.536,0,1,1-5.072,0C122.512,70.781,123.648,57.505,125.048,57.505Z"
                      transform="translate(-104.761 -46.824)"/>
                <path class="e"
                      d="M20.287,0A20.287,20.287,0,1,0,40.574,20.287,20.288,20.288,0,0,0,20.287,0Zm0,36.77A16.483,16.483,0,1,1,36.77,20.287,16.5,16.5,0,0,1,20.287,36.77Z"/>
            </g>
        </g>
    </g>
</svg>