<svg xmlns="http://www.w3.org/2000/svg" width="250" height="20" viewBox="0 0 250 20"><defs><style>.a{fill:#323a45;}.b{fill:#242931;}.c{fill:none;stroke:rgba(0,0,0,0.05);}</style></defs><g transform="translate(-19565 -1941)"><g transform="translate(19565 1941)"><g transform="translate(0 0)"><g transform="translate(24.606 2.843)"><path class="a" d="M61.9,25.107c.281-.113.619-.283.9-.4.338-.17.619-.339.957-.509a8.585,8.585,0,0,0,.9-.622,8.672,8.672,0,0,0,.732-.679h1.632V33.593H64.714V25.842a5.853,5.853,0,0,1-1.013.566,9.353,9.353,0,0,1-1.126.453Z" transform="translate(-61.9 -21.542)"/><path class="a" d="M84.153,27.9a7.1,7.1,0,0,1-1.013,4.13,3.506,3.506,0,0,1-5.628,0A7.1,7.1,0,0,1,76.5,27.9a9.82,9.82,0,0,1,.281-2.376,5.549,5.549,0,0,1,.788-1.754A3.235,3.235,0,0,1,78.807,22.7a3.608,3.608,0,0,1,1.576-.4A3.246,3.246,0,0,1,83.2,23.714,7.438,7.438,0,0,1,84.153,27.9Zm-2.364,0a12.375,12.375,0,0,0-.056-1.471,5.734,5.734,0,0,0-.225-1.132,1.822,1.822,0,0,0-.45-.735,1.067,1.067,0,0,0-.732-.283,1.182,1.182,0,0,0-.732.283,1.822,1.822,0,0,0-.45.735,3.364,3.364,0,0,0-.225,1.132,11.9,11.9,0,0,0-.056,1.471,11.9,11.9,0,0,0,.056,1.471,4.991,4.991,0,0,0,.225,1.132,1.822,1.822,0,0,0,.45.736,1.067,1.067,0,0,0,.732.283,1.182,1.182,0,0,0,.732-.283,1.822,1.822,0,0,0,.45-.736,5.733,5.733,0,0,0,.225-1.132A11.448,11.448,0,0,0,81.79,27.9Z" transform="translate(-68.284 -21.282)"/><path class="a" d="M99.56,24.032c.113.4.281.905.394,1.414.169.509.281,1.075.45,1.641l.506,1.7c.169.566.338,1.075.506,1.584.113-.509.281-1.075.394-1.7s.281-1.245.394-1.924.225-1.3.338-1.98.225-1.3.338-1.867h2.476c-.338,1.81-.788,3.621-1.238,5.431-.45,1.867-.957,3.564-1.519,5.262H100.4c-.338-.962-.732-2.037-1.069-3.112s-.675-2.15-1.013-3.281c-.338,1.075-.675,2.15-.957,3.281s-.675,2.093-1.013,3.112H94.157q-.844-2.461-1.519-5.262c-.45-1.867-.9-3.678-1.238-5.431h2.589l.338,1.867c.113.679.225,1.3.394,1.98.113.679.281,1.3.394,1.924a12.32,12.32,0,0,0,.45,1.7c.169-.509.338-1.018.563-1.584l.506-1.7c.169-.566.338-1.132.45-1.641s.281-1.018.394-1.414Z" transform="translate(-74.799 -21.542)"/><path class="a" d="M117.2,31.4a4.662,4.662,0,0,1,1.182-3.225,3.574,3.574,0,0,1,1.238-.792,4.155,4.155,0,0,1,1.407-.283,3.47,3.47,0,0,1,2.7,1.075,4.309,4.309,0,0,1,1.013,3.112v.453a1.252,1.252,0,0,1-.056.453h-5.177a1.606,1.606,0,0,0,.675,1.132,2.609,2.609,0,0,0,1.576.4A9.154,9.154,0,0,0,123,33.606a4.346,4.346,0,0,0,1.013-.283l.281,1.867a2.607,2.607,0,0,1-.506.17l-.675.17a3.3,3.3,0,0,1-.788.113,4.238,4.238,0,0,1-.844.057,5.024,5.024,0,0,1-1.913-.339,3.792,3.792,0,0,1-1.351-.905,3.593,3.593,0,0,1-.788-1.358A5.87,5.87,0,0,1,117.2,31.4Zm5.346-.905a2.02,2.02,0,0,0-.113-.566,2.3,2.3,0,0,0-.281-.509.876.876,0,0,0-.45-.339,1.213,1.213,0,0,0-.675-.113,2.407,2.407,0,0,0-.675.113,3.122,3.122,0,0,0-.45.339,1.486,1.486,0,0,0-.281.509c-.056.226-.113.4-.169.566Z" transform="translate(-86.08 -23.366)"/><path class="a" d="M141.241,28.477a5.725,5.725,0,0,1-.281,1.754,3.443,3.443,0,0,1-.844,1.358,3.228,3.228,0,0,1-1.294.849,5.731,5.731,0,0,1-1.8.283,4.237,4.237,0,0,1-.844-.057c-.281-.057-.619-.057-.9-.113l-.844-.17c-.281-.057-.506-.113-.732-.17V20.9l2.307-.4v4.017a3.978,3.978,0,0,1,1.688-.4,4.276,4.276,0,0,1,1.519.283,4.218,4.218,0,0,1,1.126.849,4.368,4.368,0,0,1,.675,1.358A6.792,6.792,0,0,1,141.241,28.477Zm-2.307-.057c0-1.471-.563-2.207-1.632-2.207a2.811,2.811,0,0,0-.675.113,1.68,1.68,0,0,0-.563.226V30.74c.113,0,.281.057.45.057h.563a1.743,1.743,0,0,0,1.407-.622A3.526,3.526,0,0,0,138.934,28.421Z" transform="translate(-93.295 -20.5)"/></g><path class="a" d="M23.486,22.278l6.64-6.676a.44.44,0,0,1,.619,0l9.567,9.675a.446.446,0,0,1,0,.622l-.056.057a2.03,2.03,0,0,1-2.87,0l-6.753-6.789a.44.44,0,0,0-.619,0l-3.77,3.791a2.03,2.03,0,0,1-2.87,0A.726.726,0,0,1,23.486,22.278Z" transform="translate(-20.433 -15.475)"/><path class="a" d="M35.184,35.565l-6.64,6.676a.44.44,0,0,1-.619,0L18.3,32.566a.446.446,0,0,1,0-.622h0a2.03,2.03,0,0,1,2.87,0l6.7,6.733a.44.44,0,0,0,.619,0l3.77-3.791a2.03,2.03,0,0,1,2.87,0h0A.469.469,0,0,1,35.184,35.565Z" transform="translate(-18.175 -22.368)"/><path class="a" d="M35.67,29.858l-1.632-1.641a1.307,1.307,0,0,1,0-1.754l.056-.057a1.187,1.187,0,0,1,1.745,0L39.215,29.8a.446.446,0,0,1,0,.622l-3.264,3.281a1.187,1.187,0,0,1-1.745,0h0a1.2,1.2,0,0,1,0-1.754l1.519-1.528A.44.44,0,0,0,35.67,29.858Z" transform="translate(-24.963 -20.056)"/><path class="a" d="M31.545,31.773l-.563-.566a1.187,1.187,0,0,0-1.745,0h0a1.307,1.307,0,0,0,0,1.754h0a1.187,1.187,0,0,0,1.745,0l.563-.566A.446.446,0,0,0,31.545,31.773Z" transform="translate(-22.865 -22.14)"/></g></g><path class="b" d="M6.743-4.3h-4.4L.836-.4H0L4.352-11.494h.481L9.1-.4H8.245ZM2.62-5H6.491L5.018-8.978q-.185-.469-.444-1.3a12.293,12.293,0,0,1-.437,1.315Zm8.46-3.62V-3.3a2.636,2.636,0,0,0,.511,1.8,2.037,2.037,0,0,0,1.584.563,2.731,2.731,0,0,0,2.113-.741,3.517,3.517,0,0,0,.677-2.411V-8.615h.725V-.4h-.622l-.133-1.133h-.044A3,3,0,0,1,13.1-.25q-2.746,0-2.746-3V-8.615Zm10.428,7.7a5.387,5.387,0,0,0,1.214-.121v.6a3.81,3.81,0,0,1-1.229.181,1.978,1.978,0,0,1-1.573-.582,2.741,2.741,0,0,1-.507-1.829v-5.3H18.222V-8.4l1.192-.34.37-1.859h.377v1.987h2.361v.65H20.161v5.2a2.412,2.412,0,0,0,.326,1.4A1.172,1.172,0,0,0,21.508-.915Zm9.607-3.6a4.718,4.718,0,0,1-.955,3.14A3.265,3.265,0,0,1,27.525-.25,3.36,3.36,0,0,1,25.66-.771a3.318,3.318,0,0,1-1.236-1.5A5.542,5.542,0,0,1,24-4.519a4.688,4.688,0,0,1,.955-3.132,3.258,3.258,0,0,1,2.62-1.122,3.2,3.2,0,0,1,2.6,1.137A4.737,4.737,0,0,1,31.115-4.519Zm-6.35,0a4.243,4.243,0,0,0,.729,2.641,2.448,2.448,0,0,0,2.061.948,2.448,2.448,0,0,0,2.061-.948,4.243,4.243,0,0,0,.729-2.641,4.176,4.176,0,0,0-.736-2.637,2.481,2.481,0,0,0-2.069-.937,2.443,2.443,0,0,0-2.054.933A4.235,4.235,0,0,0,24.765-4.519ZM43.394-.4V-5.789a2.724,2.724,0,0,0-.459-1.753,1.725,1.725,0,0,0-1.406-.552,2.27,2.27,0,0,0-1.828.7,3.327,3.327,0,0,0-.592,2.184V-.4h-.748V-6.016q0-2.078-1.865-2.078a2.177,2.177,0,0,0-1.843.752,3.979,3.979,0,0,0-.577,2.407V-.4h-.733V-8.615h.607l.155,1.126h.044a2.33,2.33,0,0,1,.947-.948,2.774,2.774,0,0,1,1.354-.336,2.309,2.309,0,0,1,2.442,1.458h.03A2.765,2.765,0,0,1,39.978-8.4a2.986,2.986,0,0,1,1.506-.378,2.552,2.552,0,0,1,1.976.718,3.306,3.306,0,0,1,.659,2.282V-.4Zm8.215,0-.185-1.3h-.059A3.846,3.846,0,0,1,50.118-.579,3.274,3.274,0,0,1,48.6-.25a2.585,2.585,0,0,1-1.843-.62A2.241,2.241,0,0,1,46.1-2.585a2.128,2.128,0,0,1,.981-1.866,5.247,5.247,0,0,1,2.838-.7L51.454-5.2v-.544a2.836,2.836,0,0,0-.466-1.768,1.79,1.79,0,0,0-1.5-.6,4.945,4.945,0,0,0-2.317.635l-.274-.65a6.028,6.028,0,0,1,2.62-.635,2.58,2.58,0,0,1,1.98.7,3.131,3.131,0,0,1,.655,2.191V-.4ZM48.649-.93a2.729,2.729,0,0,0,2.032-.752,2.842,2.842,0,0,0,.744-2.089V-4.58l-1.406.06a5.223,5.223,0,0,0-2.417.54,1.565,1.565,0,0,0-.722,1.424,1.549,1.549,0,0,0,.463,1.2A1.855,1.855,0,0,0,48.649-.93Zm8.23.015a5.387,5.387,0,0,0,1.214-.121v.6a3.81,3.81,0,0,1-1.229.181,1.978,1.978,0,0,1-1.573-.582,2.741,2.741,0,0,1-.507-1.829v-5.3H53.593V-8.4l1.192-.34.37-1.859h.377v1.987h2.361v.65H55.532v5.2a2.412,2.412,0,0,0,.326,1.4A1.172,1.172,0,0,0,56.879-.915Zm6.2.665a3.469,3.469,0,0,1-2.735-1.1,4.494,4.494,0,0,1-.981-3.091,4.887,4.887,0,0,1,.947-3.147,3.1,3.1,0,0,1,2.553-1.183,2.733,2.733,0,0,1,2.243,1.013,4.241,4.241,0,0,1,.822,2.751v.6h-5.8a3.941,3.941,0,0,0,.773,2.584,2.7,2.7,0,0,0,2.172.892,6.6,6.6,0,0,0,1.21-.1,7.243,7.243,0,0,0,1.321-.423v.68a5.806,5.806,0,0,1-1.258.412A6.844,6.844,0,0,1,63.081-.25Zm-.215-7.859A2.386,2.386,0,0,0,61-7.327a3.734,3.734,0,0,0-.822,2.256h4.974A3.636,3.636,0,0,0,64.547-7.3,1.987,1.987,0,0,0,62.867-8.109Zm8.23-.665a3.282,3.282,0,0,1,1.51.325,3.032,3.032,0,0,1,1.14,1.111h.044q-.044-.952-.044-1.866v-2.955h.725V-.4h-.481l-.185-1.254h-.059A2.961,2.961,0,0,1,71.112-.25a3.125,3.125,0,0,1-2.546-1.058,4.709,4.709,0,0,1-.881-3.083,5.229,5.229,0,0,1,.873-3.257A3.019,3.019,0,0,1,71.1-8.774Zm0,.68a2.259,2.259,0,0,0-1.98.945,4.757,4.757,0,0,0-.662,2.743q0,3.491,2.657,3.491a2.387,2.387,0,0,0,2-.809,4.36,4.36,0,0,0,.637-2.667v-.128a4.648,4.648,0,0,0-.625-2.739A2.364,2.364,0,0,0,71.1-8.094ZM89.918-.4H89.3L86.921-8.925q-.3-1.05-.444-1.723-.118.657-.337,1.511T83.753-.4h-.637L80.141-11.449h.792L82.828-4.33q.111.431.207.8t.174.688q.078.321.141.62t.115.6q.178-1.028.755-3.121l1.85-6.7h.836l2.169,7.693q.377,1.33.54,2.146.1-.544.248-1.156t2.283-8.682h.762Zm11.413-7.874a2.963,2.963,0,0,1-1.066,2.456,4.721,4.721,0,0,1-3.02.854H95.573V-.4h-.755V-11.449h2.65Q101.331-11.449,101.331-8.275ZM95.573-5.63h1.488A4.435,4.435,0,0,0,99.7-6.246a2.345,2.345,0,0,0,.814-2,2.278,2.278,0,0,0-.77-1.893,3.789,3.789,0,0,0-2.383-.616H95.573Zm18.562-2.645a2.963,2.963,0,0,1-1.066,2.456,4.721,4.721,0,0,1-3.02.854h-1.673V-.4h-.755V-11.449h2.65Q114.135-11.449,114.135-8.275ZM108.377-5.63h1.488a4.435,4.435,0,0,0,2.642-.616,2.345,2.345,0,0,0,.814-2,2.278,2.278,0,0,0-.77-1.893,3.789,3.789,0,0,0-2.383-.616h-1.791ZM117.037-.4H116.3V-12.159h.733Zm7.579,0-.185-1.3h-.059a3.846,3.846,0,0,1-1.247,1.122,3.274,3.274,0,0,1-1.514.329,2.585,2.585,0,0,1-1.843-.62,2.241,2.241,0,0,1-.659-1.715,2.128,2.128,0,0,1,.981-1.866,5.247,5.247,0,0,1,2.838-.7L124.46-5.2v-.544a2.836,2.836,0,0,0-.466-1.768,1.79,1.79,0,0,0-1.5-.6,4.945,4.945,0,0,0-2.317.635l-.274-.65a6.028,6.028,0,0,1,2.62-.635,2.58,2.58,0,0,1,1.98.7,3.131,3.131,0,0,1,.655,2.191V-.4ZM121.655-.93a2.729,2.729,0,0,0,2.032-.752,2.842,2.842,0,0,0,.744-2.089V-4.58l-1.406.06a5.223,5.223,0,0,0-2.417.54,1.565,1.565,0,0,0-.722,1.424,1.549,1.549,0,0,0,.463,1.2A1.855,1.855,0,0,0,121.655-.93Zm8.23.015a5.387,5.387,0,0,0,1.214-.121v.6a3.81,3.81,0,0,1-1.229.181A1.978,1.978,0,0,1,128.3-.832a2.741,2.741,0,0,1-.507-1.829v-5.3H126.6V-8.4l1.192-.34.37-1.859h.377v1.987H130.9v.65h-2.361v5.2a2.411,2.411,0,0,0,.326,1.4A1.172,1.172,0,0,0,129.885-.915Zm5.943-7.05h-1.895V-.4H133.2V-7.965h-1.5V-8.4l1.5-.28v-.635a3.641,3.641,0,0,1,.544-2.218,2.107,2.107,0,0,1,1.78-.707,4.528,4.528,0,0,1,1.332.2l-.17.65a3.854,3.854,0,0,0-1.177-.189,1.376,1.376,0,0,0-1.218.518,3.025,3.025,0,0,0-.359,1.681v.763h1.895Zm8.208,3.446a4.718,4.718,0,0,1-.955,3.14,3.265,3.265,0,0,1-2.635,1.13,3.36,3.36,0,0,1-1.865-.521,3.318,3.318,0,0,1-1.236-1.5,5.542,5.542,0,0,1-.429-2.252,4.688,4.688,0,0,1,.955-3.132,3.258,3.258,0,0,1,2.62-1.122,3.2,3.2,0,0,1,2.6,1.137A4.737,4.737,0,0,1,144.037-4.519Zm-6.35,0a4.243,4.243,0,0,0,.729,2.641,2.448,2.448,0,0,0,2.061.948,2.448,2.448,0,0,0,2.061-.948,4.243,4.243,0,0,0,.729-2.641,4.176,4.176,0,0,0-.736-2.637,2.481,2.481,0,0,0-2.069-.937,2.443,2.443,0,0,0-2.054.933A4.235,4.235,0,0,0,137.686-4.519Zm11.746-4.254a6.17,6.17,0,0,1,1.1.106l-.141.718a4.2,4.2,0,0,0-1.044-.128,2.014,2.014,0,0,0-1.687.892A3.688,3.688,0,0,0,147-4.935V-.4h-.733V-8.615h.622l.074,1.481h.052a3.463,3.463,0,0,1,1.058-1.273A2.44,2.44,0,0,1,149.432-8.774ZM162.214-.4V-5.789a2.724,2.724,0,0,0-.459-1.753,1.725,1.725,0,0,0-1.406-.552,2.27,2.27,0,0,0-1.828.7,3.327,3.327,0,0,0-.592,2.184V-.4h-.748V-6.016q0-2.078-1.865-2.078a2.177,2.177,0,0,0-1.843.752,3.979,3.979,0,0,0-.577,2.407V-.4h-.733V-8.615h.607l.155,1.126h.044a2.33,2.33,0,0,1,.947-.948,2.774,2.774,0,0,1,1.354-.336,2.309,2.309,0,0,1,2.442,1.458h.03A2.764,2.764,0,0,1,158.8-8.4a2.986,2.986,0,0,1,1.506-.378,2.552,2.552,0,0,1,1.976.718,3.306,3.306,0,0,1,.659,2.282V-.4Z" transform="translate(19652.061 1956.946)"/><path class="c" d="M0,0H14.815" transform="translate(19644.805 1943.593) rotate(90)"/></g></svg>