<svg xmlns="http://www.w3.org/2000/svg" viewBox="0 0 128.925 35">
    <defs>
        <style>.a{fill:#fff;}</style>
    </defs>
    <g transform="translate(-18.175 -15.475)">
        <g transform="translate(61.9 20.45)">
            <path class="a"
                  d="M61.9,26.761c.5-.2,1.1-.5,1.6-.693.6-.3,1.1-.594,1.7-.891a15.265,15.265,0,0,0,1.6-1.089A15.323,15.323,0,0,0,68.1,22.9H71V41.613H66.9V28.049a10.448,10.448,0,0,1-1.8.99,16.771,16.771,0,0,1-2,.792Z"
                  transform="translate(-61.9 -20.524)"/>
            <path class="a"
                  d="M90.1,32.1c0,3.168-.6,5.545-1.8,7.228a6.288,6.288,0,0,1-10,0c-1.2-1.683-1.8-4.059-1.8-7.228a16.938,16.938,0,0,1,.5-4.158,9.639,9.639,0,0,1,1.4-3.069,5.724,5.724,0,0,1,2.2-1.881,6.49,6.49,0,0,1,2.8-.693,5.8,5.8,0,0,1,5,2.475C89.6,26.458,90.1,29.033,90.1,32.1Zm-4.2,0a21.323,21.323,0,0,0-.1-2.574,9.9,9.9,0,0,0-.4-1.98,3.182,3.182,0,0,0-.8-1.287,1.912,1.912,0,0,0-1.3-.5,2.118,2.118,0,0,0-1.3.5,3.182,3.182,0,0,0-.8,1.287,5.808,5.808,0,0,0-.4,1.98,20.513,20.513,0,0,0-.1,2.574,20.513,20.513,0,0,0,.1,2.574,8.616,8.616,0,0,0,.4,1.98,3.182,3.182,0,0,0,.8,1.287,1.912,1.912,0,0,0,1.3.5,2.118,2.118,0,0,0,1.3-.5,3.182,3.182,0,0,0,.8-1.287,9.9,9.9,0,0,0,.4-1.98A19.726,19.726,0,0,0,85.9,32.1Z"
                  transform="translate(-61.9 -20.518)"/>
            <path class="a"
                  d="M105.9,24.88c.2.693.5,1.584.7,2.475.3.891.5,1.881.8,2.871l.9,2.97c.3.99.6,1.881.9,2.772.2-.891.5-1.881.7-2.97s.5-2.178.7-3.366.4-2.277.6-3.465.4-2.277.6-3.267h4.4c-.6,3.168-1.4,6.337-2.2,9.5-.8,3.267-1.7,6.238-2.7,9.208h-3.9c-.6-1.683-1.3-3.564-1.9-5.446s-1.2-3.762-1.8-5.743c-.6,1.881-1.2,3.762-1.7,5.743s-1.2,3.663-1.8,5.446H96.3q-1.5-4.307-2.7-9.208c-.8-3.267-1.6-6.436-2.2-9.5H96l.6,3.267c.2,1.188.4,2.277.7,3.465.2,1.188.5,2.277.7,3.366a21.3,21.3,0,0,0,.8,2.97c.3-.891.6-1.782,1-2.772l.9-2.97c.3-.99.6-1.98.8-2.871s.5-1.782.7-2.475Z"
                  transform="translate(-61.9 -20.524)"/>
            <path class="a"
                  d="M117.2,34.625a7.959,7.959,0,0,1,.6-3.267,8.083,8.083,0,0,1,1.5-2.376,6.364,6.364,0,0,1,2.2-1.386,7.483,7.483,0,0,1,2.5-.5,6.216,6.216,0,0,1,4.8,1.881,7.469,7.469,0,0,1,1.8,5.446v.792a2.16,2.16,0,0,1-.1.792h-9.2a2.8,2.8,0,0,0,1.2,1.98,4.69,4.69,0,0,0,2.8.693,16.511,16.511,0,0,0,2.2-.2,7.816,7.816,0,0,0,1.8-.5l.5,3.267a4.681,4.681,0,0,1-.9.3l-1.2.3a5.957,5.957,0,0,1-1.4.2,7.643,7.643,0,0,1-1.5.1,9.05,9.05,0,0,1-3.4-.594,6.746,6.746,0,0,1-2.4-1.584,6.267,6.267,0,0,1-1.4-2.376A10.126,10.126,0,0,1,117.2,34.625Zm9.5-1.584a3.487,3.487,0,0,0-.2-.99,4,4,0,0,0-.5-.891,1.554,1.554,0,0,0-.8-.594,2.184,2.184,0,0,0-1.2-.2,4.336,4.336,0,0,0-1.2.2,5.543,5.543,0,0,0-.8.594,2.589,2.589,0,0,0-.5.891c-.1.4-.2.693-.3.99Z"
                  transform="translate(-61.9 -20.565)"/>
            <path class="a"
                  d="M147.1,34.46a9.879,9.879,0,0,1-.5,3.069,6.011,6.011,0,0,1-1.5,2.376,5.745,5.745,0,0,1-2.3,1.485,10.327,10.327,0,0,1-3.2.5,7.643,7.643,0,0,1-1.5-.1c-.5-.1-1.1-.1-1.6-.2l-1.5-.3c-.5-.1-.9-.2-1.3-.3v-19.8l4.1-.693v7.03a7.159,7.159,0,0,1,3-.693,7.7,7.7,0,0,1,2.7.5,7.486,7.486,0,0,1,2,1.485,7.6,7.6,0,0,1,1.2,2.376A11.714,11.714,0,0,1,147.1,34.46Zm-4.1-.1c0-2.574-1-3.861-2.9-3.861a5.065,5.065,0,0,0-1.2.2,3.012,3.012,0,0,0-1,.4v7.327c.2,0,.5.1.8.1h1a3.118,3.118,0,0,0,2.5-1.089A6.1,6.1,0,0,0,143,34.361Z"
                  transform="translate(-61.9 -20.5)"/>
        </g>
        <g transform="translate(18.175 15.475)">
            <path class="a"
                  d="M23.6,27.381,35.4,15.7a.79.79,0,0,1,1.1,0l17,16.931a.771.771,0,0,1,0,1.089l-.1.1a3.647,3.647,0,0,1-5.1,0l-12-11.881a.79.79,0,0,0-1.1,0l-6.7,6.634a3.647,3.647,0,0,1-5.1,0A1.254,1.254,0,0,1,23.6,27.381Z"
                  transform="translate(-18.175 -15.475)"/>
            <path class="a"
                  d="M48.4,38.726,36.6,50.409a.79.79,0,0,1-1.1,0L18.4,33.479a.771.771,0,0,1,0-1.089h0a3.647,3.647,0,0,1,5.1,0L35.4,44.172a.79.79,0,0,0,1.1,0l6.7-6.634a3.647,3.647,0,0,1,5.1,0h0A.812.812,0,0,1,48.4,38.726Z"
                  transform="translate(-18.175 -15.632)"/>
            <path class="a"
                  d="M37.2,32.733l-2.9-2.871a2.262,2.262,0,0,1,0-3.069l.1-.1a2.132,2.132,0,0,1,3.1,0l6,5.941a.771.771,0,0,1,0,1.089l-5.8,5.743a2.132,2.132,0,0,1-3.1,0h0a2.082,2.082,0,0,1,0-3.069l2.7-2.673A.762.762,0,0,0,37.2,32.733Z"
                  transform="translate(-18.175 -15.579)"/>
            <path class="a"
                  d="M33.6,32.483l-1-.99a2.132,2.132,0,0,0-3.1,0h0a2.262,2.262,0,0,0,0,3.069h0a2.132,2.132,0,0,0,3.1,0l1-.99A.771.771,0,0,0,33.6,32.483Z"
                  transform="translate(-18.175 -15.627)"/>
        </g>
    </g>
</svg>