<svg xmlns="http://www.w3.org/2000/svg" width="150" height="41.129" viewBox="0 0 150 41.129">
  <g id="logo1" transform="translate(-18.175 -15.475)">
    <g id="Group_52510" data-name="Group 52510" transform="translate(69.048 21.321)">
      <path id="Path_104672" data-name="Path 104672" d="M61.9,27.438c.582-.233,1.28-.582,1.862-.814.7-.349,1.28-.7,1.978-1.047A17.751,17.751,0,0,0,67.6,24.3a17.893,17.893,0,0,0,1.513-1.4h3.374V44.89h-4.77V28.95a12.12,12.12,0,0,1-2.094,1.163,19.4,19.4,0,0,1-2.327.931Z" transform="translate(-61.9 -20.108)" fill="#323a45"/>
      <path id="Path_104673" data-name="Path 104673" d="M92.323,33.818c0,3.723-.7,6.515-2.094,8.493a7.272,7.272,0,0,1-11.635,0c-1.4-1.978-2.094-4.77-2.094-8.493a20.093,20.093,0,0,1,.582-4.887,11.38,11.38,0,0,1,1.629-3.607,6.678,6.678,0,0,1,2.56-2.211,7.491,7.491,0,0,1,3.258-.814,6.722,6.722,0,0,1,5.817,2.909C91.741,27.187,92.323,30.212,92.323,33.818Zm-4.887,0a25.306,25.306,0,0,0-.116-3.025,11.733,11.733,0,0,0-.465-2.327,3.745,3.745,0,0,0-.931-1.513,2.212,2.212,0,0,0-1.513-.582,2.45,2.45,0,0,0-1.513.582,3.745,3.745,0,0,0-.931,1.513,6.884,6.884,0,0,0-.465,2.327,24.344,24.344,0,0,0-.116,3.025,24.344,24.344,0,0,0,.116,3.025,10.212,10.212,0,0,0,.465,2.327,3.745,3.745,0,0,0,.931,1.513,2.212,2.212,0,0,0,1.513.582,2.45,2.45,0,0,0,1.513-.582,3.745,3.745,0,0,0,.931-1.513,11.734,11.734,0,0,0,.465-2.327A23.411,23.411,0,0,0,87.437,33.818Z" transform="translate(-59.513 -20.206)" fill="#323a45"/>
      <path id="Path_104674" data-name="Path 104674" d="M108.27,25.227c.233.814.582,1.862.814,2.909.349,1.047.582,2.211.931,3.374L111.063,35c.349,1.163.7,2.211,1.047,3.258.233-1.047.582-2.211.814-3.49s.582-2.56.814-3.956.465-2.676.7-4.072.465-2.676.7-3.839h5.119c-.7,3.723-1.629,7.446-2.56,11.169-.931,3.839-1.978,7.33-3.141,10.82h-4.538c-.7-1.978-1.513-4.188-2.211-6.4s-1.4-4.421-2.094-6.748c-.7,2.211-1.4,4.421-1.978,6.748s-1.4,4.3-2.094,6.4H97.1q-1.745-5.061-3.141-10.82C93.029,30.23,92.1,26.507,91.4,22.9h5.352l.7,3.839c.233,1.4.465,2.676.814,4.072.233,1.4.582,2.676.814,3.956a25.224,25.224,0,0,0,.931,3.49c.349-1.047.7-2.094,1.163-3.258l1.047-3.49c.349-1.163.7-2.327.931-3.374s.582-2.094.814-2.909Z" transform="translate(-57.078 -20.108)" fill="#323a45"/>
      <path id="Path_104675" data-name="Path 104675" d="M117.2,35.942a9.557,9.557,0,0,1,2.443-6.632,7.394,7.394,0,0,1,2.56-1.629,8.631,8.631,0,0,1,2.909-.582,7.194,7.194,0,0,1,5.585,2.211c1.4,1.4,2.094,3.607,2.094,6.4v.931a2.562,2.562,0,0,1-.116.931h-10.7a3.3,3.3,0,0,0,1.4,2.327,5.415,5.415,0,0,0,3.258.814,19.025,19.025,0,0,0,2.56-.233,9.023,9.023,0,0,0,2.094-.582l.582,3.839a5.41,5.41,0,0,1-1.047.349l-1.4.349a6.867,6.867,0,0,1-1.629.233,8.806,8.806,0,0,1-1.745.116,10.437,10.437,0,0,1-3.956-.7,7.843,7.843,0,0,1-2.792-1.862,7.381,7.381,0,0,1-1.629-2.792A12.01,12.01,0,0,1,117.2,35.942Zm11.053-1.862a4.134,4.134,0,0,0-.233-1.163,4.716,4.716,0,0,0-.582-1.047,1.809,1.809,0,0,0-.931-.7,2.519,2.519,0,0,0-1.4-.233,5,5,0,0,0-1.4.233,6.453,6.453,0,0,0-.931.7,3.05,3.05,0,0,0-.582,1.047c-.116.465-.233.814-.349,1.163Z" transform="translate(-52.86 -19.421)" fill="#323a45"/>
      <path id="Path_104676" data-name="Path 104676" d="M149.29,36.9a11.715,11.715,0,0,1-.582,3.607,7.074,7.074,0,0,1-1.745,2.792,6.678,6.678,0,0,1-2.676,1.745,11.906,11.906,0,0,1-3.723.582,8.806,8.806,0,0,1-1.745-.116c-.582-.116-1.28-.116-1.862-.233l-1.745-.349c-.582-.116-1.047-.233-1.513-.349V21.314l4.77-.814v8.261a8.261,8.261,0,0,1,3.49-.814,8.883,8.883,0,0,1,3.141.582,8.717,8.717,0,0,1,2.327,1.745,8.966,8.966,0,0,1,1.4,2.792A13.9,13.9,0,0,1,149.29,36.9Zm-4.77-.116c0-3.025-1.163-4.538-3.374-4.538a5.84,5.84,0,0,0-1.4.233,3.484,3.484,0,0,0-1.163.465v8.61c.233,0,.582.116.931.116h1.163a3.612,3.612,0,0,0,2.909-1.28A7.222,7.222,0,0,0,144.52,36.789Z" transform="translate(-50.163 -20.5)" fill="#323a45"/>
    </g>
    <g id="Group_52511" data-name="Group 52511" transform="translate(18.175 15.475)">
      <path id="Path_104677" data-name="Path 104677" d="M23.642,29.466,37.371,15.737a.913.913,0,0,1,1.28,0l19.779,19.9a.913.913,0,0,1,0,1.28l-.116.116a4.213,4.213,0,0,1-5.934,0L38.419,23.067a.913.913,0,0,0-1.28,0l-7.8,7.8a4.213,4.213,0,0,1-5.934,0A1.486,1.486,0,0,1,23.642,29.466Z" transform="translate(-17.331 -15.475)" fill="#323a45"/>
      <path id="Path_104678" data-name="Path 104678" d="M53.341,40.018,39.612,53.747a.913.913,0,0,1-1.28,0l-19.9-19.9a.913.913,0,0,1,0-1.28h0a4.213,4.213,0,0,1,5.934,0L38.216,46.417a.913.913,0,0,0,1.28,0l7.8-7.8a4.213,4.213,0,0,1,5.934,0h0A.961.961,0,0,1,53.341,40.018Z" transform="translate(-18.175 -12.88)" fill="#323a45"/>
      <path id="Path_104679" data-name="Path 104679" d="M37.772,33.907,34.4,30.533a2.677,2.677,0,0,1,0-3.607l.116-.116a2.463,2.463,0,0,1,3.607,0L45.1,33.791a.913.913,0,0,1,0,1.28l-6.748,6.748a2.463,2.463,0,0,1-3.607,0h0a2.463,2.463,0,0,1,0-3.607l3.141-3.141A.9.9,0,0,0,37.772,33.907Z" transform="translate(-15.637 -13.75)" fill="#323a45"/>
      <path id="Path_104680" data-name="Path 104680" d="M34.368,32.774,33.2,31.61a2.463,2.463,0,0,0-3.607,0h0a2.677,2.677,0,0,0,0,3.607h0a2.463,2.463,0,0,0,3.607,0l1.163-1.163A.913.913,0,0,0,34.368,32.774Z" transform="translate(-16.422 -12.966)" fill="#323a45"/>
    </g>
  </g>
</svg>
