<svg xmlns="http://www.w3.org/2000/svg" width="18" height="18" viewBox="0 0 18 18"><defs><style>.a{fill:none;}.b{fill:#fff;}</style></defs><g transform="translate(-10525 -1316)"><rect class="a" width="18" height="18" transform="translate(10525 1316)"/><g transform="translate(10525.501 1316.5)"><g transform="translate(0 0)"><path class="b" d="M78,114.949v-2.162a.187.187,0,0,1,.186-.186.169.169,0,0,1,.13.056l2.815,2.815a.2.2,0,0,1-.13.336H79.584a6.943,6.943,0,0,0,12,3.933.765.765,0,0,1,1.118,1.044,8.487,8.487,0,0,1-14.689-5.089A.14.14,0,0,1,78,115.6v-.578C78,114.986,78,114.967,78,114.949Z" transform="translate(-78 -106.505)"/><path class="b" d="M103.88,88.456v2.162a.187.187,0,0,1-.186.186.169.169,0,0,1-.13-.056l-2.815-2.815a.2.2,0,0,1,.13-.336H102.3a6.943,6.943,0,0,0-12-3.933.765.765,0,0,1-1.118-1.044,8.487,8.487,0,0,1,14.689,5.089.14.14,0,0,1,.019.093v.652Z" transform="translate(-86.917 -79.9)"/><g transform="translate(5.87 4.278)"><path class="b" d="M86.173.2a.426.426,0,0,0-.381-.2H83.747a.7.7,0,0,0-.6.373L80.974,4.8a.423.423,0,0,0,.011.419.444.444,0,0,0,.378.2l1.605.02L81.806,8.3a.371.371,0,0,0,.018.374.258.258,0,0,0,.21.109h.019a.387.387,0,0,0,.3-.173L86.1,3.969a.392.392,0,0,0,.07-.426.406.406,0,0,0-.382-.211H84.6L86.161.622A.412.412,0,0,0,86.173.2Z" transform="translate(-80.924 0)"/></g></g></g></g></svg>