<svg id="Close_Icon" xmlns="http://www.w3.org/2000/svg" xmlns:xlink="http://www.w3.org/1999/xlink" width="15" height="15" viewBox="0 0 15 15">
    <defs>
        <clipPath id="clip-path">
            <path id="Path_169840" data-name="Path 169840" d="M0,0H15V15H0Z" fill="none"/>
        </clipPath>
    </defs>
    <g id="Mask_Group_1282" data-name="Mask Group 1282" clip-path="url(#clip-path)">
        <path id="Path_169841" data-name="Path 169841" d="M773.9,5109.04l-3.654-3.656-3.655,3.656a1.514,1.514,0,0,1-2.586-1.068,1.521,1.521,0,0,1,.438-1.068l0,0,3.657-3.657-3.657-3.655a1.525,1.525,0,0,1,0-2.144l.01-.007a1.515,1.515,0,0,1,2.131,0l0,0,3.657,3.659,3.663-3.665a1.52,1.52,0,0,1,2.131,0l.01.007a1.528,1.528,0,0,1,0,2.143l-3.66,3.657,3.662,3.662a1.514,1.514,0,0,1,.438,1.068,1.518,1.518,0,0,1-1.514,1.512A1.5,1.5,0,0,1,773.9,5109.04Z" transform="translate(-762.743 -5095.744)" fill="rgba(50,58,69,0.3)"/>
    </g>
</svg>