<svg xmlns="http://www.w3.org/2000/svg" viewBox="-4775 251 18 18">
    <defs>
        <style>
            .cls-1 {
            fill: none;
            }

            .cls-2 {
            fill: #fff;
            }
        </style>
    </defs>
    <g id="Close" transform="translate(-5934 -218)">
        <rect id="Rectangle_2189" data-name="Rectangle 2189" class="cls-1" width="17.999" height="17.982"
              transform="translate(1159 469)"/>
        <path id="close-2" data-name="close" class="cls-2"
              d="M17.508,15.447,11.284,8.993l6.425-6.454A1.575,1.575,0,0,0,17.364.522a1.488,1.488,0,0,0-2.064,0L9.075,6.775,2.65.522a1.756,1.756,0,0,0-2.314,0,1.741,1.741,0,0,0,0,2.114L6.666,8.993.441,15.246a1.841,1.841,0,0,0-.2,2.219,1.819,1.819,0,0,0,1.406.605,1.53,1.53,0,0,0,1-.4l6.425-6.454L15.3,17.464a1.571,1.571,0,0,0,2.209,0A1.351,1.351,0,0,0,17.508,15.447Z"
              transform="translate(1159.039 468.931)"/>
    </g>
</svg>
