<svg xmlns="http://www.w3.org/2000/svg" xmlns:xlink="http://www.w3.org/1999/xlink" width="14" height="14" viewBox="0 0 14 14"><defs><style>.a{fill:#fff;}.b{clip-path:url(#a);}.c{fill:url(#b);}.d{fill:#343b46;}</style><clipPath id="a"><rect class="a" width="14" height="14" transform="translate(2005)"/></clipPath><linearGradient id="b" y1="0.5" x2="1.131" y2="0.5" gradientUnits="objectBoundingBox"><stop offset="0" stop-color="#fff"/><stop offset="1" stop-color="#fff" stop-opacity="0"/></linearGradient></defs><g class="b" transform="translate(-2005)"><path class="c" d="M7.326.6v9.886a.6.6,0,0,1-.6.6H.6a.6.6,0,0,1-.6-.6V.6A.6.6,0,0,1,.6,0H6.757A.6.6,0,0,1,7.326.6Z" transform="translate(2017.539 2.708) rotate(90)"/><path class="d" d="M.4,8.726a.4.4,0,0,1-.4-.4v-.6a.4.4,0,0,1,.4-.4H13.6a.4.4,0,0,1,.4.4v.6a.4.4,0,0,1-.4.4Zm1.655-1.4a.6.6,0,0,1-.6-.6V.6a.6.6,0,0,1,.6-.6H11.94a.6.6,0,0,1,.6.6V6.757a.6.6,0,0,1-.6.569Zm8.987-.869V.868H2.984V6.457Zm-8.058,0h-.03Z" transform="translate(2005 2.708)"/></g></svg>