<svg xmlns="http://www.w3.org/2000/svg" xmlns:xlink="http://www.w3.org/1999/xlink" width="160" height="160"
     viewBox="0 0 160 160">
    <defs>
        <filter id="Path_111685" x="0" y="0" width="160" height="160" filterUnits="userSpaceOnUse">
            <feOffset dy="5" input="SourceAlpha"/>
            <feGaussianBlur stdDeviation="10" result="blur"/>
            <feFlood flood-color="#e5e6e8" flood-opacity="0.8"/>
            <feComposite operator="in" in2="blur"/>
            <feComposite in="SourceGraphic"/>
        </filter>
    </defs>
    <g id="Group_64666" data-name="Group 64666" transform="translate(-202 -3813)">
        <g id="Group_59732" data-name="Group 59732" transform="translate(232 3838)">
            <g transform="matrix(1, 0, 0, 1, -30, -25)" filter="url(#Path_111685)">
                <path id="Path_111685-2" data-name="Path 111685"
                      d="M50,100c49.615,0,50-22.385,50-50S99.615,0,50,0,0,22.385,0,50,.385,100,50,100Z"
                      transform="translate(30 25)" fill="#fff"/>
            </g>
        </g>
        <g id="Group_59730" data-name="Group 59730" transform="translate(-695.193 24.691)">
            <path id="Path_104683" data-name="Path 104683"
                  d="M2.5,0h35A2.5,2.5,0,0,1,40,2.5V8.75a2.5,2.5,0,0,1-2.5,2.5H2.5A2.5,2.5,0,0,1,0,8.75V2.5A2.5,2.5,0,0,1,2.5,0Z"
                  transform="translate(957.194 3844.309)" fill="#4b7efc"/>
            <path id="Path_104684" data-name="Path 104684"
                  d="M2.5,0h35A2.5,2.5,0,0,1,40,2.5V8.75a2.5,2.5,0,0,1-2.5,2.5H2.5A2.5,2.5,0,0,1,0,8.75V2.5A2.5,2.5,0,0,1,2.5,0Z"
                  transform="translate(957.194 3858.059)" fill="#4b7efc"/>
            <path id="Path_104685" data-name="Path 104685"
                  d="M2.5,0h35A2.5,2.5,0,0,1,40,2.5V8.75a2.5,2.5,0,0,1-2.5,2.5H2.5A2.5,2.5,0,0,1,0,8.75V2.5A2.5,2.5,0,0,1,2.5,0Z"
                  transform="translate(957.195 3871.806)" fill="#4b7efc"/>
            <path id="Path_111045" data-name="Path 111045"
                  d="M1.875,0A1.875,1.875,0,1,1,0,1.875,1.875,1.875,0,0,1,1.875,0Z"
                  transform="translate(989.694 3848.058)" fill="#f8c332"/>
            <path id="Path_111044" data-name="Path 111044"
                  d="M1.875,0A1.875,1.875,0,1,1,0,1.875,1.875,1.875,0,0,1,1.875,0Z"
                  transform="translate(989.694 3861.807)" fill="#f8c332"/>
            <path id="Path_111043" data-name="Path 111043"
                  d="M1.875,0A1.875,1.875,0,1,1,0,1.875,1.875,1.875,0,0,1,1.875,0Z"
                  transform="translate(989.695 3875.558)" fill="#f8c332"/>
        </g>
        <circle id="Ellipse_10469" data-name="Ellipse 10469" cx="14.113" cy="14.113" r="14.113"
                transform="translate(287.5 3892.5)" fill="#f8c332" stroke="#fff" stroke-width="4"/>
        <g id="upload-to-cloud-button" transform="translate(294.1 3798.6)">
            <g id="cloud-upload" transform="translate(0 102)">
                <path id="Path_113569" data-name="Path 113569"
                      d="M12.125,105.75A4.7,4.7,0,0,0,7.5,102a4.572,4.572,0,0,0-4.125,2.5A3.76,3.76,0,0,0,3.75,112h8.125A3.1,3.1,0,0,0,15,108.875,3.181,3.181,0,0,0,12.125,105.75Z"
                      transform="translate(0 -102)" fill="#fff"/>
            </g>
        </g>
    </g>
</svg>
