<svg xmlns="http://www.w3.org/2000/svg" width="18" height="18" viewBox="0 0 18 18"><defs><style>.a{fill:none;}.b{fill:#323a45;}</style></defs><g transform="translate(-546 -3441)"><g transform="translate(594.7 3440.5)"><rect class="a" width="18" height="18" transform="translate(-48.7 0.5)"/><path class="b" d="M-39.8.5a8.927,8.927,0,0,0-8.9,9,9.013,9.013,0,0,0,9,9,8.948,8.948,0,0,0,9-9A9.236,9.236,0,0,0-39.8.5Zm0,16.773h0A7.769,7.769,0,0,1-47.575,9.5,7.769,7.769,0,0,1-39.8,1.727,7.769,7.769,0,0,1-32.03,9.5,7.835,7.835,0,0,1-39.8,17.273Z"/><g transform="translate(-40.903 4.597)"><circle class="b" cx="1.1" cy="1.1" r="1.1"/><path class="b" d="M-40,7.9a.9.9,0,0,0-.9.9v4.5a.817.817,0,0,0,.9.8.882.882,0,0,0,.9-.8V8.7A.817.817,0,0,0-40,7.9Z" transform="translate(41.1 -4.4)"/></g></g></g></svg>