<svg xmlns="http://www.w3.org/2000/svg" xmlns:xlink="http://www.w3.org/1999/xlink" width="14" height="14" viewBox="0 0 14 14"><defs><style>.a{fill:#fff;}.b{clip-path:url(#a);}.c{fill:url(#b);}.d{fill:#343b46;}</style><clipPath id="a"><rect class="a" width="14" height="14"/></clipPath><linearGradient id="b" x1="0.5" x2="0.5" y2="1" gradientUnits="objectBoundingBox"><stop offset="0" stop-color="#fff"/><stop offset="1" stop-color="#fff" stop-opacity="0"/></linearGradient></defs><g class="b"><path class="c" d="M25.863,12.131V22.536a.632.632,0,0,1-.631.631h-5.8a.632.632,0,0,1-.631-.631V12.131a.632.632,0,0,1,.631-.631h5.833A.627.627,0,0,1,25.863,12.131Z" transform="translate(-15.3 -10.333)"/><path class="d" d="M25.863,12.131V22.536a.632.632,0,0,1-.631.631h-5.8a.632.632,0,0,1-.631-.631V12.131a.632.632,0,0,1,.631-.631h5.833A.627.627,0,0,1,25.863,12.131Zm-.914,9.459V13.077H19.714v8.482h5.234Z" transform="translate(-15.3 -10.333)"/></g></svg>