<svg xmlns="http://www.w3.org/2000/svg" xmlns:xlink="http://www.w3.org/1999/xlink" width="160" height="160"
     viewBox="0 0 160 160">
    <defs>
        <filter id="Path_111685" x="0" y="0" width="160" height="160" filterUnits="userSpaceOnUse">
            <feOffset dy="5" input="SourceAlpha"/>
            <feGaussianBlur stdDeviation="10" result="blur"/>
            <feFlood flood-color="#e5e6e8" flood-opacity="0.8"/>
            <feComposite operator="in" in2="blur"/>
            <feComposite in="SourceGraphic"/>
        </filter>
    </defs>
    <g id="Group_64665" data-name="Group 64665" transform="translate(-202 -3983)">
        <g id="Group_59733" data-name="Group 59733" transform="translate(232 4008)">
            <g transform="matrix(1, 0, 0, 1, -30, -25)" filter="url(#Path_111685)">
                <path id="Path_111685-2" data-name="Path 111685"
                      d="M50,100c49.615,0,50-22.385,50-50S99.615,0,50,0,0,22.385,0,50,.385,100,50,100Z"
                      transform="translate(30 25)" fill="#fff"/>
            </g>
        </g>
        <g id="Group_59737" data-name="Group 59737" transform="translate(11 176)">
            <g id="Group_56211" data-name="Group 56211" transform="translate(-133 870)">
                <path id="Rectangle_2060" data-name="Rectangle 2060" d="M0,0H47.971V48H0Z"
                      transform="translate(379.029 2990)" fill="none"/>
                <path id="Union_48" data-name="Union 48"
                      d="M-12012.207-147.383a5.61,5.61,0,0,1-1.652-4,5.59,5.59,0,0,1,1.646-4l3.01-3.007a2.136,2.136,0,0,0,.619-1.512,2.135,2.135,0,0,0-.617-1.512,2.133,2.133,0,0,0-1.514-.63,2.132,2.132,0,0,0-1.512.629l-3.008,3.009a5.628,5.628,0,0,1-4,1.653,5.649,5.649,0,0,1-4-1.654l-4.217-4.218a11.174,11.174,0,0,1-6.639,2.163,11.253,11.253,0,0,1-8-3.308l-4.852-4.855-.533.533a1.731,1.731,0,0,1-1.242.533,1.737,1.737,0,0,1-1.24-.535,1.775,1.775,0,0,1-.514-1.247,1.783,1.783,0,0,1,.516-1.243l3.451-3.467-6-5.995a1.753,1.753,0,0,1-.514-1.248,1.738,1.738,0,0,1,.514-1.243,1.775,1.775,0,0,1,2.5,0l5.99,5.995,5.145-5.155-5.99-5.995a1.773,1.773,0,0,1-.516-1.248,1.754,1.754,0,0,1,.518-1.243,1.774,1.774,0,0,1,2.5,0l5.986,5.994,3.453-3.467a1.768,1.768,0,0,1,1.264-.515,1.758,1.758,0,0,1,1.254.514,1.782,1.782,0,0,1,0,2.5h-.023l-.5.493q2.438,2.432,4.869,4.864a11.238,11.238,0,0,1,3.311,7.987,11.219,11.219,0,0,1-2.168,6.667l-.023.024.266.267,3.939,3.96a2.142,2.142,0,0,0,1.508.624,2.147,2.147,0,0,0,1.516-.624l3-3.008a5.623,5.623,0,0,1,4-1.659,5.635,5.635,0,0,1,4,1.659,5.663,5.663,0,0,1,1.654,4,5.654,5.654,0,0,1-1.656,4l-3.012,3.009a2.131,2.131,0,0,0-.621,1.5,2.148,2.148,0,0,0,.621,1.509,1.781,1.781,0,0,1,.539,1.256,1.754,1.754,0,0,1-.539,1.245,1.746,1.746,0,0,1-1.24.517,1.776,1.776,0,0,1-1.242-.522Z"
                      transform="translate(12432.01 3182.575)" fill="#4786ff"/>
            </g>
        </g>
        <circle id="Ellipse_10471" data-name="Ellipse 10471" cx="14.113" cy="14.113" r="14.113"
                transform="translate(278.5 4031.5)" fill="#f8c332" stroke="#fff" stroke-width="4"/>
        <path id="Path_113570" data-name="Path 113570"
              d="M.914,13.74a5.141,5.141,0,0,1,.975-3.434A3.654,3.654,0,0,1,4.81,9.179a5.3,5.3,0,0,1,1.042.08v1.313a4.257,4.257,0,0,0-.936-.106,3.212,3.212,0,0,0-1.379.255,1.716,1.716,0,0,0-.8.755,3.466,3.466,0,0,0-.314,1.419h.069a1.8,1.8,0,0,1,1.685-.9,2.086,2.086,0,0,1,1.632.654,2.6,2.6,0,0,1,.59,1.807,2.713,2.713,0,0,1-.7,1.969,2.58,2.58,0,0,1-1.946.726,2.783,2.783,0,0,1-1.5-.4,2.59,2.59,0,0,1-.989-1.164A4.433,4.433,0,0,1,.914,13.74Zm2.807,2.094a.973.973,0,0,0,.808-.353,1.582,1.582,0,0,0,.282-1.007,1.39,1.39,0,0,0-.263-.9.959.959,0,0,0-.795-.327,1.217,1.217,0,0,0-.853.324,1,1,0,0,0-.353.755A1.711,1.711,0,0,0,2.878,15.4,1.018,1.018,0,0,0,3.721,15.835Zm8.94-2.679a5.417,5.417,0,0,1-.667,3.014,2.315,2.315,0,0,1-2.054.978,2.288,2.288,0,0,1-2.028-1.01,5.34,5.34,0,0,1-.683-2.982,5.469,5.469,0,0,1,.664-3.033,2.3,2.3,0,0,1,2.047-.975,2.294,2.294,0,0,1,2.033,1.021A5.351,5.351,0,0,1,12.661,13.155Zm-3.8,0A6.046,6.046,0,0,0,9.108,15.2a.856.856,0,0,0,.832.619.865.865,0,0,0,.829-.627,5.879,5.879,0,0,0,.255-2.041,5.862,5.862,0,0,0-.258-2.054.861.861,0,0,0-1.656,0A6.036,6.036,0,0,0,8.86,13.155Zm6.8.633H13.607V12.624h2.057V10.551h1.164v2.073h2.057v1.164H16.828v2.047H15.664Z"
              transform="translate(283.086 4032.853)" fill="#fff" stroke="#fff" stroke-width="0.5"/>
    </g>
</svg>
