<svg xmlns="http://www.w3.org/2000/svg" xmlns:xlink="http://www.w3.org/1999/xlink" width="263.832" height="91.428"
     viewBox="0 0 263.832 91.428">
    <defs>
        <filter id="Path_107354" x="35" y="0" width="184.694" height="91.428" filterUnits="userSpaceOnUse">
            <feOffset dy="5" input="SourceAlpha"/>
            <feGaussianBlur stdDeviation="10" result="blur"/>
            <feFlood flood-color="#6454f0" flood-opacity="0"/>
            <feComposite operator="in" in2="blur"/>
            <feComposite in="SourceGraphic"/>
        </filter>
        <linearGradient id="linear-gradient" x1="0.752" y1="0.036" x2="0.457" y2="1" gradientUnits="objectBoundingBox">
            <stop offset="0" stop-color="#fff" stop-opacity="0.588"/>
            <stop offset="1" stop-color="#fff"/>
        </linearGradient>
    </defs>
    <g id="Group_67978" data-name="Group 67978" transform="translate(-828 -4339)">
        <g id="Group_59601" data-name="Group 59601" transform="translate(95.832 200.48)">
            <g transform="matrix(1, 0, 0, 1, 732.17, 4138.52)" filter="url(#Path_107354)">
                <path id="Path_107354-2" data-name="Path 107354"
                      d="M-189.039-85.641q1.158-.477,2.415-1.094t2.455-1.353q1.2-.736,2.3-1.552A15.738,15.738,0,0,0-179.9-91.37h4.151V-63.8h-5.947V-83.652a18.126,18.126,0,0,1-2.674,1.452q-1.477.656-2.874,1.134Zm41.192,8q0,6.962-2.654,10.682a8.506,8.506,0,0,1-7.324,3.72,8.506,8.506,0,0,1-7.324-3.72q-2.654-3.72-2.654-10.682a24.263,24.263,0,0,1,.7-6.127,13.469,13.469,0,0,1,2.016-4.5,8.974,8.974,0,0,1,3.153-2.785,8.776,8.776,0,0,1,4.111-.955,8.506,8.506,0,0,1,7.324,3.72Q-147.847-84.567-147.847-77.645Zm-6.067,0a32.256,32.256,0,0,0-.2-3.759,13.49,13.49,0,0,0-.639-2.924,4.536,4.536,0,0,0-1.2-1.91,2.716,2.716,0,0,0-1.876-.676,2.643,2.643,0,0,0-1.856.676,4.812,4.812,0,0,0-1.2,1.91,12.692,12.692,0,0,0-.659,2.924,32.263,32.263,0,0,0-.2,3.759,32.785,32.785,0,0,0,.2,3.779,12.717,12.717,0,0,0,.659,2.944,4.812,4.812,0,0,0,1.2,1.91,2.643,2.643,0,0,0,1.856.676,2.716,2.716,0,0,0,1.876-.676,4.536,4.536,0,0,0,1.2-1.91,13.512,13.512,0,0,0,.639-2.944A32.778,32.778,0,0,0-153.914-77.645Zm29.206-10.781q.478,1.631,1.056,3.68t1.235,4.237q.657,2.188,1.335,4.376t1.315,4.058q.521-2.029,1.063-4.416t1.023-4.933q.481-2.546.942-5.072t.862-4.873h6.468q-1.405,6.922-3.232,14.043T-116.6-63.8h-5.7q-1.395-3.819-2.709-8.016t-2.589-8.414q-1.279,4.217-2.557,8.414t-2.678,8.016h-5.691q-2.125-6.4-3.948-13.526t-3.227-14.043h6.746q.4,2.347.882,4.873t1,5.072q.521,2.546,1.063,4.933t1.1,4.416q.72-1.949,1.4-4.137t1.32-4.376q.64-2.188,1.18-4.217t.979-3.62ZM-108.172-74.1a12.76,12.76,0,0,1,.858-4.873,10.445,10.445,0,0,1,2.255-3.481,9.384,9.384,0,0,1,3.213-2.108,10.09,10.09,0,0,1,3.732-.716,9.291,9.291,0,0,1,7.065,2.725q2.594,2.725,2.594,8.016,0,.517-.04,1.134t-.08,1.094h-13.491a3.937,3.937,0,0,0,1.716,2.9,6.916,6.916,0,0,0,4.071,1.074,17.242,17.242,0,0,0,3.213-.3,12.16,12.16,0,0,0,2.575-.736l.8,4.814a8.232,8.232,0,0,1-1.277.477,16.757,16.757,0,0,1-1.776.418q-.978.179-2.1.3a21.037,21.037,0,0,1-2.235.119A13.271,13.271,0,0,1-102-64.079a9.6,9.6,0,0,1-3.473-2.288,9.072,9.072,0,0,1-2.036-3.441A13.59,13.59,0,0,1-108.172-74.1Zm13.97-2.268a6.1,6.1,0,0,0-.259-1.472,3.671,3.671,0,0,0-.679-1.273,3.611,3.611,0,0,0-1.158-.915,3.782,3.782,0,0,0-1.736-.358,4,4,0,0,0-1.716.338,3.546,3.546,0,0,0-1.2.9,4,4,0,0,0-.738,1.293,8.46,8.46,0,0,0-.379,1.492Zm23.789,1.949q0-5.729-4.231-5.729a7.042,7.042,0,0,0-1.816.239,5.177,5.177,0,0,0-1.457.6v10.781q.439.08,1.118.139t1.477.06a4.279,4.279,0,0,0,3.672-1.671A7.245,7.245,0,0,0-70.412-74.423Zm6.067.159a13.187,13.187,0,0,1-.738,4.535,9.569,9.569,0,0,1-2.135,3.461,9.387,9.387,0,0,1-3.433,2.208,12.934,12.934,0,0,1-4.63.776q-1.078,0-2.255-.1t-2.315-.259q-1.138-.159-2.175-.378t-1.836-.457v-29.24l5.947-.955v10.423a11.169,11.169,0,0,1,2.076-.676,10.693,10.693,0,0,1,2.315-.239,9.5,9.5,0,0,1,3.952.776A7.735,7.735,0,0,1-66.7-82.18a9.9,9.9,0,0,1,1.756,3.441A15.641,15.641,0,0,1-64.345-74.264Z"
                      transform="translate(254.04 119.67)" fill="#fff"/>
            </g>
            <path id="Path_107356" data-name="Path 107356"
                  d="M-99.866-71.366q.077-.038.039-.1t.039-.135a.709.709,0,0,1,.135-.173,1.386,1.386,0,0,0,.174-.212,1.643,1.643,0,0,1,.212-.385.713.713,0,0,1,.29-.192,1.414,1.414,0,0,1-.193.289,2.4,2.4,0,0,0-.232.327q-.077.192-.154.346A.5.5,0,0,1-99.866-71.366Zm-.965,1.616q.154,0,.039.115l-.077.077q-.116-.038-.019-.077T-100.831-69.75Zm-1.853,3.194q.077,0,.077.058t.077.058q-.077.269-.232.308a.631.631,0,0,0,.039-.192A1.048,1.048,0,0,1-102.684-66.556Zm-.27,1.847q0,.231-.154.269a.381.381,0,0,1-.039-.173Q-103.147-64.709-102.954-64.709Zm-1.814.885q.116.038.039.115t-.077.115q-.116-.038-.039-.115T-104.769-63.824Zm24.36,3.271q.116,0,.193.154t-.116.577q-.077.154-.212.519a2.374,2.374,0,0,1-.483.75l-.29.289a.157.157,0,0,0-.058.1q0,.038-.077.1t-.386.25q-.077.077-.251.289a1.206,1.206,0,0,0-.212.327,2.621,2.621,0,0,1-.328.442,1.385,1.385,0,0,1-.309.231q-.174.1-.367.212a2.589,2.589,0,0,0-.463.385,3.975,3.975,0,0,0-.5.423,3.026,3.026,0,0,0-.425.539.2.2,0,0,1-.174.135.6.6,0,0,0-.251.1,1.513,1.513,0,0,0-.212.269,1,1,0,0,1-.251.269,4.893,4.893,0,0,1-.405.308,3.214,3.214,0,0,0-.309.231,3.214,3.214,0,0,1-.309.231,4.894,4.894,0,0,0-.405.308q-.27.269-.444.423t-.347.289a2.852,2.852,0,0,1-.386.25l-.56.308q-.656.308-1.139.6a8.482,8.482,0,0,1-1.023.519,1.418,1.418,0,0,1-.27.058.212.212,0,0,0-.193.173q-.154.038-.116-.058t-.039-.1a.6.6,0,0,1-.135.308q-.135.192-.212.154a.235.235,0,0,1,.058-.173.106.106,0,0,0,.019-.135,3.212,3.212,0,0,0-.367.173,3.212,3.212,0,0,1-.367.173q.039.115.116.038a.223.223,0,0,1,.154-.077q-.039.192-.309.269a.17.17,0,0,1,.019-.077.267.267,0,0,0,.019-.115,3.377,3.377,0,0,1-.83.327,4.575,4.575,0,0,0-.83.289,1.438,1.438,0,0,1-.251.058q-.135.019-.174-.019-.193-.077-.193.019t-.116.135a2.186,2.186,0,0,0-.579,0q-.27.038-.579.077a2.805,2.805,0,0,1-.656,0q-.347-.038-.656-.077l-1.313-.231a4.362,4.362,0,0,1-1.2-.385,5.114,5.114,0,0,1-.6-.308,3.231,3.231,0,0,0-.56-.269.617.617,0,0,0-.212-.192,2.66,2.66,0,0,0-.328-.154,2.392,2.392,0,0,0-.367-.115.577.577,0,0,1-.29-.154.138.138,0,0,1-.077-.135.239.239,0,0,0-.077-.173.671.671,0,0,0-.212-.135.8.8,0,0,1-.251-.173.487.487,0,0,1-.116-.231,1.5,1.5,0,0,0-.116-.308.9.9,0,0,0-.193-.308.9.9,0,0,1-.193-.308,5.756,5.756,0,0,1-1.12-2.078,4.08,4.08,0,0,1-.193-.558,3.153,3.153,0,0,0-.232-.6q-.039-.077-.1-.173a.332.332,0,0,1,.019-.289.764.764,0,0,0-.116-.462.568.568,0,0,1-.154-.5,1.016,1.016,0,0,0-.039-.5q-.039-.308-.058-.673a3.81,3.81,0,0,1,.019-.673q0-.231.019-.481a1.626,1.626,0,0,0-.019-.443.44.44,0,0,0-.039-.135q-.039-.1-.077-.173a.589.589,0,0,0-.077-.231.272.272,0,0,1-.039-.231q.039-.115.135-.1t.1-.058q.154,0,.135.135a.235.235,0,0,0,.058.212,3.551,3.551,0,0,0,.116-.423q.039-.192.077-.423-.039-.115-.077-.019t-.116.019v-.616a1.362,1.362,0,0,0-.077-.5,1.3,1.3,0,0,1,.463-.269h.077a.548.548,0,0,0,.174-.327,3.3,3.3,0,0,0,.019-.366.852.852,0,0,0-.135-.423q-.135-.231-.058-.346a2.728,2.728,0,0,1,.154-.25q.116-.173.232-.135a.632.632,0,0,1,.347.5.534.534,0,0,0,.212-.385.534.534,0,0,1,.212-.385.375.375,0,0,1-.077.269.528.528,0,0,0-.116.269q.116,0,.077-.077t.116,0a1.5,1.5,0,0,0-.174.462,2.872,2.872,0,0,1-.135.462.371.371,0,0,1,.019-.346,1.02,1.02,0,0,0,.1-.462.629.629,0,0,0-.193.462q-.077.077-.077.1t-.154-.019a.647.647,0,0,1-.116.366,1.987,1.987,0,0,0-.193.366.621.621,0,0,0,.019.346.622.622,0,0,1,.019.346,5.127,5.127,0,0,1-.135.5.432.432,0,0,0,.058.462q.154.077.039.25t-.039.289a.77.77,0,0,0,.232-.693,1.962,1.962,0,0,0-.039-.289.238.238,0,0,1,.116-.289.384.384,0,0,1,.077.327,1.313,1.313,0,0,0-.039.25q.309,0,.328-.212a3.813,3.813,0,0,1,.058-.4.473.473,0,0,1,.077-.269,2.513,2.513,0,0,0,.154-.269.488.488,0,0,0,.135-.308q.019-.192.019-.385a.425.425,0,0,0,.251-.327,1.846,1.846,0,0,1,.135-.4.912.912,0,0,0,.135-.366,1.4,1.4,0,0,1,.1-.366l.54-.847a2.369,2.369,0,0,0,.347-.923q-.193-.038-.27.269a1.487,1.487,0,0,1-.154.423.5.5,0,0,1,0-.385,1.027,1.027,0,0,0,.077-.385.249.249,0,0,0-.193,0q-.116.038-.154.231-.077-.077.039-.231t-.077-.231a.8.8,0,0,0,.174-.25.212.212,0,0,1,.212-.135.222.222,0,0,1-.039.154.222.222,0,0,0-.039.154,2.81,2.81,0,0,0,.193-.289.375.375,0,0,1,.27-.173q.116.231-.058.269t-.174.269q.154.038.135-.077t.1-.077v.154q.232-.038.135-.212t.1-.25a1.134,1.134,0,0,0,.386-.443q.116-.25.232-.481.347-.654.656-1.27t.695-1.27a1.445,1.445,0,0,0-.463.577,5.264,5.264,0,0,1-.347.654.149.149,0,0,1-.039-.173.512.512,0,0,1,.116-.173q-.077-.077-.116,0a.076.076,0,0,1-.116.038,2.69,2.69,0,0,1,.193-.385,1.207,1.207,0,0,0,.154-.385.623.623,0,0,0,.463-.308.656.656,0,0,0,.1-.212q.058-.173.1-.173a.327.327,0,0,0,.232-.346q.116-.192.174-.115a1.448,1.448,0,0,0,.135.154.168.168,0,0,0,.077-.25.365.365,0,0,1,0-.327q.077-.038.1.038t.058.077a1.263,1.263,0,0,0,.154-.192,1.26,1.26,0,0,1,.154-.192,1.4,1.4,0,0,1,.251-.366,4.006,4.006,0,0,1,.328-.289.95.95,0,0,0,.328-.346,3.4,3.4,0,0,1,.328-.462.594.594,0,0,0,.193-.327.376.376,0,0,1,.309-.289.448.448,0,0,0-.328.135,1.693,1.693,0,0,1-.251.212,5.415,5.415,0,0,0-.656.693.478.478,0,0,1,.154-.346,1.871,1.871,0,0,1,.27-.231l.116-.346a3.7,3.7,0,0,0,.425-.308q.309-.346.579-.693a3.949,3.949,0,0,1,.656-.654,1.043,1.043,0,0,0,.29-.346.741.741,0,0,1,.29-.308,4.566,4.566,0,0,1,.907-.693q.521-.308.984-.539a1.066,1.066,0,0,0,.212-.058q.174-.058.1-.135-.039-.038-.1,0t.019-.038a1.694,1.694,0,0,1,.888-.423,2.427,2.427,0,0,0,.405-.25,1.3,1.3,0,0,1,.483-.212q.541-.192,1.023-.385a6.069,6.069,0,0,1,1.062-.308,4.863,4.863,0,0,1,.849-.1,9.541,9.541,0,0,1,1.042.019,6.318,6.318,0,0,1,1.081.173,4.9,4.9,0,0,1,1,.366,7.933,7.933,0,0,1,1.371,1.077,8.593,8.593,0,0,1,.984,1.27A5.663,5.663,0,0,1-82.3-75.56a7.579,7.579,0,0,1,.116,2.039,12.467,12.467,0,0,1-.309,1.962,15.6,15.6,0,0,1-.618,1.962,1.579,1.579,0,0,1-.328.577.416.416,0,0,1-.56.038,2.98,2.98,0,0,1-.347-.154,4.952,4.952,0,0,1-.444-.25,1.085,1.085,0,0,1-.328-.308.317.317,0,0,1,0-.366A2.1,2.1,0,0,0-84.732-71a6.465,6.465,0,0,0,.077-.943q0-.539-.039-1.116a8.869,8.869,0,0,0-.154-1.154,2.472,2.472,0,0,0-.135-.481,2.766,2.766,0,0,1-.135-.443q-.039-.192-.058-.327a.951.951,0,0,0-.1-.289,1.134,1.134,0,0,0-.232-.289,1.022,1.022,0,0,1-.232-.327,2.962,2.962,0,0,0-.154-.346.793.793,0,0,0-.232-.308.641.641,0,0,1-.425-.616.25.25,0,0,0-.135-.231,1.419,1.419,0,0,0-.251-.115,1.128,1.128,0,0,0-.965-.058,7.065,7.065,0,0,0-1,.327q-.656.346-1.506.885a10.676,10.676,0,0,0-1.621,1.27q-.772.77-1.564,1.6a15.62,15.62,0,0,0-1.448,1.751,8.25,8.25,0,0,1-.6,1.116,4.344,4.344,0,0,0-.56,1.347.921.921,0,0,1-.27.443.936.936,0,0,0-.27.4,5.564,5.564,0,0,1-.444.962,10.3,10.3,0,0,0-.483.923q-.077.308-.116.519t-.077.4a.946.946,0,0,1-.135.519.946.946,0,0,0-.135.519,5.783,5.783,0,0,1-.328.827q-.212.442-.367.866a.612.612,0,0,0-.077.4,2.326,2.326,0,0,1,.039.481,1.658,1.658,0,0,1-.135.635q-.135.327-.251.558-.077.192-.154.4a.886.886,0,0,0,0,.519,1.966,1.966,0,0,1,.077.77,10.056,10.056,0,0,0-.154,1.251,8.91,8.91,0,0,0,0,1.174,5.551,5.551,0,0,0,.29,1.808,2.153,2.153,0,0,0,1.177,1.27,6.416,6.416,0,0,0,2.008.75,7.742,7.742,0,0,0,2.085.135,9.583,9.583,0,0,0,2.471-.462,1.887,1.887,0,0,0,.193-.115.376.376,0,0,1,.193-.077.379.379,0,0,1,.309-.019.383.383,0,0,0,.27.019q.27-.038.27-.019t.27-.058a3.292,3.292,0,0,1,.772-.308,2.855,2.855,0,0,0,.772-.346q.232-.154.367-.231t.251-.135q.116-.058.251-.115a4.456,4.456,0,0,0,.405-.212.61.61,0,0,1,.212-.1.284.284,0,0,0,.174-.135.9.9,0,0,0,.174-.231.733.733,0,0,1,.135-.192,2.465,2.465,0,0,1,.483-.25,2.374,2.374,0,0,0,.521-.289,4.891,4.891,0,0,1,.405-.308,2.806,2.806,0,0,0,.405-.346,3.718,3.718,0,0,1,.386-.289q.154-.1.328-.192a4.211,4.211,0,0,0,.367-.231,3.676,3.676,0,0,0,.463-.4,2.339,2.339,0,0,0,.54-.462,3.924,3.924,0,0,1,.463-.462q.309-.269.54-.443a3.409,3.409,0,0,0,.5-.481.793.793,0,0,1,.367-.25A.383.383,0,0,0-80.408-60.554Zm-24.669-1.424q.154.038.154-.115a.178.178,0,0,0-.116-.192.236.236,0,0,1-.039.135A.2.2,0,0,0-105.078-61.977Zm.193,2.078a.282.282,0,0,1-.058-.212q.019-.1-.1-.173v.25Q-105.039-59.9-104.885-59.9Zm0,.154a.563.563,0,0,0,.039.212q.039.1.077.173,0,.077-.058.058t-.058.058q0,.192.019.442a.437.437,0,0,0,.212.366,2.6,2.6,0,0,1,.116-.789,1.32,1.32,0,0,0-.039-.827h-.039a.339.339,0,0,1-.135.135A.307.307,0,0,0-104.885-59.746Zm-.386,1.231q.077-.192.1-.019t.1.173a.341.341,0,0,1,.039-.154.346.346,0,0,0,0-.231,1.138,1.138,0,0,0-.27-.038.156.156,0,0,0-.039.115Q-105.348-58.514-105.271-58.514Zm4.169-10.658a1.048,1.048,0,0,0-.27.462.7.7,0,0,1-.347.423A2.487,2.487,0,0,1-101.1-69.173Zm-2.934,6.426a.506.506,0,0,1,.019-.308,2.823,2.823,0,0,0,.1-.308q.077,0-.019.231A1.044,1.044,0,0,0-104.035-62.747ZM-62.8-60.323a1.107,1.107,0,0,1-.1.423,4.531,4.531,0,0,1-.251.5,4.81,4.81,0,0,1-.328.5q-.174.231-.251.346a6.427,6.427,0,0,1-.811,1.077,6.8,6.8,0,0,1-1.12,1.039,1.893,1.893,0,0,0-.232.289.888.888,0,0,1-.232.25.848.848,0,0,0-.328.231.957.957,0,0,1-.29.231l-.232.173a2.5,2.5,0,0,0-.232.212.313.313,0,0,1-.193.019.209.209,0,0,0-.193.058.309.309,0,0,0-.039.135.13.13,0,0,1-.039.1,5.213,5.213,0,0,1-2.2,1.1,13.684,13.684,0,0,1-1.737.25,12.581,12.581,0,0,1-2.374-.192,3.746,3.746,0,0,1-1.621-.693,3.074,3.074,0,0,1-.965-1.366,6.761,6.761,0,0,1-.367-2.174q-.193-.192-.328,0a1.342,1.342,0,0,1-.29.308q-.154.231-.425.577t-.6.693a6.459,6.459,0,0,1-.695.635,1.426,1.426,0,0,1-.714.327,2.45,2.45,0,0,1-1.139-.135q-.637-.212-1.177-.4a1.784,1.784,0,0,1-.753-.616q-.212-.346-.521-.885a.743.743,0,0,0,.116-.558q-.039-.366.232-.4.077-.231-.039-.308t-.077-.308q.579-.962,1.081-1.9a6.3,6.3,0,0,1,1.235-1.635q.54-.462,1-.847.425-.308.791-.539t.483-.192a1.028,1.028,0,0,0,.6-.269,3.759,3.759,0,0,1,.56-.423,3.663,3.663,0,0,1,.6-.269,2.4,2.4,0,0,0,.6-.308,1.575,1.575,0,0,1,.927.327,2.4,2.4,0,0,0,.888.442,1.172,1.172,0,0,0,.425-.654,1.377,1.377,0,0,1,.425-.693,3.2,3.2,0,0,1,1.911.173,2.812,2.812,0,0,1,1.216,1.02,3.058,3.058,0,0,1-.058,1.135,7.533,7.533,0,0,1-.367,1.116,11.066,11.066,0,0,1-.54,1.116,10.144,10.144,0,0,0-.54,1.135q-.077.192-.174.462t-.174.5q-.193.539-.367,1.231A5.99,5.99,0,0,0-73-56.513a3.637,3.637,0,0,0,.116.885,2.126,2.126,0,0,0,.347.77,2.565,2.565,0,0,0,.907.192,2.556,2.556,0,0,0,.772-.115,3.68,3.68,0,0,0,.734-.327q.367-.212.791-.443.347-.231.54-.346a2.411,2.411,0,0,0,.328-.231l.27-.231q.135-.115.367-.308a.483.483,0,0,0,.116-.192.483.483,0,0,1,.116-.192l.154-.077.154-.077.791-.693q.483-.423,1-.885t1-.885l.791-.693a1.284,1.284,0,0,1,.5-.289.352.352,0,0,1,.386.135ZM-75.776-62.67q.077,0,.058-.077t-.212-.077a8.285,8.285,0,0,0-2.1,1.962q-.869,1.154-1.679,2.386a3.528,3.528,0,0,0,1.525-1.039q.637-.731,1.177-1.308.347-.423.714-.866A2.682,2.682,0,0,0-75.776-62.67Zm17.643-1a.646.646,0,0,0,.618.385,1.627,1.627,0,0,1,.734.154q.193.115.347.212a1.763,1.763,0,0,1,.309.25.452.452,0,0,1,.386.154l.077.077a.111.111,0,0,0,.039.077.574.574,0,0,1,.29.25,2.494,2.494,0,0,0,.251.4q.116.077.193.135t.193.135q-.077.423.1.558a3.681,3.681,0,0,0,.367.25,5.036,5.036,0,0,0-.347.558,2.015,2.015,0,0,1-.347.481q-.116.462-.27,1a6.92,6.92,0,0,1-.347.962q0,.038-.1.115t-.135.115a2.819,2.819,0,0,0-.212.77q-.058.423-.135.885-.193.77-.386,1.712a5.461,5.461,0,0,0-.039,1.943q.077.346.154.731a1.361,1.361,0,0,0,.27.616l.039.115a.514.514,0,0,0,.309.115.315.315,0,0,1,.232.077q.154.154.077.192t.077.231a2.288,2.288,0,0,0,.791-.058,4.841,4.841,0,0,1,.791-.135,1.891,1.891,0,0,1-.656.481,4.224,4.224,0,0,1-.695.25,3.679,3.679,0,0,1-2.046-.192A2.842,2.842,0,0,1-58.6-50.7a1.292,1.292,0,0,1-.232-.5,3.787,3.787,0,0,0-.193-.539q-.077-.192-.135-.346a2.232,2.232,0,0,1-.1-.346,4.1,4.1,0,0,1-.193-1.02q-.039-.558-.039-1.135a16.252,16.252,0,0,1,.116-1.9,17.816,17.816,0,0,1,.328-1.9q.212-.923.463-1.732a10.982,10.982,0,0,1,.521-1.385A.488.488,0,0,0-58.4-61.9a1.367,1.367,0,0,1-.5-.269.385.385,0,0,1-.232-.058,1.448,1.448,0,0,1-.154-.135.935.935,0,0,0-.135-.115q-.058-.038-.174.038-.232.308-.309.423t-.154.212q-.077.1-.154.212a4.814,4.814,0,0,1-.309.385,1.7,1.7,0,0,1-.444.346,1.512,1.512,0,0,0-.405.308.917.917,0,0,1-.386.539,2.243,2.243,0,0,0-.54.423,2.153,2.153,0,0,1-.656.577,5.43,5.43,0,0,0-.734.462q-1.544.077-1.544-.385.5-.423.965-.77a3.1,3.1,0,0,0,.656-.616q.425-.5.56-.635t.444-.481l.367-.366q.135-.135.56-.635.27-.385.347-.519t.27-.481a1.155,1.155,0,0,0-.212-.231q-.135-.115-.29-.231-.116-.154-.135-.173a.055.055,0,0,1-.019-.038v-.077a1.354,1.354,0,0,0-.077-.289q0-.038-.116-.154t-.116-.154a2.6,2.6,0,0,1,0-.635q.039-.366.1-.731a5.469,5.469,0,0,1,.154-.693q.1-.327.174-.519a5.415,5.415,0,0,1,.425-1.077.189.189,0,0,1,.135-.038q.1,0,.1-.038a.175.175,0,0,0,.019-.135.316.316,0,0,1-.019-.1q0-.038.116-.038a.3.3,0,0,1,.116.038.127.127,0,0,0,0-.135q-.039-.058,0-.058a.449.449,0,0,1,.116-.077q.077-.038.077-.077a1.635,1.635,0,0,1,.27-.423q.193-.231.463-.5.193-.192.656-.673a5.879,5.879,0,0,1,.734-.673.287.287,0,0,1,.212-.077.321.321,0,0,0,.251-.154.172.172,0,0,0,.077-.019q.039-.019.116.1a3.563,3.563,0,0,0,.753.577,2.821,2.821,0,0,1,.714.577q0,.231.077.231a7.668,7.668,0,0,1-.154,2.27,19.568,19.568,0,0,1-.579,1.885,4.731,4.731,0,0,1-.54,1.154A12.316,12.316,0,0,0-58.133-63.67Zm-.309-4.271a2.028,2.028,0,0,1-.29.712l-.425.654a3.323,3.323,0,0,0-.347.712,1.448,1.448,0,0,0-.019.847,11.625,11.625,0,0,1,.656-1.327,8.986,8.986,0,0,0,.579-1.174,1.958,1.958,0,0,0,.154-.289.365.365,0,0,0,0-.327q-.039.115-.135.115A.24.24,0,0,0-58.442-67.941Zm21.774,7.118q.309.077.425.539a.849.849,0,0,1-.27.847,2.318,2.318,0,0,1-.251.443q-.174.25-.328.443a1.868,1.868,0,0,1-.29.212q-.212.135-.212.212a.987.987,0,0,0-.328.269,1.472,1.472,0,0,1-.29.269,3.815,3.815,0,0,0-.367.25q-.29.212-.405.289a1.141,1.141,0,0,0-.521.366,1.657,1.657,0,0,1-.483.443q-.27.077-.618.212a1.549,1.549,0,0,0-.54.327.884.884,0,0,1-.5.192.531.531,0,0,0-.425.308.819.819,0,0,0-.5.1,2.683,2.683,0,0,1-.618.212,2.032,2.032,0,0,1-.444.115,3.185,3.185,0,0,1-.483.038,4.256,4.256,0,0,1-1.776.385,3.111,3.111,0,0,1-1.2,0,1.788,1.788,0,0,0-.212-.058,1.088,1.088,0,0,0-.212-.019,2.011,2.011,0,0,0-.714-.173,2.257,2.257,0,0,1-.676-.135,1.137,1.137,0,0,1-.251-.1q-.212-.1-.444-.192t-.444-.192a1.136,1.136,0,0,0-.251-.1.808.808,0,0,1-.347-.289,4.04,4.04,0,0,1-.29-.462,4.04,4.04,0,0,0-.29-.462,1.532,1.532,0,0,0-.309-.327.264.264,0,0,0-.174-.019.264.264,0,0,1-.174-.019.462.462,0,0,1-.174-.231q-.058-.154-.1-.231a.892.892,0,0,1,.077-.635.472.472,0,0,0,.039-.481.755.755,0,0,1,.154-.058.292.292,0,0,0,.154-.135.637.637,0,0,1-.212-.558,2.689,2.689,0,0,1,.154-.75q.135-.385.29-.731t.232-.539a2.411,2.411,0,0,0,.039-.385.85.85,0,0,1,.039-.269.829.829,0,0,1,.212-.212,1.716,1.716,0,0,0,.212-.173,1.69,1.69,0,0,1,.27-.577,3.324,3.324,0,0,1,.579-.789q.386-.4.811-.866a1.643,1.643,0,0,1,.386-.4,4.784,4.784,0,0,0,.5-.443,2.274,2.274,0,0,0,.5-.25q.193-.135.463-.327a1.772,1.772,0,0,1,1.235-.423,7.988,7.988,0,0,1,1.2.154.309.309,0,0,1,.251.192.292.292,0,0,0,.174.192q.077.077.135.019a.236.236,0,0,1,.174-.058,4.245,4.245,0,0,1,.54.231,5.568,5.568,0,0,1,.6.346,4.251,4.251,0,0,1,.5.385.771.771,0,0,1,.251.346.6.6,0,0,0,.116.154.6.6,0,0,1,.116.154.944.944,0,0,1-.019.789,1.758,1.758,0,0,0-.251.519,4.235,4.235,0,0,1-.56.539,2.169,2.169,0,0,0-.444.462q0,.077-.212.231a.659.659,0,0,0-.251.269,3.653,3.653,0,0,1-.714.481,3.746,3.746,0,0,0-.753.519.523.523,0,0,1-.193.173q-.154.1-.347.212-.232.154-.5.308a.49.49,0,0,1-.232.115.49.49,0,0,0-.232.115,1.9,1.9,0,0,0-.309.289,1.264,1.264,0,0,1-.5.327.209.209,0,0,1-.193.058q-.116-.019-.154.058a1.176,1.176,0,0,0-.386.269.52.52,0,0,1-.463.154,1.841,1.841,0,0,0-.135.462,1.86,1.86,0,0,0,0,.654,1.466,1.466,0,0,0,.27.635.922.922,0,0,0,.714.327,2.328,2.328,0,0,1,.386.077,1.5,1.5,0,0,1,.425.154,5.785,5.785,0,0,0,1.371-.1l1.409-.25a14.535,14.535,0,0,0,2.857-1,19.11,19.11,0,0,0,2.432-1.347,1.239,1.239,0,0,1,.251-.173,2.008,2.008,0,0,0,.212-.1,4.408,4.408,0,0,0,.463-.289,6.76,6.76,0,0,0,.6-.462A4.116,4.116,0,0,0-36.9-60.3.87.87,0,0,0-36.668-60.823Zm-11.08.385a5.758,5.758,0,0,0,1.235-.885,8.866,8.866,0,0,1,1.235-.962q.232-.192.483-.423a1.255,1.255,0,0,0,.328-.423.433.433,0,0,0,.039-.308,1.154,1.154,0,0,1-.039-.192.731.731,0,0,0-.232-.038.034.034,0,0,0-.039.038,6.842,6.842,0,0,0-1.737,1.366,19.965,19.965,0,0,0-1.467,1.751q0,.115.077.115A.3.3,0,0,0-47.748-60.438Z"
                  transform="translate(1032.216 4244.28)" fill="#fff"/>
        </g>
        <g id="Group_59600" data-name="Group 59600" transform="translate(92 201)">
            <path id="Path_107352" data-name="Path 107352"
                  d="M27.5,55C54.788,55,55,42.688,55,27.5S54.788,0,27.5,0,0,12.312,0,27.5.212,55,27.5,55Z"
                  transform="translate(736 4152)" fill="rgba(255,255,255,0.15)"/>
            <g id="Group_53830" data-name="Group 53830" transform="translate(763.479 4157.807) rotate(45)">
                <g id="Health-Kit" transform="translate(0 6.513)" opacity="0.2">
                    <path id="Path_107112" data-name="Path 107112"
                          d="M15.94.156c-3.677.7-6.306,2.8-6.863,5.489-.195.839-.223.889-1.66,1.014C3.188,7.061.005,9.682,0,12.742c-.005,3.035,2.672,5.276,7.728,6.452,4.42,1.054,13.983.816,17.44-.424,1-.372,1.217-.594,1.716-1.779A13.459,13.459,0,0,0,28,10.82c.007-4.121-1.149-6.907-3.634-8.8A11.849,11.849,0,0,0,15.94.156Z"
                          transform="translate(0 0)" fill="#fff"/>
                </g>
                <g id="Health-Kit-2" data-name="Health-Kit" transform="translate(0.005 3.257)" opacity="0.3">
                    <path id="Path_107112-2" data-name="Path 107112"
                          d="M15.94.156c-3.677.7-6.306,2.8-6.863,5.489-.195.839-.223.889-1.66,1.014C3.188,7.061.005,9.682,0,12.742c-.005,3.035,2.672,5.276,7.728,6.452,4.42,1.054,13.983.816,17.44-.424,1-.372,1.217-.594,1.716-1.779A13.459,13.459,0,0,0,28,10.82c.007-4.121-1.149-6.907-3.634-8.8A11.849,11.849,0,0,0,15.94.156Z"
                          transform="translate(0 0)" fill="#fff"/>
                </g>
                <g id="Health-Kit-3" data-name="Health-Kit" transform="translate(0.011 0)">
                    <path id="Path_107112-3" data-name="Path 107112"
                          d="M15.94.156c-3.677.7-6.306,2.8-6.863,5.489-.195.839-.223.889-1.66,1.014C3.188,7.061.005,9.682,0,12.742c-.005,3.035,2.672,5.276,7.728,6.452,4.42,1.054,13.983.816,17.44-.424,1-.372,1.217-.594,1.716-1.779A13.459,13.459,0,0,0,28,10.82c.007-4.121-1.149-6.907-3.634-8.8A11.849,11.849,0,0,0,15.94.156Z"
                          fill="url(#linear-gradient)"/>
                </g>
            </g>
        </g>
    </g>
</svg>
