<svg width="24" height="26" viewBox="0 0 24 26" fill="none" xmlns="http://www.w3.org/2000/svg">
<path d="M21 11.2292C21 18.2292 12 24.2292 12 24.2292C12 24.2292 3 18.2292 3 11.2292C3 8.8423 3.94821 6.55311 5.63604 4.86529C7.32387 3.17746 9.61305 2.22925 12 2.22925C14.3869 2.22925 16.6761 3.17746 18.364 4.86529C20.0518 6.55311 21 8.8423 21 11.2292Z" stroke="#2F3BF5" stroke-width="3" stroke-linecap="round" stroke-linejoin="round"/>
<path d="M12 14.2292C13.6569 14.2292 15 12.8861 15 11.2292C15 9.57239 13.6569 8.22925 12 8.22925C10.3431 8.22925 9 9.57239 9 11.2292C9 12.8861 10.3431 14.2292 12 14.2292Z" stroke="#FF0084" stroke-width="3" stroke-linecap="round" stroke-linejoin="round"/>
</svg>
