<svg width="20" height="20" viewBox="0 0 20 20" fill="none" xmlns="http://www.w3.org/2000/svg">
<circle cx="10" cy="10" r="10" fill="white"/>
<path d="M15.9639 7.52625C15.9347 6.88757 15.8333 6.45142 15.685 6.06982C15.5344 5.66946 15.2982 5.30682 14.9929 5.00708C14.6933 4.70184 14.3305 4.46555 13.9302 4.31485C13.5485 4.16663 13.1124 4.06528 12.4738 4.03625C11.8339 4.00696 11.6295 4 10 4C8.37054 4 8.16611 4.00696 7.52625 4.03607C6.88757 4.06528 6.45151 4.16672 6.06982 4.31503C5.66946 4.46564 5.30682 4.70184 5.00708 5.00708C4.70184 5.30673 4.46555 5.66937 4.31485 6.06973C4.16663 6.45142 4.06528 6.88757 4.03625 7.52615C4.00696 8.16611 4 8.37045 4 9.99991C4 11.6295 4.00696 11.8339 4.03625 12.4738C4.06537 13.1123 4.16681 13.5485 4.31512 13.9302C4.46573 14.3304 4.70193 14.6932 5.00717 14.9928C5.30682 15.2981 5.66956 15.5343 6.06992 15.6849C6.45151 15.8333 6.88766 15.9346 7.52634 15.9638C8.16629 15.993 8.37064 15.9999 10.0001 15.9999C11.6295 15.9999 11.834 15.993 12.4738 15.9638C13.1125 15.9346 13.5486 15.8333 13.9303 15.6849C14.7362 15.3732 15.3733 14.7361 15.685 13.9302C15.8334 13.5485 15.9347 13.1123 15.9639 12.4738C15.993 11.8338 16 11.6295 16 10C16 8.37045 15.993 8.16611 15.9639 7.52625V7.52625ZM14.8839 12.4246C14.8572 13.0096 14.7595 13.3273 14.6773 13.5387C14.4755 14.062 14.0619 14.4756 13.5386 14.6774C13.3272 14.7596 13.0095 14.8573 12.4245 14.884C11.792 14.9129 11.6022 14.9189 10 14.9189C8.39774 14.9189 8.20804 14.9129 7.57541 14.884C6.99048 14.8573 6.67279 14.7596 6.4613 14.6774C6.20074 14.5812 5.965 14.4279 5.77145 14.2285C5.57214 14.035 5.41879 13.7993 5.32257 13.5387C5.24045 13.3273 5.14267 13.0096 5.11603 12.4246C5.08719 11.792 5.08105 11.6022 5.08105 10.0001C5.08105 8.39792 5.08719 8.20822 5.11603 7.5755C5.14276 6.99048 5.24045 6.67279 5.32257 6.4614C5.41879 6.20074 5.57224 5.965 5.77145 5.77145C5.965 5.57214 6.20074 5.41879 6.4614 5.32266C6.67279 5.24045 6.99048 5.14276 7.5755 5.11603C8.20813 5.08719 8.39792 5.08105 10 5.08105H9.99991C11.602 5.08105 11.7918 5.08719 12.4245 5.11612C13.0095 5.14276 13.3271 5.24054 13.5386 5.32266C13.7992 5.41888 14.0349 5.57224 14.2285 5.77145C14.4278 5.965 14.5811 6.20074 14.6772 6.4614C14.7595 6.67279 14.8572 6.99048 14.8839 7.5755C14.9127 8.20813 14.9189 8.39792 14.9189 10C14.9189 11.6022 14.9128 11.7919 14.8839 12.4246Z" fill="url(#paint0_linear)"/>
<path d="M9.99899 6.91895C8.29739 6.91895 6.91797 8.29846 6.91797 10.0001C6.91797 11.7017 8.29739 13.0811 9.99899 13.0811C11.7007 13.0811 13.0801 11.7017 13.0801 10.0001C13.0801 8.29846 11.7007 6.91895 9.99899 6.91895V6.91895ZM9.99899 12C8.8945 11.9999 7.99902 11.1046 7.99911 9.99997C7.99911 8.89548 8.8945 8 9.99908 8C11.1037 8.00009 11.9991 8.89548 11.9991 9.99997C11.9991 11.1046 11.1036 12 9.99899 12V12Z" fill="url(#paint1_linear)"/>
<path d="M13.9244 6.79721C13.9244 7.19482 13.6021 7.51718 13.2044 7.51718C12.8067 7.51718 12.4844 7.19482 12.4844 6.79721C12.4844 6.39951 12.8067 6.07715 13.2044 6.07715C13.6021 6.07715 13.9244 6.39951 13.9244 6.79721V6.79721Z" fill="url(#paint2_linear)"/>
<defs>
<linearGradient id="paint0_linear" x1="5.00702" y1="14.9929" x2="14.993" y2="5.00692" gradientUnits="userSpaceOnUse">
<stop stop-color="#FFD600"/>
<stop offset="0.5" stop-color="#FF0100"/>
<stop offset="1" stop-color="#D800B9"/>
</linearGradient>
<linearGradient id="paint1_linear" x1="7.8204" y1="12.1787" x2="12.1777" y2="7.82138" gradientUnits="userSpaceOnUse">
<stop stop-color="#FF6400"/>
<stop offset="0.5" stop-color="#FF0100"/>
<stop offset="1" stop-color="#FD0056"/>
</linearGradient>
<linearGradient id="paint2_linear" x1="12.6953" y1="7.30627" x2="13.7135" y2="6.28806" gradientUnits="userSpaceOnUse">
<stop stop-color="#F30072"/>
<stop offset="1" stop-color="#E50097"/>
</linearGradient>
</defs>
</svg>
