<svg width="49" height="26" viewBox="0 0 49 26" fill="none" xmlns="http://www.w3.org/2000/svg">
<path d="M47.0191 16.7689C47.0598 16.7146 47.1005 16.6604 47.1412 16.6061C47.1819 16.5518 47.2158 16.4975 47.2566 16.4433C47.2633 16.4297 47.2701 16.4161 47.2837 16.4093C47.3244 16.3551 47.3583 16.3008 47.3922 16.2397C47.399 16.233 47.399 16.2262 47.399 16.2262C47.4329 16.1719 47.4601 16.1244 47.494 16.0701C47.5008 16.0566 47.5076 16.043 47.5143 16.0294C47.5483 15.9752 47.5754 15.9141 47.6093 15.853C47.6161 15.8463 47.6161 15.8327 47.6229 15.8259C47.65 15.7716 47.6772 15.7174 47.6975 15.6631C47.7043 15.6495 47.7111 15.636 47.7179 15.6224C47.745 15.5613 47.7721 15.5003 47.7993 15.4392C47.8061 15.4256 47.8061 15.4121 47.8128 15.4053C47.8332 15.351 47.8536 15.2967 47.8739 15.2425C47.8807 15.2289 47.8807 15.2153 47.8875 15.2018C47.9078 15.1407 47.9282 15.0729 47.9485 15.0118C47.9553 14.9983 47.9553 14.9847 47.9621 14.9711C47.9825 14.9168 47.996 14.8558 48.0096 14.8015C48.0164 14.7879 48.0164 14.7744 48.0164 14.7676C48.0367 14.6997 48.0503 14.6319 48.0639 14.5641C48.0639 14.5505 48.0706 14.5301 48.0774 14.5166C48.091 14.4555 48.1046 14.3945 48.1113 14.3334C48.1113 14.3266 48.1181 14.3131 48.1181 14.3063C48.1317 14.2384 48.1385 14.1638 48.152 14.096C48.152 14.0756 48.1588 14.062 48.1588 14.0417C48.1656 13.9739 48.1724 13.906 48.1792 13.8382C48.1792 13.8314 48.1792 13.8246 48.1792 13.8178C48.186 13.7432 48.186 13.6686 48.1928 13.5939C48.1928 13.5736 48.1928 13.56 48.1928 13.5397C48.1928 13.465 48.1995 13.3904 48.1995 13.309C48.1995 13.2412 48.1995 13.1665 48.1928 13.0987C48.0774 9.95089 45.3841 8.77046 43.1386 7.94959C42.4127 7.66466 41.7479 7.44078 41.2526 7.23047C40.5674 6.91841 40.1197 6.5792 40.1197 6.10432C40.1197 5.3445 40.7845 5.01208 41.4765 5.01208C43.064 5.01208 44.5904 6.30105 45.6148 6.30105C46.8427 6.30105 47.7654 5.41234 47.7654 4.12337C47.7654 1.45044 43.8916 0.459961 41.8089 0.459961C40.6489 0.459961 39.6177 0.690619 38.7357 1.0841H38.729C38.6679 1.11123 38.6068 1.13837 38.539 1.17229C38.5254 1.17907 38.5051 1.18586 38.4915 1.19264C38.444 1.21978 38.3898 1.24013 38.3423 1.26727C38.3287 1.27405 38.3151 1.28083 38.3083 1.28762C38.2473 1.32154 38.1862 1.35546 38.132 1.38259C38.1184 1.38938 38.1048 1.39616 38.0913 1.40295C38.0438 1.43008 37.9963 1.45722 37.9488 1.49114C37.9352 1.49792 37.9217 1.51149 37.9081 1.51828C37.8538 1.5522 37.7995 1.5929 37.7453 1.62682C37.7385 1.63361 37.7317 1.64039 37.7181 1.64039C37.6706 1.67431 37.6232 1.70823 37.5757 1.73537C37.5621 1.74894 37.5485 1.75572 37.535 1.7625C37.4332 1.83713 37.3247 1.91854 37.2297 2.00673C37.2161 2.0203 37.2025 2.02708 37.189 2.04065C37.1483 2.07457 37.1008 2.11528 37.0601 2.15598C37.0533 2.16277 37.0465 2.16955 37.0397 2.16955C36.9922 2.21025 36.9447 2.25774 36.8973 2.29845C36.8905 2.30523 36.8769 2.3188 36.8633 2.32558C36.8226 2.36629 36.7887 2.40021 36.748 2.44091C36.7412 2.4477 36.7277 2.46126 36.7209 2.46805C36.6802 2.51554 36.6327 2.56302 36.592 2.60373C36.5852 2.61051 36.5784 2.62408 36.5716 2.63087C36.5377 2.67157 36.5038 2.71228 36.4699 2.75298C36.4631 2.76655 36.4495 2.77333 36.4427 2.7869C36.402 2.83439 36.3613 2.88188 36.3274 2.93615C36.3274 2.94294 36.3206 2.94293 36.3206 2.94972C36.2867 2.99721 36.2528 3.03791 36.2188 3.0854C36.2121 3.09897 36.1985 3.11254 36.1917 3.11932C36.1578 3.16681 36.1239 3.2143 36.09 3.26857C36.09 3.26857 36.09 3.26857 36.09 3.27536C36.056 3.32963 36.0221 3.37712 35.9882 3.43139C35.9814 3.44496 35.9746 3.45853 35.9678 3.47209C35.9407 3.51958 35.9136 3.56029 35.8864 3.60777C35.8796 3.61456 35.8796 3.62134 35.8729 3.63491C35.8457 3.68918 35.8118 3.74346 35.7847 3.79773C35.7779 3.8113 35.7711 3.81808 35.7643 3.83165C35.744 3.87914 35.7168 3.91984 35.6965 3.96733C35.6897 3.9809 35.6829 3.98768 35.6761 4.00125C35.649 4.05552 35.6286 4.1098 35.6015 4.16407C35.5947 4.17085 35.5947 4.18442 35.5879 4.19121C35.5676 4.2387 35.5472 4.28618 35.5269 4.33367C35.5201 4.34724 35.5133 4.36081 35.5133 4.37438C35.493 4.42865 35.4726 4.48971 35.4523 4.54398V4.55076C35.4319 4.60503 35.4183 4.65931 35.398 4.71358C35.3912 4.72715 35.3912 4.74072 35.3844 4.76107C35.3708 4.81534 35.3573 4.86283 35.3369 4.9171C35.3369 4.92389 35.3301 4.93067 35.3301 4.93746C35.3166 4.99173 35.2962 5.05278 35.2894 5.10706C35.2894 5.12063 35.2826 5.13419 35.2826 5.14776C35.2691 5.19525 35.2623 5.24274 35.2555 5.29023C35.2555 5.30379 35.2487 5.31058 35.2487 5.32415C35.2352 5.37842 35.2284 5.43948 35.2216 5.49375C35.2216 5.50732 35.2216 5.52089 35.2148 5.53445C35.208 5.58194 35.2012 5.62943 35.1945 5.67692C35.1945 5.69049 35.1945 5.70406 35.1877 5.72441C35.1809 5.78546 35.1741 5.83974 35.1741 5.90079C35.1741 5.90758 35.1741 5.92115 35.1741 5.92793C35.1741 5.97542 35.1673 6.02969 35.1673 6.07718C35.1673 6.09075 35.1673 6.1111 35.1673 6.12467C35.1673 6.18573 35.1605 6.24 35.1605 6.30105C35.1605 8.12597 35.7711 9.17751 36.9447 9.9916C37.5553 10.419 38.3219 10.7786 39.231 11.1585C40.6421 11.7419 40.9813 11.8437 41.4358 12.0133C42.7044 12.5017 43.2404 12.7731 43.2404 13.499C43.2404 14.0281 42.8469 14.5234 41.7818 14.5234C39.5634 14.5234 38.4372 13.0376 36.8158 13.0376C35.6558 13.0376 34.6992 14.062 34.6992 15.5138C34.6992 17.7933 38.3423 19.0823 41.5851 19.0823C42.8401 19.0823 44.0341 18.8109 45.0585 18.3021C45.1942 18.2343 45.3299 18.1596 45.4588 18.085H45.4656C45.5266 18.0443 45.5945 18.0104 45.6555 17.9697C45.6555 17.9697 45.6623 17.9697 45.6623 17.9629C45.7234 17.9222 45.7844 17.8815 45.8387 17.8408L45.8455 17.834C45.9065 17.7933 45.9608 17.7526 46.0218 17.7051C46.0286 17.6983 46.0354 17.6983 46.0354 17.6915C46.0897 17.6508 46.144 17.6101 46.1982 17.5626L46.205 17.5558C46.2593 17.5084 46.3136 17.4677 46.3678 17.4202C46.3746 17.4134 46.3814 17.4066 46.3882 17.3998C46.4425 17.3523 46.49 17.3116 46.5374 17.2641C46.5374 17.2641 46.5374 17.2641 46.5442 17.2641C46.5917 17.2166 46.646 17.1692 46.6867 17.1217C46.6935 17.1149 46.707 17.1013 46.7138 17.0945C46.8088 16.9996 46.897 16.8978 46.9852 16.7892C46.9988 16.7892 47.0123 16.7757 47.0191 16.7689Z" fill="#F9F7F4"/>
<path d="M31.7105 12.7052C30.5165 12.7052 28.963 14.3266 26.4122 14.3266C23.1015 14.3266 22.2739 12.5424 22.2739 11.4501H31.6088C33.2641 11.4501 34.1257 11.0227 34.1257 9.20459C34.1257 4.71353 30.849 0.453125 25.7473 0.453125C20.449 0.453125 16.7109 4.81529 16.7109 9.76767C16.7109 14.9575 20.1912 19.0822 25.7473 19.0822C29.655 19.0822 33.8611 17.4269 33.8611 14.9168C33.8679 13.5939 32.8706 12.7052 31.7105 12.7052ZM22.1518 7.43395C22.1518 6.28065 23.4747 4.32684 25.4963 4.32684C27.518 4.32684 28.8409 6.27387 28.8409 7.43395V7.44073C28.8409 7.69174 28.6374 7.89526 28.3863 7.89526H22.6131C22.3621 7.89526 22.1586 7.69174 22.1586 7.44073L22.1518 7.43395Z" fill="#F9F7F4"/>
<path d="M17.3472 3.05816C17.3472 1.47069 16.2888 0.446289 14.7014 0.446289C13.2767 0.446289 12.5508 1.66742 11.886 3.2549L9.00952 10.2561L5.96347 2.39332C5.46823 1.10435 4.57273 0.446289 3.31768 0.446289C2.0287 0.446289 0.800781 1.335 0.800781 2.85464C0.800781 3.45164 1.29602 4.67277 1.89302 6.05673L6.29589 16.5313L4.57273 20.3983C3.97573 21.7483 3.71115 22.3453 3.71115 23.2408C3.71115 24.1024 4.40991 25.5542 6.26197 25.5542C8.04618 25.5542 8.48036 24.4619 9.07736 23.1119L16.723 5.30369C16.9808 4.70669 17.3472 3.81798 17.3472 3.05816Z" fill="#F9F7F4"/>
</svg>
