<svg width="107" height="36" viewBox="0 0 107 36" fill="none" xmlns="http://www.w3.org/2000/svg">
<g clip-path="url(#clip0)">
<path d="M98.3863 0.363525H8.83987C8.51319 0.363525 8.19097 0.363525 7.86518 0.363525C7.59281 0.363525 7.32221 0.370509 7.04716 0.374874C6.45061 0.38203 5.85547 0.433686 5.26691 0.529396C4.6783 0.627353 4.10813 0.81189 3.57568 1.07677C3.04263 1.34494 2.55575 1.69342 2.13279 2.10953C1.70731 2.52196 1.35236 2.99891 1.08155 3.52205C0.811266 4.04403 0.62367 4.60335 0.525223 5.18076C0.426269 5.75786 0.372999 6.34161 0.365891 6.92677C0.35788 7.19914 0.352539 7.46803 0.352539 7.73517V27.9146C0.352539 28.1853 0.35788 28.4481 0.365891 28.7196C0.372999 29.3047 0.426269 29.8885 0.525223 30.4656C0.623508 31.043 0.811112 31.6024 1.08155 32.1243C1.35161 32.6481 1.70664 33.1255 2.13279 33.5377C2.55299 33.9543 3.03864 34.3021 3.57123 34.5678C4.10366 34.8335 4.67377 35.0192 5.26246 35.1187C5.85113 35.2136 6.4462 35.2652 7.04271 35.2732C7.31776 35.2793 7.58836 35.2828 7.86073 35.2828C8.18652 35.2828 8.50874 35.2828 8.83542 35.2828H98.3819C98.7014 35.2828 99.0272 35.2828 99.3468 35.2828C99.6138 35.2828 99.896 35.2828 100.167 35.2732C100.764 35.2658 101.359 35.2142 101.948 35.1187C102.539 35.0186 103.111 34.8329 103.646 34.5678C104.181 34.3025 104.668 33.9547 105.09 33.5377C105.514 33.125 105.869 32.6495 106.142 32.1286C106.41 31.6064 106.596 31.0471 106.693 30.4699C106.792 29.8928 106.848 29.3092 106.859 28.7239C106.859 28.4524 106.859 28.1905 106.859 27.919C106.866 27.6021 106.866 27.2861 106.866 26.9639V8.68849C106.866 8.36897 106.866 8.05207 106.859 7.73517C106.859 7.46716 106.859 7.19914 106.859 6.93113C106.848 6.34591 106.792 5.76229 106.693 5.18512C106.596 4.60806 106.41 4.04878 106.142 3.52642C105.592 2.47603 104.721 1.62113 103.65 1.08201C103.114 0.817725 102.542 0.633237 101.951 0.534634C101.363 0.438344 100.768 0.386684 100.171 0.380112C99.904 0.380112 99.6218 0.370509 99.3503 0.368763C99.0308 0.368763 98.705 0.368763 98.3854 0.368763L98.3863 0.363525Z" fill="#A6A6A6"/>
<path d="M7.8691 34.5196C7.60206 34.5196 7.33502 34.5196 7.06799 34.51C6.51062 34.5029 5.95455 34.4553 5.40434 34.3677C4.88982 34.2805 4.39148 34.1184 3.92585 33.8867C3.46454 33.6583 3.04376 33.3585 2.67967 32.9988C2.31313 32.6443 2.00797 32.2336 1.7762 31.7827C1.54068 31.3276 1.37768 30.8397 1.29286 30.3362C1.20114 29.795 1.15145 29.2478 1.14421 28.6993C1.13887 28.5151 1.13086 27.9022 1.13086 27.9022V7.73496C1.13086 7.73496 1.13887 7.13172 1.14421 6.95362C1.15114 6.40598 1.20054 5.85965 1.29197 5.31936C1.37717 4.81465 1.54046 4.32566 1.7762 3.8693C2.0081 3.41673 2.31321 3.00398 2.67967 2.6471C3.04512 2.28962 3.46528 1.99035 3.92496 1.76012C4.38839 1.53043 4.88439 1.37034 5.39633 1.28521C5.94842 1.19519 6.5066 1.14588 7.0662 1.13767L7.86732 1.1272H99.3462L100.159 1.13855C100.713 1.14514 101.266 1.19271 101.813 1.28085C102.33 1.36703 102.831 1.52826 103.3 1.75925C104.224 2.2262 104.976 2.96494 105.45 3.87192C105.682 4.32549 105.842 4.81084 105.926 5.3115C106.018 5.8562 106.07 6.40678 106.081 6.95886C106.081 7.20592 106.081 7.47132 106.081 7.73584C106.088 8.06321 106.088 8.37487 106.088 8.68916V26.9594C106.088 27.2763 106.088 27.5862 106.081 27.8979C106.081 28.1816 106.081 28.4417 106.081 28.7098C106.071 29.2522 106.02 29.7932 105.929 30.3283C105.846 30.8356 105.684 31.3273 105.448 31.7862C105.213 32.2337 104.908 32.642 104.544 32.9962C104.18 33.3573 103.759 33.6586 103.297 33.8884C102.83 34.1207 102.329 34.2825 101.813 34.3686C101.263 34.4567 100.707 34.5042 100.149 34.5109C99.8883 34.517 99.615 34.5205 99.348 34.5205H98.3831L7.8691 34.5196Z" fill="black"/>
<path d="M22.3991 18.0856C22.4087 17.3569 22.6061 16.6425 22.9729 16.0087C23.3398 15.375 23.8641 14.8425 24.4971 14.4609C24.095 13.8977 23.5646 13.4341 22.9479 13.1071C22.3312 12.78 21.6453 12.5985 20.9446 12.577C19.4501 12.4233 18.001 13.45 17.239 13.45C16.4628 13.45 15.2896 12.5883 14.0274 12.6136C13.2106 12.6395 12.4145 12.8724 11.7167 13.2898C11.0189 13.7072 10.4433 14.2947 10.0459 14.9952C8.32442 17.918 9.60887 22.214 11.2574 24.5773C12.0825 25.734 13.0465 27.0269 14.3087 26.9806C15.5433 26.93 16.0044 26.2089 17.4945 26.2089C18.9712 26.2089 19.4038 26.9806 20.6909 26.9518C22.0154 26.9309 22.8504 25.7899 23.647 24.6218C24.2389 23.7988 24.6946 22.8892 24.9973 21.9268C24.2276 21.6075 23.5707 21.0729 23.1086 20.3898C22.6466 19.7067 22.3998 18.9053 22.3991 18.0856Z" fill="white"/>
<path d="M19.9681 11.0237C20.6908 10.1732 21.0468 9.07993 20.9606 7.97607C19.8568 8.08972 18.8372 8.60716 18.1051 9.42526C17.7471 9.82473 17.4729 10.2895 17.2982 10.793C17.1235 11.2964 17.0517 11.8287 17.0868 12.3594C17.6388 12.365 18.1849 12.2477 18.684 12.0163C19.1831 11.785 19.6221 11.4456 19.9681 11.0237V11.0237Z" fill="white"/>
<path d="M38.0025 24.0568H33.7913L32.7793 26.9901H30.999L34.9894 16.1492H36.8436L40.8304 26.9901H39.0155L38.0025 24.0568ZM34.2257 22.7046H37.5655L35.9187 17.9493H35.8751L34.2257 22.7046Z" fill="white"/>
<path d="M49.4493 23.035C49.4493 25.4908 48.1088 27.0692 46.0864 27.0692C45.5739 27.0956 45.0643 26.9798 44.6157 26.7353C44.1672 26.4907 43.798 26.1272 43.5504 25.6863H43.5122V29.6009H41.8574V19.0821H43.4596V20.3968H43.4899C43.749 19.9582 44.1245 19.5968 44.5763 19.3508C45.0282 19.1049 45.5396 18.9836 46.0561 19C48.1008 19 49.4493 20.5854 49.4493 23.035ZM47.7492 23.035C47.7492 21.4348 46.9062 20.3828 45.6191 20.3828C44.3551 20.3828 43.505 21.4566 43.505 23.035C43.505 24.6274 44.3551 25.6942 45.6191 25.6942C46.9035 25.6942 47.7492 24.6492 47.7492 23.035Z" fill="white"/>
<path d="M58.3207 23.035C58.3207 25.4908 56.9802 27.0692 54.9578 27.0692C54.4457 27.0952 53.9364 26.9793 53.4882 26.7348C53.04 26.4902 52.6711 26.1269 52.4237 25.6863H52.3854V29.6009H50.7324V19.0821H52.3346V20.3968H52.3649C52.624 19.9582 52.9995 19.5968 53.4513 19.3508C53.9032 19.1049 54.4146 18.9836 54.9311 19C56.9722 19 58.3207 20.5854 58.3207 23.035ZM56.6206 23.035C56.6206 21.4348 55.7776 20.3828 54.4905 20.3828C53.2265 20.3828 52.3765 21.4566 52.3765 23.035C52.3765 24.6274 53.2265 25.6942 54.4905 25.6942C55.7768 25.6942 56.6206 24.6466 56.6206 23.035Z" fill="white"/>
<path d="M64.1823 23.9658C64.3051 25.0405 65.3697 25.7467 66.8251 25.7467C68.219 25.7467 69.2222 25.0405 69.2222 24.0714C69.2222 23.2299 68.6169 22.7262 67.1847 22.3804L65.7525 22.0417C63.723 21.5607 62.7803 20.6301 62.7803 19.1189C62.7803 17.2481 64.4422 15.9639 66.8028 15.9639C69.1385 15.9639 70.7398 17.2489 70.7932 19.1189H69.1234C69.0237 18.0372 68.1113 17.3842 66.7788 17.3842C65.4463 17.3842 64.5348 18.0451 64.5348 19.0063C64.5348 19.7728 65.1169 20.2241 66.542 20.569L67.7597 20.8623C70.0277 21.3861 70.9695 22.2818 70.9695 23.8672C70.9695 25.8952 69.3219 27.1654 66.7022 27.1654C64.2508 27.1654 62.5961 25.9248 62.4893 23.9641L64.1823 23.9658Z" fill="white"/>
<path d="M74.5383 17.2124V19.0833H76.0711V20.3683H74.5383V24.7255C74.5383 25.4021 74.8454 25.7181 75.5175 25.7181C75.6999 25.715 75.882 25.7025 76.0631 25.6805V26.9577C75.7603 27.0133 75.4525 27.0384 75.1445 27.0328C73.5129 27.0328 72.8765 26.4322 72.8765 24.8992V20.3674H71.7051V19.0824H72.8765V17.2124H74.5383Z" fill="white"/>
<path d="M76.959 23.0355C76.959 20.5483 78.4526 18.9856 80.7812 18.9856C83.1097 18.9856 84.6043 20.5483 84.6043 23.0355C84.6043 25.5226 83.1258 27.0853 80.7812 27.0853C78.4366 27.0853 76.959 25.5288 76.959 23.0355ZM82.9228 23.0355C82.9228 21.3296 82.1217 20.323 80.7865 20.323C79.4513 20.323 78.6502 21.3375 78.6502 23.0355C78.6502 24.7483 79.4469 25.747 80.7865 25.747C82.1262 25.747 82.9228 24.7474 82.9228 23.0355Z" fill="white"/>
<path d="M85.9688 19.0821H87.5461V20.4274H87.5834C87.6901 20.0071 87.9411 19.6357 88.2941 19.3756C88.6472 19.1155 89.0809 18.9826 89.5221 18.9992C89.7128 18.9984 89.903 19.0186 90.0891 19.0594V20.5767C89.8485 20.5047 89.5974 20.4717 89.3459 20.4789C89.1056 20.4694 88.8659 20.5109 88.6435 20.6007C88.4211 20.6905 88.2211 20.8265 88.0573 20.9992C87.8936 21.172 87.7698 21.3775 87.6946 21.6015C87.6194 21.8256 87.5945 22.063 87.6217 22.2974V26.9898H85.9688V19.0821Z" fill="white"/>
<path d="M97.7167 24.6653C97.4942 26.1005 96.0691 27.0844 94.2453 27.0844C91.9007 27.0844 90.4453 25.5436 90.4453 23.0686C90.4453 20.5936 91.9087 18.9812 94.1749 18.9812C96.4002 18.9812 97.8066 20.4836 97.8066 22.88V23.4361H92.1143V23.5339C92.0881 23.8248 92.1253 24.1178 92.2234 24.3935C92.3215 24.6693 92.4783 24.9213 92.6834 25.133C92.8885 25.3447 93.1372 25.5112 93.4129 25.6215C93.6886 25.7317 93.9851 25.7831 94.2826 25.7723C94.6735 25.8083 95.0658 25.7196 95.4012 25.5194C95.7366 25.3192 95.997 25.0181 96.1439 24.661L97.7167 24.6653ZM92.125 22.3082H96.1537C96.1688 22.0465 96.1286 21.7845 96.0356 21.5387C95.9425 21.293 95.7986 21.0688 95.613 20.8802C95.4273 20.6916 95.2038 20.5427 94.9567 20.4429C94.7095 20.3432 94.4439 20.2946 94.1767 20.3003C93.9071 20.2987 93.6399 20.3495 93.3905 20.4498C93.1411 20.55 92.9144 20.6978 92.7235 20.8845C92.5326 21.0712 92.3814 21.2931 92.2785 21.5375C92.1756 21.7819 92.1231 22.0438 92.1241 22.3082H92.125Z" fill="white"/>
<path d="M34.0227 7.98641C34.3699 7.96191 34.7183 8.01336 35.0427 8.13704C35.3671 8.26071 35.6595 8.45352 35.8986 8.70154C36.1378 8.94956 36.3178 9.24659 36.4256 9.57116C36.5335 9.89574 36.5664 10.2398 36.5222 10.5784C36.5222 12.2423 35.6053 13.1974 34.0227 13.1974H32.1045V7.98641H34.0227ZM32.9314 12.4588H33.9328C34.1806 12.4733 34.4286 12.4335 34.6588 12.3422C34.8889 12.2509 35.0954 12.1104 35.2632 11.9309C35.431 11.7514 35.5559 11.5375 35.6288 11.3048C35.7017 11.072 35.7207 10.8262 35.6846 10.5853C35.7182 10.3454 35.6972 10.1011 35.6232 9.87001C35.5493 9.63892 35.4241 9.42674 35.2566 9.24868C35.0892 9.07063 34.8837 8.9311 34.6548 8.8401C34.426 8.74911 34.1794 8.7089 33.9328 8.72235H32.9314V12.4588Z" fill="white"/>
<path d="M37.4527 11.2274C37.4278 10.9692 37.4581 10.7087 37.5418 10.4627C37.6254 10.2167 37.7605 9.99053 37.9385 9.7987C38.1164 9.60687 38.3333 9.45361 38.5751 9.34874C38.8169 9.24387 39.0785 9.1897 39.3429 9.1897C39.6073 9.1897 39.8688 9.24387 40.1107 9.34874C40.3525 9.45361 40.5693 9.60687 40.7473 9.7987C40.9252 9.99053 41.0603 10.2167 41.144 10.4627C41.2277 10.7087 41.258 10.9692 41.2331 11.2274C41.2593 11.4863 41.23 11.7478 41.147 11.9949C41.064 12.2421 40.9291 12.4694 40.751 12.6623C40.5729 12.8552 40.3556 13.0094 40.1131 13.1149C39.8706 13.2204 39.6082 13.2749 39.3429 13.2749C39.0776 13.2749 38.8152 13.2204 38.5727 13.1149C38.3301 13.0094 38.1128 12.8552 37.9347 12.6623C37.7567 12.4694 37.6218 12.2421 37.5388 11.9949C37.4557 11.7478 37.4264 11.4863 37.4527 11.2274V11.2274ZM40.4195 11.2274C40.4195 10.3753 40.0296 9.87683 39.3442 9.87683C38.6588 9.87683 38.2698 10.3753 38.2698 11.2274C38.2698 12.0794 38.657 12.5805 39.3442 12.5805C40.0314 12.5805 40.4195 12.0829 40.4195 11.2274Z" fill="white"/>
<path d="M46.259 13.1976H45.4383L44.6096 10.3027H44.5472L43.723 13.1976H42.9103L41.8057 9.26904H42.6068L43.3251 12.2687H43.3839L44.2081 9.26904H44.9674L45.7916 12.2687H45.8539L46.566 9.26904H47.3574L46.259 13.1976Z" fill="white"/>
<path d="M48.288 9.26395H49.0491V9.88815H49.1078C49.2084 9.66419 49.3777 9.47656 49.5921 9.35138C49.8066 9.2262 50.0554 9.1697 50.3041 9.18975C50.4992 9.17538 50.695 9.20423 50.8772 9.27416C51.0593 9.3441 51.2231 9.45332 51.3564 9.59375C51.4896 9.73418 51.589 9.90221 51.647 10.0854C51.7051 10.2686 51.7204 10.4622 51.6918 10.652V13.1968H50.9005V10.845C50.9005 10.2129 50.621 9.8995 50.0353 9.8995C49.9029 9.89349 49.7708 9.91561 49.6479 9.96436C49.5251 10.0131 49.4144 10.0873 49.3235 10.1819C49.2327 10.2765 49.1637 10.3893 49.1214 10.5125C49.0791 10.6357 49.0644 10.7663 49.0784 10.8956V13.1968H48.2871L48.288 9.26395Z" fill="white"/>
<path d="M52.9551 7.72949H53.7464V13.1971H52.9551V7.72949Z" fill="white"/>
<path d="M54.8458 11.2273C54.8216 10.9695 54.8525 10.7095 54.9365 10.464C55.0205 10.2185 55.1557 9.99292 55.3337 9.80161C55.5116 9.61029 55.7282 9.45747 55.9698 9.3529C56.2113 9.24834 56.4724 9.19434 56.7364 9.19434C57.0005 9.19434 57.2616 9.24834 57.5031 9.3529C57.7447 9.45747 57.9613 9.61029 58.1392 9.80161C58.3171 9.99292 58.4524 10.2185 58.5364 10.464C58.6204 10.7095 58.6513 10.9695 58.6271 11.2273C58.6527 11.486 58.6229 11.747 58.5395 11.9936C58.4561 12.2403 58.3211 12.4671 58.1431 12.6595C57.965 12.8519 57.7479 13.0057 57.5056 13.1109C57.2634 13.2161 57.0014 13.2705 56.7364 13.2705C56.4715 13.2705 56.2095 13.2161 55.9673 13.1109C55.725 13.0057 55.5079 12.8519 55.3298 12.6595C55.1518 12.4671 55.0167 12.2403 54.9334 11.9936C54.85 11.747 54.8202 11.486 54.8458 11.2273V11.2273ZM57.8126 11.2273C57.8126 10.3753 57.4227 9.8768 56.7373 9.8768C56.0519 9.8768 55.663 10.3753 55.663 11.2273C55.663 12.0794 56.0502 12.5805 56.7373 12.5805C57.4245 12.5805 57.8126 12.0829 57.8126 11.2273Z" fill="white"/>
<path d="M59.4561 12.083C59.4561 11.375 59.9901 10.9673 60.947 10.9097L62.033 10.8486V10.509C62.033 10.0934 61.7535 9.85947 61.2123 9.85947C60.7672 9.85947 60.4646 10.0184 60.3773 10.296H59.6118C59.6928 9.62114 60.3399 9.18726 61.2497 9.18726C62.2546 9.18726 62.8216 9.67788 62.8216 10.5081V13.197H62.0606V12.6443H61.9982C61.8712 12.8426 61.6927 13.0042 61.4811 13.1126C61.2695 13.221 61.0324 13.2724 60.7939 13.2616C60.6257 13.2786 60.4557 13.261 60.2948 13.2096C60.134 13.1583 59.9859 13.0745 59.8601 12.9637C59.7343 12.8528 59.6336 12.7173 59.5645 12.5659C59.4953 12.4145 59.4593 12.2506 59.4587 12.0848L59.4561 12.083ZM62.0374 11.7478V11.4195L61.0583 11.4806C60.5064 11.5173 60.2572 11.7006 60.2572 12.0472C60.2572 12.3938 60.5705 12.6068 61.0004 12.6068C61.1264 12.6193 61.2537 12.6067 61.3746 12.57C61.4956 12.5332 61.6078 12.473 61.7045 12.3928C61.8013 12.3127 61.8806 12.2143 61.9378 12.1035C61.995 11.9927 62.0289 11.8717 62.0374 11.7478Z" fill="white"/>
<path d="M63.8623 11.2276C63.8623 9.98533 64.513 9.19876 65.5259 9.19876C65.7765 9.18741 66.0251 9.24625 66.2428 9.36837C66.4605 9.4905 66.6382 9.67088 66.7552 9.88843H66.814V7.72949H67.6053V13.1971H66.846V12.5764H66.7837C66.6577 12.7925 66.4738 12.9707 66.2519 13.0916C66.0301 13.2126 65.7787 13.2717 65.5251 13.2626C64.5068 13.26 63.8623 12.4734 63.8623 11.2276ZM64.6794 11.2276C64.6794 12.0613 65.08 12.5633 65.7476 12.5633C66.4152 12.5633 66.8264 12.0544 66.8264 11.2311C66.8264 10.4079 66.4098 9.89541 65.7476 9.89541C65.0853 9.89541 64.6794 10.4009 64.6794 11.2276Z" fill="white"/>
<path d="M70.8775 11.2274C70.8526 10.9692 70.8829 10.7087 70.9666 10.4627C71.0502 10.2167 71.1853 9.99053 71.3633 9.7987C71.5412 9.60687 71.7581 9.45361 71.9999 9.34874C72.2417 9.24387 72.5033 9.1897 72.7677 9.1897C73.0321 9.1897 73.2936 9.24387 73.5355 9.34874C73.7773 9.45361 73.9941 9.60687 74.1721 9.7987C74.35 9.99053 74.4851 10.2167 74.5688 10.4627C74.6524 10.7087 74.6828 10.9692 74.6579 11.2274C74.6841 11.4863 74.6548 11.7478 74.5718 11.9949C74.4888 12.2421 74.3539 12.4694 74.1758 12.6623C73.9977 12.8552 73.7804 13.0094 73.5379 13.1149C73.2954 13.2204 73.033 13.2749 72.7677 13.2749C72.5024 13.2749 72.24 13.2204 71.9975 13.1149C71.7549 13.0094 71.5376 12.8552 71.3595 12.6623C71.1815 12.4694 71.0466 12.2421 70.9636 11.9949C70.8805 11.7478 70.8512 11.4863 70.8775 11.2274ZM73.8443 11.2274C73.8443 10.3753 73.4544 9.87683 72.769 9.87683C72.0836 9.87683 71.6946 10.3753 71.6946 11.2274C71.6946 12.0794 72.0818 12.5805 72.769 12.5805C73.4562 12.5805 73.8443 12.0829 73.8443 11.2274Z" fill="white"/>
<path d="M75.7196 9.26395H76.4807V9.88815H76.5394C76.64 9.66419 76.8093 9.47656 77.0238 9.35138C77.2382 9.2262 77.4871 9.1697 77.7358 9.18975C77.9308 9.17538 78.1267 9.20423 78.3088 9.27416C78.491 9.3441 78.6547 9.45332 78.788 9.59375C78.9213 9.73418 79.0206 9.90221 79.0787 10.0854C79.1368 10.2686 79.1521 10.4622 79.1235 10.652V13.1968H78.3322V10.845C78.3322 10.2129 78.0527 9.8995 77.467 9.8995C77.3346 9.89349 77.2024 9.91561 77.0796 9.96436C76.9567 10.0131 76.8461 10.0873 76.7552 10.1819C76.6643 10.2765 76.5953 10.3893 76.553 10.5125C76.5107 10.6357 76.4961 10.7663 76.5101 10.8956V13.1968H75.7188L75.7196 9.26395Z" fill="white"/>
<path d="M83.5938 8.28589V9.28286H84.4625V9.93674H83.5938V11.9577C83.5938 12.3698 83.7665 12.5496 84.1608 12.5496C84.2616 12.5492 84.3624 12.5431 84.4625 12.5313V13.1773C84.3206 13.2021 84.1768 13.2153 84.0326 13.2166C83.1532 13.2166 82.8024 12.9128 82.8024 12.155V9.93587H82.166V9.28199H82.8024V8.28589H83.5938Z" fill="white"/>
<path d="M85.5391 7.72949H86.3233V9.89541H86.3856C86.4907 9.669 86.6645 9.47988 86.8832 9.35381C87.1019 9.22774 87.3549 9.17085 87.6077 9.1909C87.8018 9.18045 87.9958 9.21216 88.1759 9.28376C88.3561 9.35536 88.5179 9.4651 88.6497 9.60512C88.7816 9.74514 88.8804 9.912 88.9389 10.0938C88.9974 10.2756 89.0143 10.4678 88.9883 10.6567V13.1971H88.1961V10.8487C88.1961 10.221 87.8979 9.90327 87.3389 9.90327C87.2029 9.89231 87.0661 9.91063 86.9381 9.95696C86.81 10.0033 86.6939 10.0765 86.5977 10.1715C86.5016 10.2664 86.4278 10.3809 86.3814 10.5068C86.3351 10.6326 86.3174 10.7669 86.3295 10.9002V13.1971H85.5391V7.72949Z" fill="white"/>
<path d="M93.6023 12.134C93.4943 12.4928 93.2613 12.803 92.9439 13.0104C92.6265 13.2179 92.2448 13.3094 91.8656 13.2689C91.6016 13.2758 91.3392 13.2262 91.0966 13.1236C90.854 13.021 90.6372 12.8679 90.461 12.6749C90.2848 12.4818 90.1536 12.2535 90.0765 12.0057C89.9993 11.7579 89.978 11.4967 90.0142 11.24C89.979 10.9826 90.0006 10.7207 90.0775 10.4722C90.1545 10.2236 90.285 9.99419 90.4602 9.79941C90.6354 9.60462 90.8513 9.44904 91.0931 9.34318C91.335 9.23733 91.5972 9.18368 91.8621 9.18585C92.9774 9.18585 93.6503 9.93315 93.6503 11.1676V11.4382H90.8197V11.4819C90.8073 11.6262 90.8258 11.7715 90.874 11.9084C90.9222 12.0453 90.9991 12.1708 91.0997 12.2768C91.2003 12.3829 91.3223 12.4671 91.4581 12.5241C91.5938 12.5812 91.7402 12.6098 91.8879 12.608C92.0771 12.6303 92.2688 12.5969 92.4385 12.512C92.6083 12.4271 92.7484 12.2946 92.8412 12.1314L93.6023 12.134ZM90.8197 10.8673H92.8439C92.854 10.7353 92.8358 10.6027 92.7905 10.4781C92.7452 10.3534 92.6739 10.2395 92.581 10.1435C92.4881 10.0475 92.3757 9.97172 92.2511 9.9209C92.1266 9.87009 91.9925 9.84541 91.8576 9.84847C91.7208 9.84682 91.585 9.87206 91.4583 9.92269C91.3315 9.97332 91.2164 10.0483 91.1197 10.1433C91.023 10.2382 90.9466 10.3512 90.8951 10.4755C90.8436 10.5999 90.818 10.7331 90.8197 10.8673V10.8673Z" fill="white"/>
</g>
<defs>
<clipPath id="clip0">
<rect width="106.516" height="34.9202" fill="white" transform="translate(0.352539 0.363525)"/>
</clipPath>
</defs>
</svg>
