<svg width="31" height="30" viewBox="0 0 31 30" fill="none" xmlns="http://www.w3.org/2000/svg">
<path d="M15.2298 29.9952C23.641 29.9952 30.4596 23.2805 30.4596 14.9976C30.4596 6.71465 23.641 0 15.2298 0C6.81862 0 0 6.71465 0 14.9976C0 23.2805 6.81862 29.9952 15.2298 29.9952Z" fill="white"/>
<path d="M13.6195 12.5752V11.8249C13.3591 11.7879 13.0964 11.7689 12.8335 11.7676C9.61693 11.7676 7 14.3849 7 17.6015C7 19.5745 7.98611 21.3212 9.49038 22.3775C8.48311 21.3003 7.92304 19.8804 7.9239 18.4057C7.9239 15.2349 10.4664 12.6492 13.6195 12.5752Z" fill="#00F2EA"/>
<path d="M13.7573 21.0701C15.1926 21.0701 16.3632 19.9284 16.4166 18.5056L16.4215 5.80419H18.7419C18.6924 5.53891 18.6673 5.26977 18.6671 5H15.4978L15.4925 17.7018C15.4397 19.1242 14.2685 20.2655 12.8337 20.2655C12.4029 20.2657 11.9786 20.1608 11.5977 19.9596C12.0968 20.6561 12.9006 21.0693 13.7573 21.0701ZM23.0763 10.1156V9.40979C22.2236 9.41065 21.389 9.16246 20.6753 8.69602C21.3012 9.41663 22.1436 9.91471 23.0767 10.1156" fill="#00F2EA"/>
<path d="M20.6747 8.69524C19.9753 7.8949 19.5899 6.86775 19.5903 5.80469H18.7412C18.9633 6.99195 19.6621 8.03662 20.6747 8.69524ZM12.8331 14.9372C11.3624 14.9389 10.1707 16.1307 10.1689 17.6014C10.1698 18.5916 10.7196 19.4996 11.5967 19.9597C11.269 19.5078 11.0926 18.9642 11.0926 18.406C11.0941 16.9353 12.2859 15.7431 13.7568 15.7414C14.0313 15.7414 14.2944 15.7867 14.5428 15.8648V12.6292C14.2825 12.5922 14.0197 12.5732 13.7568 12.5719C13.7106 12.5719 13.6651 12.5745 13.6194 12.5753V15.0606C13.365 14.9798 13.0999 14.9381 12.8331 14.9372Z" fill="#FF004F"/>
<path d="M23.0757 10.1139V12.5772C21.4321 12.5772 19.9099 12.0515 18.6664 11.1592V17.6C18.6664 20.8166 16.0499 23.4335 12.8333 23.4335C11.5903 23.4335 10.4376 23.0412 9.49023 22.376C10.5913 23.5635 12.1375 24.2381 13.7568 24.2377C16.9733 24.2377 19.5903 21.6208 19.5903 18.4046V11.9639C20.8748 12.8875 22.4176 13.3837 23.9996 13.3818V10.2116C23.6824 10.2116 23.3739 10.1772 23.0755 10.1133" fill="#FF004F"/>
<path d="M18.6665 17.6014V11.1606C19.951 12.0845 21.4937 12.5804 23.0758 12.5785V10.1155C22.1429 9.91435 21.3005 9.41606 20.6748 8.69524C19.6622 8.03662 18.9634 6.99195 18.7413 5.80469H16.4211L16.4161 18.5061C16.3629 19.9285 15.1921 21.0702 13.7569 21.0702C12.9003 21.0693 12.0963 20.6559 11.5974 19.9599C10.7203 19.5001 10.1703 18.592 10.1692 17.6016C10.1709 16.1309 11.3627 14.9391 12.8334 14.9374C13.1075 14.9374 13.3706 14.9823 13.6194 15.0608V12.5755C10.4664 12.6495 7.92383 15.2352 7.92383 18.406C7.92383 19.9394 8.5196 21.3353 9.49031 22.3778C10.4689 23.0668 11.6367 23.4359 12.8334 23.4349C16.0502 23.4349 18.6665 20.8179 18.6665 17.6014Z" fill="black"/>
</svg>
