<svg xmlns="http://www.w3.org/2000/svg" width="40" height="40" viewBox="0 0 40 40" fill="none">
  <g clip-path="url(#clip0_3235_23898)">
    <path d="M7.52226 2.6203V9.88312L5.82218 7.90739L3.875 9.58278L7.83312 14.1829C8.07628 14.7874 9.3156 14.7447 9.7803 14.1829L13.7384 9.58278L11.7912 7.90739L10.0912 9.8832V3.90474H19.0208V1.33594H8.80671C8.09731 1.33594 7.52226 1.91089 7.52226 2.6203Z" fill="#00B884"/>
    <path d="M35.7552 30.5088L31.7971 25.9087C31.2924 25.3221 30.3545 25.3221 29.8499 25.9087L25.8918 30.5088L27.8389 32.1842L29.539 30.2084V36.1869H20.6094V38.7557H30.8235C31.5328 38.7557 32.1079 38.1806 32.1079 37.4713V30.2084L33.808 32.1842L35.7552 30.5088Z" fill="#00B884"/>
    <path d="M15.5336 18.0938H1.83487C0.821453 18.0938 0 18.9152 0 19.9286V38.1642C0 39.1775 0.821453 39.9991 1.83487 39.9991H15.5336C16.5469 39.9991 17.3685 39.1775 17.3685 38.1642V19.9286C17.3685 18.9152 16.547 18.0938 15.5336 18.0938ZM14.0118 35.8002H3.35667V33.2314H14.0118V35.8002ZM14.0118 30.3308H3.35667V27.762H14.0118V30.3308ZM14.0118 24.8614H3.35667V22.2926H14.0118V24.8614Z" fill="#00B884"/>
    <path d="M38.1664 0H24.4677C23.4543 0 22.6328 0.821539 22.6328 1.83487V20.0704C22.6328 21.0838 23.4543 21.9053 24.4677 21.9053H38.1664C39.1797 21.9053 40.0013 21.0838 40.0013 20.0704V1.83487C40.0013 0.821539 39.1798 0 38.1664 0ZM36.6446 17.7064H25.9895V15.1376H36.6446V17.7064ZM36.6446 12.237H25.9895V9.66821H36.6446V12.237ZM36.6446 6.76769H25.9895V4.19889H36.6446V6.76769Z" fill="#00B884"/>
  </g>
  <defs>
    <clipPath id="clip0_3235_23898">
      <rect width="40" height="40" fill="white"/>
    </clipPath>
  </defs>
</svg>
