<svg xmlns="http://www.w3.org/2000/svg" width="60" height="60" viewBox="0 0 60 60">
    <defs>
        <style>.a{fill:none;}.b{fill:#4786ff;}.c{fill:#f8c332;}</style>
    </defs>
    <g transform="translate(-1011 -2125)">
        <rect class="a" width="60" height="60" transform="translate(1011 2125)"/>
        <g transform="translate(1013.571 2128.686)">
            <g transform="translate(0 16.802)">
                <g transform="translate(0 0)">
                    <path class="b"
                          d="M8.955,167.256H1.791A1.794,1.794,0,0,0,0,169.047v32.237a1.792,1.792,0,0,0,1.791,1.791H8.955a1.792,1.792,0,0,0,1.791-1.791V169.047A1.794,1.794,0,0,0,8.955,167.256Z"
                          transform="translate(0 -167.256)"/>
                </g>
            </g>
            <g transform="translate(14.328 0)">
                <g transform="translate(0 0)">
                    <path class="c"
                          d="M169.784,27.236c-.288-.049-13.793,0-13.793,0l1.886-5.146c1.3-3.554.459-8.981-3.153-10.911a6.191,6.191,0,0,0-4.143-.61,2.988,2.988,0,0,0-1.825,1.368,7.438,7.438,0,0,0-.573,2.539,10.965,10.965,0,0,1-3.038,5.807c-2.781,2.712-11.418,10.535-11.418,10.535V59.473h29.849a5.424,5.424,0,0,0,4.681-8.009,5.423,5.423,0,0,0,1.791-7.164,5.422,5.422,0,0,0,1.791-7.164A5.464,5.464,0,0,0,169.784,27.236Z"
                          transform="translate(-133.726 -10.433)"/>
                </g>
            </g>
        </g>
    </g>
</svg>