<svg xmlns="http://www.w3.org/2000/svg" width="60" height="60" viewBox="0 0 60 60">
    <defs>
        <style>.a{fill:none;}.b{fill:#e8ecf2;}.c{fill:#f8c332;}.d{fill:#4786ff;}.e{fill:#fff;}</style>
    </defs>
    <g transform="translate(203)">
        <rect class="a" width="59.7" height="60" transform="translate(-203)"/>
        <path class="b"
              d="M-184.8,28.8a1.216,1.216,0,0,0-1.2-1.2h-4.1a1.216,1.216,0,0,0-1.2,1.2v4.1a1.216,1.216,0,0,0,1.2,1.2h4.1a1.216,1.216,0,0,0,1.2-1.2h0V28.8Z"
              transform="translate(-0.065)"/>
        <path class="c"
              d="M-174.6,28.8a1.216,1.216,0,0,0-1.2-1.2h-4.1a1.216,1.216,0,0,0-1.2,1.2v4.1a1.216,1.216,0,0,0,1.2,1.2h4.1a1.216,1.216,0,0,0,1.2-1.2Z"
              transform="translate(-0.122)"/>
        <path class="b"
              d="M-164.4,28.8a1.216,1.216,0,0,0-1.2-1.2h-4.1a1.216,1.216,0,0,0-1.2,1.2v4.1a1.216,1.216,0,0,0,1.2,1.2h4.1a1.216,1.216,0,0,0,1.2-1.2h0Z"
              transform="translate(-0.179)"/>
        <path class="c"
              d="M-184.8,38.9a1.216,1.216,0,0,0-1.2-1.2h-4.1a1.216,1.216,0,0,0-1.2,1.2h0V43a1.216,1.216,0,0,0,1.2,1.2h4.1a1.216,1.216,0,0,0,1.2-1.2h0V38.9Z"
              transform="translate(-0.065)"/>
        <path class="b"
              d="M-174.6,38.9a1.216,1.216,0,0,0-1.2-1.2h-4.1a1.216,1.216,0,0,0-1.2,1.2h0V43a1.216,1.216,0,0,0,1.2,1.2h4.1a1.216,1.216,0,0,0,1.2-1.2Z"
              transform="translate(-0.122)"/>
        <path class="c"
              d="M-164.4,38.9a1.216,1.216,0,0,0-1.2-1.2h-4.1a1.216,1.216,0,0,0-1.2,1.2h0V43a1.216,1.216,0,0,0,1.2,1.2h4.1a1.216,1.216,0,0,0,1.2-1.2V38.9Z"
              transform="translate(-0.179)"/>
        <path class="d"
              d="M-157.1,6.2v6.2a5.121,5.121,0,0,1-5.1,5.1h-3.2a5.058,5.058,0,0,1-5.1-5.1V6.2H-185v6.2a5.121,5.121,0,0,1-5.1,5.1h-3.2a5.121,5.121,0,0,1-5.1-5.1h0V6.2a4.633,4.633,0,0,0-4.5,4.6V47.1a4.653,4.653,0,0,0,4.6,4.6h41.1a4.653,4.653,0,0,0,4.6-4.6V10.8A4.633,4.633,0,0,0-157.1,6.2Zm-1.5,38.7a2.006,2.006,0,0,1-2,2h-34.5a2.006,2.006,0,0,1-2-2h0V26.1a2.006,2.006,0,0,1,2-2h34.5a2.006,2.006,0,0,1,2,2h0V44.9Z"/>
        <path class="d"
              d="M-193.4,14.2h3.2a1.685,1.685,0,0,0,1.7-1.7h0V2.3A1.685,1.685,0,0,0-190.2.6h-3.2a1.844,1.844,0,0,0-1.8,1.7h0V12.5a1.774,1.774,0,0,0,1.8,1.7Z"/>
        <path class="d"
              d="M-165.5,14.2h3.2a1.685,1.685,0,0,0,1.7-1.7h0V2.3A1.685,1.685,0,0,0-162.3.6h-3.2a1.844,1.844,0,0,0-1.8,1.7h0V12.5a1.923,1.923,0,0,0,1.8,1.7Z"
              transform="translate(-0.2)"/>
        <g transform="translate(-173.4 28.9)">
            <path class="e"
                  d="M-157.9,28.9a15.193,15.193,0,0,0-15.2,15.2,15.193,15.193,0,0,0,15.2,15.2,15.193,15.193,0,0,0,15.2-15.2A15.193,15.193,0,0,0-157.9,28.9Z"
                  transform="translate(173.1 -28.9)"/>
            <path class="c"
                  d="M-157.9,32.9a11.182,11.182,0,0,0-11.2,11.2,11.182,11.182,0,0,0,11.2,11.2,11.182,11.182,0,0,0,11.2-11.2A11.182,11.182,0,0,0-157.9,32.9Z"
                  transform="translate(173.1 -28.9)"/>
            <path class="e"
                  d="M-153.5,48.1l-1.5-1.5-2.3-2.3-.5-.5a6.89,6.89,0,0,0,.3.8V38.9a1.155,1.155,0,0,0-1.2-1.2,1.155,1.155,0,0,0-1.2,1.2v5.2a1.735,1.735,0,0,0,.3,1.4c.1.2.3.3.4.4l2.2,2.2,1.7,1.7h0a1.239,1.239,0,0,0,1.7,0,1.244,1.244,0,0,0,.1-1.7Z"
                  transform="translate(173.1 -28.9)"/>
        </g>
    </g>
</svg>