<svg width="25" height="25" viewBox="0 0 25 25" fill="none" xmlns="http://www.w3.org/2000/svg">
<g clip-path="url(#clip0_6182_23591)">
<path d="M14.6294 19.7832H19.6294V5.7832H5.62939V19.7832H12.6294V14.7832H10.6294V12.7832H12.6294V11.1292C12.6294 9.7922 12.7694 9.3072 13.0294 8.8182C13.2855 8.33439 13.6814 7.93889 14.1654 7.6832C14.5474 7.4782 15.0224 7.3552 15.8524 7.3022C16.1814 7.2812 16.6074 7.3072 17.1304 7.3822V9.2822H16.6294C15.7124 9.2822 15.3334 9.3252 15.1074 9.4462C14.9725 9.51556 14.8628 9.62535 14.7934 9.7602C14.6734 9.9862 14.6294 10.2102 14.6294 11.1282V12.7832H17.1294L16.6294 14.7832H14.6294V19.7832ZM4.62939 3.7832H20.6294C20.8946 3.7832 21.149 3.88856 21.3365 4.0761C21.524 4.26363 21.6294 4.51799 21.6294 4.7832V20.7832C21.6294 21.0484 21.524 21.3028 21.3365 21.4903C21.149 21.6778 20.8946 21.7832 20.6294 21.7832H4.62939C4.36418 21.7832 4.10982 21.6778 3.92229 21.4903C3.73475 21.3028 3.62939 21.0484 3.62939 20.7832V4.7832C3.62939 4.51799 3.73475 4.26363 3.92229 4.0761C4.10982 3.88856 4.36418 3.7832 4.62939 3.7832Z" fill="#475467"/>
</g>
<defs>
<clipPath id="clip0_6182_23591">
<rect width="24" height="24" fill="white" transform="translate(0.629395 0.783203)"/>
</clipPath>
</defs>
</svg>
