<svg width="25" height="25" viewBox="0 0 25 25" fill="none" xmlns="http://www.w3.org/2000/svg">
<g clip-path="url(#clip0_6182_23597)">
<path d="M12.6294 9.7832C11.8337 9.7832 11.0707 10.0993 10.5081 10.6619C9.94546 11.2245 9.62939 11.9876 9.62939 12.7832C9.62939 13.5789 9.94546 14.3419 10.5081 14.9045C11.0707 15.4671 11.8337 15.7832 12.6294 15.7832C13.425 15.7832 14.1881 15.4671 14.7507 14.9045C15.3133 14.3419 15.6294 13.5789 15.6294 12.7832C15.6294 11.9876 15.3133 11.2245 14.7507 10.6619C14.1881 10.0993 13.425 9.7832 12.6294 9.7832ZM12.6294 7.7832C13.9555 7.7832 15.2272 8.30999 16.1649 9.24767C17.1026 10.1854 17.6294 11.4571 17.6294 12.7832C17.6294 14.1093 17.1026 15.3811 16.1649 16.3187C15.2272 17.2564 13.9555 17.7832 12.6294 17.7832C11.3033 17.7832 10.0315 17.2564 9.09386 16.3187C8.15618 15.3811 7.62939 14.1093 7.62939 12.7832C7.62939 11.4571 8.15618 10.1854 9.09386 9.24767C10.0315 8.30999 11.3033 7.7832 12.6294 7.7832ZM19.1294 7.5332C19.1294 7.86472 18.9977 8.18267 18.7633 8.41709C18.5289 8.65151 18.2109 8.7832 17.8794 8.7832C17.5479 8.7832 17.2299 8.65151 16.9955 8.41709C16.7611 8.18267 16.6294 7.86472 16.6294 7.5332C16.6294 7.20168 16.7611 6.88374 16.9955 6.64932C17.2299 6.4149 17.5479 6.2832 17.8794 6.2832C18.2109 6.2832 18.5289 6.4149 18.7633 6.64932C18.9977 6.88374 19.1294 7.20168 19.1294 7.5332ZM12.6294 4.7832C10.1554 4.7832 9.75139 4.7902 8.60039 4.8412C7.81639 4.8782 7.29039 4.9832 6.80239 5.1732C6.36839 5.3412 6.05539 5.5422 5.72239 5.8762C5.4094 6.1786 5.16875 6.54779 5.01839 6.9562C4.82839 7.4462 4.72339 7.9712 4.68739 8.7542C4.63539 9.8582 4.62939 10.2442 4.62939 12.7832C4.62939 15.2572 4.63639 15.6612 4.68739 16.8122C4.72439 17.5952 4.82939 18.1222 5.01839 18.6092C5.18839 19.0442 5.38839 19.3572 5.72039 19.6892C6.05739 20.0252 6.37039 20.2262 6.80039 20.3922C7.29439 20.5832 7.82039 20.6892 8.60039 20.7252C9.70439 20.7772 10.0904 20.7832 12.6294 20.7832C15.1034 20.7832 15.5074 20.7762 16.6584 20.7252C17.4404 20.6882 17.9674 20.5832 18.4554 20.3942C18.8884 20.2252 19.2034 20.0242 19.5354 19.6922C19.8724 19.3552 20.0734 19.0422 20.2394 18.6122C20.4294 18.1192 20.5354 17.5922 20.5714 16.8122C20.6234 15.7082 20.6294 15.3222 20.6294 12.7832C20.6294 10.3092 20.6224 9.9052 20.5714 8.7542C20.5344 7.9722 20.4294 7.4442 20.2394 6.9562C20.0887 6.5482 19.8485 6.17916 19.5364 5.8762C19.2341 5.56305 18.8649 5.32237 18.4564 5.1722C17.9664 4.9822 17.4404 4.8772 16.6584 4.8412C15.5544 4.7892 15.1684 4.7832 12.6294 4.7832ZM12.6294 2.7832C15.3464 2.7832 15.6854 2.7932 16.7514 2.8432C17.8164 2.8932 18.5414 3.0602 19.1794 3.3082C19.8394 3.5622 20.3954 3.9062 20.9514 4.4612C21.4599 4.9611 21.8533 5.56579 22.1044 6.2332C22.3514 6.8702 22.5194 7.5962 22.5694 8.6612C22.6164 9.7272 22.6294 10.0662 22.6294 12.7832C22.6294 15.5002 22.6194 15.8392 22.5694 16.9052C22.5194 17.9702 22.3514 18.6952 22.1044 19.3332C21.8541 20.001 21.4605 20.6058 20.9514 21.1052C20.4514 21.6135 19.8467 22.007 19.1794 22.2582C18.5424 22.5052 17.8164 22.6732 16.7514 22.7232C15.6854 22.7702 15.3464 22.7832 12.6294 22.7832C9.91239 22.7832 9.57339 22.7732 8.50739 22.7232C7.44239 22.6732 6.71739 22.5052 6.07939 22.2582C5.41172 22.0077 4.80692 21.6141 4.30739 21.1052C3.7988 20.6054 3.40533 20.0007 3.15439 19.3332C2.90639 18.6962 2.73939 17.9702 2.68939 16.9052C2.64239 15.8392 2.62939 15.5002 2.62939 12.7832C2.62939 10.0662 2.63939 9.7272 2.68939 8.6612C2.73939 7.5952 2.90639 6.8712 3.15439 6.2332C3.40463 5.56538 3.7982 4.96052 4.30739 4.4612C4.80707 3.95243 5.41182 3.55893 6.07939 3.3082C6.71739 3.0602 7.44139 2.8932 8.50739 2.8432C9.57339 2.7962 9.91239 2.7832 12.6294 2.7832Z" fill="#475467"/>
</g>
<defs>
<clipPath id="clip0_6182_23597">
<rect width="24" height="24" fill="white" transform="translate(0.629395 0.783203)"/>
</clipPath>
</defs>
</svg>
