<svg width="25" height="25" viewBox="0 0 25 25" fill="none" xmlns="http://www.w3.org/2000/svg">
<g clip-path="url(#clip0_6182_23594)">
<path d="M4.62939 3.7832H20.6294C20.8946 3.7832 21.149 3.88856 21.3365 4.0761C21.524 4.26363 21.6294 4.51799 21.6294 4.7832V20.7832C21.6294 21.0484 21.524 21.3028 21.3365 21.4903C21.149 21.6778 20.8946 21.7832 20.6294 21.7832H4.62939C4.36418 21.7832 4.10982 21.6778 3.92229 21.4903C3.73475 21.3028 3.62939 21.0484 3.62939 20.7832V4.7832C3.62939 4.51799 3.73475 4.26363 3.92229 4.0761C4.10982 3.88856 4.36418 3.7832 4.62939 3.7832ZM5.62939 5.7832V19.7832H19.6294V5.7832H5.62939ZM8.12939 9.7832C7.73157 9.7832 7.35004 9.62517 7.06873 9.34386C6.78743 9.06256 6.62939 8.68103 6.62939 8.2832C6.62939 7.88538 6.78743 7.50385 7.06873 7.22254C7.35004 6.94124 7.73157 6.7832 8.12939 6.7832C8.52722 6.7832 8.90875 6.94124 9.19005 7.22254C9.47136 7.50385 9.62939 7.88538 9.62939 8.2832C9.62939 8.68103 9.47136 9.06256 9.19005 9.34386C8.90875 9.62517 8.52722 9.7832 8.12939 9.7832ZM7.12939 10.7832H9.12939V18.2832H7.12939V10.7832ZM12.6294 11.2132C13.2134 10.6482 13.8954 10.2832 14.6294 10.2832C16.7004 10.2832 18.1294 11.9622 18.1294 14.0332V18.2832H16.1294V14.0332C16.1294 13.5691 15.945 13.124 15.6168 12.7958C15.2886 12.4676 14.8435 12.2832 14.3794 12.2832C13.9153 12.2832 13.4701 12.4676 13.142 12.7958C12.8138 13.124 12.6294 13.5691 12.6294 14.0332V18.2832H10.6294V10.7832H12.6294V11.2132Z" fill="#475467"/>
</g>
<defs>
<clipPath id="clip0_6182_23594">
<rect width="24" height="24" fill="white" transform="translate(0.629395 0.783203)"/>
</clipPath>
</defs>
</svg>
