<svg width="41" height="41" viewBox="0 0 41 41" fill="none" xmlns="http://www.w3.org/2000/svg">
<circle cx="20.6294" cy="20.7832" r="20" fill="#1A77F2"/>
<mask id="mask0_6182_23584" style="mask-type:alpha" maskUnits="userSpaceOnUse" x="9" y="8" width="25" height="25">
<rect x="9.0166" y="8.60547" width="24" height="24" fill="#D9D9D9"/>
</mask>
<g mask="url(#mask0_6182_23584)">
<path d="M27.0166 24.3555C27.0166 26.0888 26.4083 27.5638 25.1916 28.7805C23.9749 29.9971 22.4999 30.6055 20.7666 30.6055C19.0333 30.6055 17.5583 29.9971 16.3416 28.7805C15.1249 27.5638 14.5166 26.0888 14.5166 24.3555V15.1055C14.5166 13.8555 14.9541 12.793 15.8291 11.918C16.7041 11.043 17.7666 10.6055 19.0166 10.6055C20.2666 10.6055 21.3291 11.043 22.2041 11.918C23.0791 12.793 23.5166 13.8555 23.5166 15.1055V23.8555C23.5166 24.6221 23.2499 25.2721 22.7166 25.8055C22.1833 26.3388 21.5333 26.6055 20.7666 26.6055C19.9999 26.6055 19.3499 26.3388 18.8166 25.8055C18.2833 25.2721 18.0166 24.6221 18.0166 23.8555V14.6055H20.0166V23.8555C20.0166 24.0721 20.0874 24.2513 20.2291 24.393C20.3708 24.5346 20.5499 24.6055 20.7666 24.6055C20.9833 24.6055 21.1624 24.5346 21.3041 24.393C21.4458 24.2513 21.5166 24.0721 21.5166 23.8555V15.1055C21.4999 14.4055 21.2541 13.8138 20.7791 13.3305C20.3041 12.8471 19.7166 12.6055 19.0166 12.6055C18.3166 12.6055 17.7249 12.8471 17.2416 13.3305C16.7583 13.8138 16.5166 14.4055 16.5166 15.1055V24.3555C16.4999 25.5388 16.9083 26.543 17.7416 27.368C18.5749 28.193 19.5833 28.6055 20.7666 28.6055C21.9333 28.6055 22.9249 28.193 23.7416 27.368C24.5583 26.543 24.9833 25.5388 25.0166 24.3555V14.6055H27.0166V24.3555Z" fill="white"/>
</g>
</svg>
